<svg xmlns="http://www.w3.org/2000/svg" xmlns:xlink="http://www.w3.org/1999/xlink" width="1920" height="1079" viewBox="0 0 1920 1079"><defs><clipPath id="b"><rect width="1920" height="1079"/></clipPath></defs><g id="a" clip-path="url(#b)"><rect width="1920" height="1079" fill="#fff"/><path d="M-7515-194" transform="translate(9435 194)" fill="none" stroke="#707070" stroke-width="1"/><g transform="translate(1256.926 -240.096)" opacity="0.28"><g transform="translate(201.744 303.338)" opacity="0.4"><path d="M202.4,307.325c0,2.579-1.228,4.009-3.436,4.009-2.229,0-3.445-1.43-3.445-4.009s1.216-3.987,3.445-3.987C201.168,303.338,202.4,304.756,202.4,307.325Zm-5.058,0c0,1.859.508,2.646,1.622,2.646s1.611-.787,1.611-2.646-.506-2.624-1.611-2.624S197.338,305.478,197.338,307.325Z" transform="translate(-195.514 -303.338)" fill="#4a50d9"/><path d="M209.31,307.325c0,2.579-1.228,4.009-3.435,4.009-2.23,0-3.447-1.43-3.447-4.009s1.216-3.987,3.447-3.987C208.082,303.338,209.31,304.756,209.31,307.325Zm-5.058,0c0,1.859.508,2.646,1.623,2.646s1.611-.787,1.611-2.646-.508-2.624-1.611-2.624S204.252,305.478,204.252,307.325Z" transform="translate(-192.309 -303.338)" fill="#4a50d9"/><path d="M210.559,311.26v-6.385h-1.485v-1.5h3.264v7.884Z" transform="translate(-189.229 -303.32)" fill="#4a50d9"/></g><g transform="translate(213.298 314.058)" opacity="0.4"><path d="M210.29,314.65c0,2.579-1.228,4.009-3.435,4.009-2.23,0-3.447-1.43-3.447-4.009s1.216-3.987,3.447-3.987C209.063,310.663,210.29,312.081,210.29,314.65Zm-5.056,0c0,1.857.506,2.646,1.622,2.646s1.61-.789,1.61-2.646-.506-2.624-1.61-2.624S205.234,312.8,205.234,314.65Z" transform="translate(-203.409 -310.663)" fill="#4a50d9"/><path d="M217.206,314.65c0,2.579-1.228,4.009-3.436,4.009-2.23,0-3.447-1.43-3.447-4.009s1.216-3.987,3.447-3.987C215.978,310.663,217.206,312.081,217.206,314.65Zm-5.058,0c0,1.857.506,2.646,1.622,2.646s1.611-.789,1.611-2.646-.508-2.624-1.611-2.624S212.148,312.8,212.148,314.65Z" transform="translate(-200.204 -310.663)" fill="#4a50d9"/><path d="M218.454,318.585V312.2h-1.486v-1.5h3.265v7.884Z" transform="translate(-197.124 -310.645)" fill="#4a50d9"/></g><g transform="translate(224.853 324.779)" opacity="0.4"><path d="M218.186,321.973c0,2.58-1.226,4.01-3.435,4.01-2.23,0-3.447-1.43-3.447-4.01s1.216-3.985,3.447-3.985C216.959,317.988,218.186,319.406,218.186,321.973Zm-5.057,0c0,1.859.506,2.648,1.622,2.648s1.61-.789,1.61-2.648-.506-2.624-1.61-2.624S213.129,320.128,213.129,321.973Z" transform="translate(-211.304 -317.988)" fill="#4a50d9"/><path d="M225.1,321.973c0,2.58-1.228,4.01-3.436,4.01-2.229,0-3.445-1.43-3.445-4.01s1.216-3.985,3.445-3.985C223.873,317.988,225.1,319.406,225.1,321.973Zm-5.058,0c0,1.859.508,2.648,1.622,2.648s1.611-.789,1.611-2.648-.506-2.624-1.611-2.624S220.043,320.128,220.043,321.973Z" transform="translate(-208.099 -317.988)" fill="#4a50d9"/><path d="M226.349,325.91v-6.387h-1.485v-1.5h3.265v7.884Z" transform="translate(-205.019 -317.97)" fill="#4a50d9"/></g><g transform="translate(236.409 335.499)" opacity="0.4"><path d="M226.08,329.3c0,2.58-1.226,4.01-3.435,4.01-2.229,0-3.445-1.43-3.445-4.01s1.216-3.985,3.445-3.985C224.854,325.313,226.08,326.731,226.08,329.3Zm-5.056,0c0,1.859.506,2.648,1.622,2.648s1.611-.789,1.611-2.648-.506-2.623-1.611-2.623S221.024,327.453,221.024,329.3Z" transform="translate(-219.2 -325.313)" fill="#4a50d9"/><path d="M233,329.3c0,2.58-1.228,4.01-3.435,4.01-2.23,0-3.447-1.43-3.447-4.01s1.216-3.985,3.447-3.985C231.768,325.313,233,326.731,233,329.3Zm-5.058,0c0,1.859.508,2.648,1.623,2.648s1.611-.789,1.611-2.648-.508-2.623-1.611-2.623S227.938,327.453,227.938,329.3Z" transform="translate(-215.995 -325.313)" fill="#4a50d9"/><path d="M234.245,333.235v-6.387H232.76v-1.5h3.264v7.884Z" transform="translate(-212.915 -325.295)" fill="#4a50d9"/></g><g transform="translate(247.964 346.219)" opacity="0.4"><path d="M233.977,336.623c0,2.58-1.228,4.01-3.435,4.01-2.23,0-3.447-1.43-3.447-4.01s1.216-3.985,3.447-3.985C232.749,332.638,233.977,334.056,233.977,336.623Zm-5.056,0c0,1.859.506,2.648,1.622,2.648s1.61-.789,1.61-2.648-.506-2.624-1.61-2.624S228.92,334.778,228.92,336.623Z" transform="translate(-227.095 -332.638)" fill="#4a50d9"/><path d="M240.892,336.623c0,2.58-1.228,4.01-3.436,4.01-2.23,0-3.447-1.43-3.447-4.01s1.216-3.985,3.447-3.985C239.664,332.638,240.892,334.056,240.892,336.623Zm-5.058,0c0,1.859.506,2.648,1.622,2.648s1.611-.789,1.611-2.648S238.559,334,237.456,334,235.834,334.778,235.834,336.623Z" transform="translate(-223.89 -332.638)" fill="#4a50d9"/><path d="M242.141,340.56v-6.387h-1.486v-1.5h3.265v7.884Z" transform="translate(-220.81 -332.62)" fill="#4a50d9"/></g><g transform="translate(182.074 314.841)" opacity="0.4"><path d="M188.956,315.185c0,2.579-1.228,4.01-3.435,4.01-2.23,0-3.447-1.431-3.447-4.01s1.216-3.987,3.447-3.987C187.728,311.2,188.956,312.618,188.956,315.185Zm-5.057,0c0,1.859.506,2.648,1.622,2.648s1.61-.789,1.61-2.648-.506-2.624-1.61-2.624S183.9,313.338,183.9,315.185Z" transform="translate(-182.074 -311.198)" fill="#4a50d9"/><path d="M195.871,315.185c0,2.579-1.228,4.01-3.436,4.01-2.23,0-3.447-1.431-3.447-4.01s1.216-3.987,3.447-3.987C194.643,311.2,195.871,312.618,195.871,315.185Zm-5.058,0c0,1.859.506,2.648,1.622,2.648s1.611-.789,1.611-2.648-.508-2.624-1.611-2.624S190.813,313.338,190.813,315.185Z" transform="translate(-178.869 -311.198)" fill="#4a50d9"/><path d="M197.119,319.12v-6.385h-1.485v-1.5H198.9v7.884Z" transform="translate(-175.789 -311.18)" fill="#4a50d9"/></g><g transform="translate(205.185 336.282)" opacity="0.4"><path d="M204.745,329.835c0,2.579-1.226,4.01-3.435,4.01-2.229,0-3.445-1.431-3.445-4.01s1.216-3.987,3.445-3.987C203.519,325.848,204.745,327.268,204.745,329.835Zm-5.056,0c0,1.859.506,2.646,1.622,2.646s1.611-.787,1.611-2.646-.506-2.624-1.611-2.624S199.689,327.988,199.689,329.835Z" transform="translate(-197.865 -325.848)" fill="#4a50d9"/><path d="M211.661,329.835c0,2.579-1.228,4.01-3.435,4.01-2.23,0-3.447-1.431-3.447-4.01s1.216-3.987,3.447-3.987C210.433,325.848,211.661,327.268,211.661,329.835Zm-5.058,0c0,1.859.508,2.646,1.623,2.646s1.61-.787,1.61-2.646-.506-2.624-1.61-2.624S206.6,327.988,206.6,329.835Z" transform="translate(-194.66 -325.848)" fill="#4a50d9"/><path d="M212.911,333.77v-6.385h-1.487v-1.5h3.265v7.884Z" transform="translate(-191.58 -325.83)" fill="#4a50d9"/></g><g transform="translate(216.739 347.002)" opacity="0.4"><path d="M212.642,337.16c0,2.579-1.228,4.01-3.435,4.01-2.23,0-3.447-1.431-3.447-4.01s1.216-3.987,3.447-3.987C211.414,333.173,212.642,334.593,212.642,337.16Zm-5.057,0c0,1.859.506,2.648,1.622,2.648s1.61-.789,1.61-2.648-.506-2.624-1.61-2.624S207.585,335.313,207.585,337.16Z" transform="translate(-205.76 -333.173)" fill="#4a50d9"/><path d="M219.557,337.16c0,2.579-1.228,4.01-3.436,4.01-2.23,0-3.447-1.431-3.447-4.01s1.216-3.987,3.447-3.987C218.329,333.173,219.557,334.593,219.557,337.16Zm-5.058,0c0,1.859.506,2.648,1.622,2.648s1.611-.789,1.611-2.648-.508-2.624-1.611-2.624S214.5,335.313,214.5,337.16Z" transform="translate(-202.555 -333.173)" fill="#4a50d9"/><path d="M220.805,341.1V334.71H219.32v-1.5h3.265V341.1Z" transform="translate(-199.475 -333.155)" fill="#4a50d9"/></g><g transform="translate(228.294 357.723)" opacity="0.4"><path d="M220.537,344.485c0,2.579-1.226,4.01-3.435,4.01-2.23,0-3.447-1.431-3.447-4.01s1.216-3.987,3.447-3.987C219.31,340.5,220.537,341.918,220.537,344.485Zm-5.057,0c0,1.859.506,2.646,1.622,2.646s1.61-.787,1.61-2.646-.506-2.624-1.61-2.624S215.48,342.638,215.48,344.485Z" transform="translate(-213.655 -340.498)" fill="#4a50d9"/><path d="M227.452,344.485c0,2.579-1.228,4.01-3.436,4.01-2.229,0-3.445-1.431-3.445-4.01s1.216-3.987,3.445-3.987C226.224,340.5,227.452,341.918,227.452,344.485Zm-5.058,0c0,1.859.506,2.646,1.622,2.646s1.611-.787,1.611-2.646-.506-2.624-1.611-2.624S222.394,342.638,222.394,344.485Z" transform="translate(-210.45 -340.498)" fill="#4a50d9"/><path d="M228.7,348.42v-6.385h-1.486v-1.5h3.265v7.884Z" transform="translate(-207.37 -340.48)" fill="#4a50d9"/></g></g><g transform="translate(657.926 235.904)" opacity="0.28"><g transform="translate(201.744 303.338)" opacity="0.4"><path d="M202.4,307.325c0,2.579-1.228,4.009-3.436,4.009-2.229,0-3.445-1.43-3.445-4.009s1.216-3.987,3.445-3.987C201.168,303.338,202.4,304.756,202.4,307.325Zm-5.058,0c0,1.859.508,2.646,1.622,2.646s1.611-.787,1.611-2.646-.506-2.624-1.611-2.624S197.338,305.478,197.338,307.325Z" transform="translate(-195.514 -303.338)" fill="#4a50d9"/><path d="M209.31,307.325c0,2.579-1.228,4.009-3.435,4.009-2.23,0-3.447-1.43-3.447-4.009s1.216-3.987,3.447-3.987C208.082,303.338,209.31,304.756,209.31,307.325Zm-5.058,0c0,1.859.508,2.646,1.623,2.646s1.611-.787,1.611-2.646-.508-2.624-1.611-2.624S204.252,305.478,204.252,307.325Z" transform="translate(-192.309 -303.338)" fill="#4a50d9"/><path d="M210.559,311.26v-6.385h-1.485v-1.5h3.264v7.884Z" transform="translate(-189.229 -303.32)" fill="#4a50d9"/></g><g transform="translate(213.298 314.058)" opacity="0.4"><path d="M210.29,314.65c0,2.579-1.228,4.009-3.435,4.009-2.23,0-3.447-1.43-3.447-4.009s1.216-3.987,3.447-3.987C209.063,310.663,210.29,312.081,210.29,314.65Zm-5.056,0c0,1.857.506,2.646,1.622,2.646s1.61-.789,1.61-2.646-.506-2.624-1.61-2.624S205.234,312.8,205.234,314.65Z" transform="translate(-203.409 -310.663)" fill="#4a50d9"/><path d="M217.206,314.65c0,2.579-1.228,4.009-3.436,4.009-2.23,0-3.447-1.43-3.447-4.009s1.216-3.987,3.447-3.987C215.978,310.663,217.206,312.081,217.206,314.65Zm-5.058,0c0,1.857.506,2.646,1.622,2.646s1.611-.789,1.611-2.646-.508-2.624-1.611-2.624S212.148,312.8,212.148,314.65Z" transform="translate(-200.204 -310.663)" fill="#4a50d9"/><path d="M218.454,318.585V312.2h-1.486v-1.5h3.265v7.884Z" transform="translate(-197.124 -310.645)" fill="#4a50d9"/></g><g transform="translate(224.853 324.779)" opacity="0.4"><path d="M218.186,321.973c0,2.58-1.226,4.01-3.435,4.01-2.23,0-3.447-1.43-3.447-4.01s1.216-3.985,3.447-3.985C216.959,317.988,218.186,319.406,218.186,321.973Zm-5.057,0c0,1.859.506,2.648,1.622,2.648s1.61-.789,1.61-2.648-.506-2.624-1.61-2.624S213.129,320.128,213.129,321.973Z" transform="translate(-211.304 -317.988)" fill="#4a50d9"/><path d="M225.1,321.973c0,2.58-1.228,4.01-3.436,4.01-2.229,0-3.445-1.43-3.445-4.01s1.216-3.985,3.445-3.985C223.873,317.988,225.1,319.406,225.1,321.973Zm-5.058,0c0,1.859.508,2.648,1.622,2.648s1.611-.789,1.611-2.648-.506-2.624-1.611-2.624S220.043,320.128,220.043,321.973Z" transform="translate(-208.099 -317.988)" fill="#4a50d9"/><path d="M226.349,325.91v-6.387h-1.485v-1.5h3.265v7.884Z" transform="translate(-205.019 -317.97)" fill="#4a50d9"/></g><g transform="translate(236.409 335.499)" opacity="0.4"><path d="M226.08,329.3c0,2.58-1.226,4.01-3.435,4.01-2.229,0-3.445-1.43-3.445-4.01s1.216-3.985,3.445-3.985C224.854,325.313,226.08,326.731,226.08,329.3Zm-5.056,0c0,1.859.506,2.648,1.622,2.648s1.611-.789,1.611-2.648-.506-2.623-1.611-2.623S221.024,327.453,221.024,329.3Z" transform="translate(-219.2 -325.313)" fill="#4a50d9"/><path d="M233,329.3c0,2.58-1.228,4.01-3.435,4.01-2.23,0-3.447-1.43-3.447-4.01s1.216-3.985,3.447-3.985C231.768,325.313,233,326.731,233,329.3Zm-5.058,0c0,1.859.508,2.648,1.623,2.648s1.611-.789,1.611-2.648-.508-2.623-1.611-2.623S227.938,327.453,227.938,329.3Z" transform="translate(-215.995 -325.313)" fill="#4a50d9"/><path d="M234.245,333.235v-6.387H232.76v-1.5h3.264v7.884Z" transform="translate(-212.915 -325.295)" fill="#4a50d9"/></g><g transform="translate(247.964 346.219)" opacity="0.4"><path d="M233.977,336.623c0,2.58-1.228,4.01-3.435,4.01-2.23,0-3.447-1.43-3.447-4.01s1.216-3.985,3.447-3.985C232.749,332.638,233.977,334.056,233.977,336.623Zm-5.056,0c0,1.859.506,2.648,1.622,2.648s1.61-.789,1.61-2.648-.506-2.624-1.61-2.624S228.92,334.778,228.92,336.623Z" transform="translate(-227.095 -332.638)" fill="#4a50d9"/><path d="M240.892,336.623c0,2.58-1.228,4.01-3.436,4.01-2.23,0-3.447-1.43-3.447-4.01s1.216-3.985,3.447-3.985C239.664,332.638,240.892,334.056,240.892,336.623Zm-5.058,0c0,1.859.506,2.648,1.622,2.648s1.611-.789,1.611-2.648S238.559,334,237.456,334,235.834,334.778,235.834,336.623Z" transform="translate(-223.89 -332.638)" fill="#4a50d9"/><path d="M242.141,340.56v-6.387h-1.486v-1.5h3.265v7.884Z" transform="translate(-220.81 -332.62)" fill="#4a50d9"/></g><g transform="translate(182.074 314.841)" opacity="0.4"><path d="M188.956,315.185c0,2.579-1.228,4.01-3.435,4.01-2.23,0-3.447-1.431-3.447-4.01s1.216-3.987,3.447-3.987C187.728,311.2,188.956,312.618,188.956,315.185Zm-5.057,0c0,1.859.506,2.648,1.622,2.648s1.61-.789,1.61-2.648-.506-2.624-1.61-2.624S183.9,313.338,183.9,315.185Z" transform="translate(-182.074 -311.198)" fill="#4a50d9"/><path d="M195.871,315.185c0,2.579-1.228,4.01-3.436,4.01-2.23,0-3.447-1.431-3.447-4.01s1.216-3.987,3.447-3.987C194.643,311.2,195.871,312.618,195.871,315.185Zm-5.058,0c0,1.859.506,2.648,1.622,2.648s1.611-.789,1.611-2.648-.508-2.624-1.611-2.624S190.813,313.338,190.813,315.185Z" transform="translate(-178.869 -311.198)" fill="#4a50d9"/><path d="M197.119,319.12v-6.385h-1.485v-1.5H198.9v7.884Z" transform="translate(-175.789 -311.18)" fill="#4a50d9"/></g><g transform="translate(205.185 336.282)" opacity="0.4"><path d="M204.745,329.835c0,2.579-1.226,4.01-3.435,4.01-2.229,0-3.445-1.431-3.445-4.01s1.216-3.987,3.445-3.987C203.519,325.848,204.745,327.268,204.745,329.835Zm-5.056,0c0,1.859.506,2.646,1.622,2.646s1.611-.787,1.611-2.646-.506-2.624-1.611-2.624S199.689,327.988,199.689,329.835Z" transform="translate(-197.865 -325.848)" fill="#4a50d9"/><path d="M211.661,329.835c0,2.579-1.228,4.01-3.435,4.01-2.23,0-3.447-1.431-3.447-4.01s1.216-3.987,3.447-3.987C210.433,325.848,211.661,327.268,211.661,329.835Zm-5.058,0c0,1.859.508,2.646,1.623,2.646s1.61-.787,1.61-2.646-.506-2.624-1.61-2.624S206.6,327.988,206.6,329.835Z" transform="translate(-194.66 -325.848)" fill="#4a50d9"/><path d="M212.911,333.77v-6.385h-1.487v-1.5h3.265v7.884Z" transform="translate(-191.58 -325.83)" fill="#4a50d9"/></g><g transform="translate(216.739 347.002)" opacity="0.4"><path d="M212.642,337.16c0,2.579-1.228,4.01-3.435,4.01-2.23,0-3.447-1.431-3.447-4.01s1.216-3.987,3.447-3.987C211.414,333.173,212.642,334.593,212.642,337.16Zm-5.057,0c0,1.859.506,2.648,1.622,2.648s1.61-.789,1.61-2.648-.506-2.624-1.61-2.624S207.585,335.313,207.585,337.16Z" transform="translate(-205.76 -333.173)" fill="#4a50d9"/><path d="M219.557,337.16c0,2.579-1.228,4.01-3.436,4.01-2.23,0-3.447-1.431-3.447-4.01s1.216-3.987,3.447-3.987C218.329,333.173,219.557,334.593,219.557,337.16Zm-5.058,0c0,1.859.506,2.648,1.622,2.648s1.611-.789,1.611-2.648-.508-2.624-1.611-2.624S214.5,335.313,214.5,337.16Z" transform="translate(-202.555 -333.173)" fill="#4a50d9"/><path d="M220.805,341.1V334.71H219.32v-1.5h3.265V341.1Z" transform="translate(-199.475 -333.155)" fill="#4a50d9"/></g><g transform="translate(228.294 357.723)" opacity="0.4"><path d="M220.537,344.485c0,2.579-1.226,4.01-3.435,4.01-2.23,0-3.447-1.431-3.447-4.01s1.216-3.987,3.447-3.987C219.31,340.5,220.537,341.918,220.537,344.485Zm-5.057,0c0,1.859.506,2.646,1.622,2.646s1.61-.787,1.61-2.646-.506-2.624-1.61-2.624S215.48,342.638,215.48,344.485Z" transform="translate(-213.655 -340.498)" fill="#4a50d9"/><path d="M227.452,344.485c0,2.579-1.228,4.01-3.436,4.01-2.229,0-3.445-1.431-3.445-4.01s1.216-3.987,3.445-3.987C226.224,340.5,227.452,341.918,227.452,344.485Zm-5.058,0c0,1.859.506,2.646,1.622,2.646s1.611-.787,1.611-2.646-.506-2.624-1.611-2.624S222.394,342.638,222.394,344.485Z" transform="translate(-210.45 -340.498)" fill="#4a50d9"/><path d="M228.7,348.42v-6.385h-1.486v-1.5h3.265v7.884Z" transform="translate(-207.37 -340.48)" fill="#4a50d9"/></g></g><g transform="translate(-195.074 530.904)" opacity="0.28"><g transform="translate(201.744 303.338)" opacity="0.4"><path d="M202.4,307.325c0,2.579-1.228,4.009-3.436,4.009-2.229,0-3.445-1.43-3.445-4.009s1.216-3.987,3.445-3.987C201.168,303.338,202.4,304.756,202.4,307.325Zm-5.058,0c0,1.859.508,2.646,1.622,2.646s1.611-.787,1.611-2.646-.506-2.624-1.611-2.624S197.338,305.478,197.338,307.325Z" transform="translate(-195.514 -303.338)" fill="#4a50d9"/><path d="M209.31,307.325c0,2.579-1.228,4.009-3.435,4.009-2.23,0-3.447-1.43-3.447-4.009s1.216-3.987,3.447-3.987C208.082,303.338,209.31,304.756,209.31,307.325Zm-5.058,0c0,1.859.508,2.646,1.623,2.646s1.611-.787,1.611-2.646-.508-2.624-1.611-2.624S204.252,305.478,204.252,307.325Z" transform="translate(-192.309 -303.338)" fill="#4a50d9"/><path d="M210.559,311.26v-6.385h-1.485v-1.5h3.264v7.884Z" transform="translate(-189.229 -303.32)" fill="#4a50d9"/></g><g transform="translate(213.298 314.058)" opacity="0.4"><path d="M210.29,314.65c0,2.579-1.228,4.009-3.435,4.009-2.23,0-3.447-1.43-3.447-4.009s1.216-3.987,3.447-3.987C209.063,310.663,210.29,312.081,210.29,314.65Zm-5.056,0c0,1.857.506,2.646,1.622,2.646s1.61-.789,1.61-2.646-.506-2.624-1.61-2.624S205.234,312.8,205.234,314.65Z" transform="translate(-203.409 -310.663)" fill="#4a50d9"/><path d="M217.206,314.65c0,2.579-1.228,4.009-3.436,4.009-2.23,0-3.447-1.43-3.447-4.009s1.216-3.987,3.447-3.987C215.978,310.663,217.206,312.081,217.206,314.65Zm-5.058,0c0,1.857.506,2.646,1.622,2.646s1.611-.789,1.611-2.646-.508-2.624-1.611-2.624S212.148,312.8,212.148,314.65Z" transform="translate(-200.204 -310.663)" fill="#4a50d9"/><path d="M218.454,318.585V312.2h-1.486v-1.5h3.265v7.884Z" transform="translate(-197.124 -310.645)" fill="#4a50d9"/></g><g transform="translate(224.853 324.779)" opacity="0.4"><path d="M218.186,321.973c0,2.58-1.226,4.01-3.435,4.01-2.23,0-3.447-1.43-3.447-4.01s1.216-3.985,3.447-3.985C216.959,317.988,218.186,319.406,218.186,321.973Zm-5.057,0c0,1.859.506,2.648,1.622,2.648s1.61-.789,1.61-2.648-.506-2.624-1.61-2.624S213.129,320.128,213.129,321.973Z" transform="translate(-211.304 -317.988)" fill="#4a50d9"/><path d="M225.1,321.973c0,2.58-1.228,4.01-3.436,4.01-2.229,0-3.445-1.43-3.445-4.01s1.216-3.985,3.445-3.985C223.873,317.988,225.1,319.406,225.1,321.973Zm-5.058,0c0,1.859.508,2.648,1.622,2.648s1.611-.789,1.611-2.648-.506-2.624-1.611-2.624S220.043,320.128,220.043,321.973Z" transform="translate(-208.099 -317.988)" fill="#4a50d9"/><path d="M226.349,325.91v-6.387h-1.485v-1.5h3.265v7.884Z" transform="translate(-205.019 -317.97)" fill="#4a50d9"/></g><g transform="translate(236.409 335.499)" opacity="0.4"><path d="M226.08,329.3c0,2.58-1.226,4.01-3.435,4.01-2.229,0-3.445-1.43-3.445-4.01s1.216-3.985,3.445-3.985C224.854,325.313,226.08,326.731,226.08,329.3Zm-5.056,0c0,1.859.506,2.648,1.622,2.648s1.611-.789,1.611-2.648-.506-2.623-1.611-2.623S221.024,327.453,221.024,329.3Z" transform="translate(-219.2 -325.313)" fill="#4a50d9"/><path d="M233,329.3c0,2.58-1.228,4.01-3.435,4.01-2.23,0-3.447-1.43-3.447-4.01s1.216-3.985,3.447-3.985C231.768,325.313,233,326.731,233,329.3Zm-5.058,0c0,1.859.508,2.648,1.623,2.648s1.611-.789,1.611-2.648-.508-2.623-1.611-2.623S227.938,327.453,227.938,329.3Z" transform="translate(-215.995 -325.313)" fill="#4a50d9"/><path d="M234.245,333.235v-6.387H232.76v-1.5h3.264v7.884Z" transform="translate(-212.915 -325.295)" fill="#4a50d9"/></g><g transform="translate(247.964 346.219)" opacity="0.4"><path d="M233.977,336.623c0,2.58-1.228,4.01-3.435,4.01-2.23,0-3.447-1.43-3.447-4.01s1.216-3.985,3.447-3.985C232.749,332.638,233.977,334.056,233.977,336.623Zm-5.056,0c0,1.859.506,2.648,1.622,2.648s1.61-.789,1.61-2.648-.506-2.624-1.61-2.624S228.92,334.778,228.92,336.623Z" transform="translate(-227.095 -332.638)" fill="#4a50d9"/><path d="M240.892,336.623c0,2.58-1.228,4.01-3.436,4.01-2.23,0-3.447-1.43-3.447-4.01s1.216-3.985,3.447-3.985C239.664,332.638,240.892,334.056,240.892,336.623Zm-5.058,0c0,1.859.506,2.648,1.622,2.648s1.611-.789,1.611-2.648S238.559,334,237.456,334,235.834,334.778,235.834,336.623Z" transform="translate(-223.89 -332.638)" fill="#4a50d9"/><path d="M242.141,340.56v-6.387h-1.486v-1.5h3.265v7.884Z" transform="translate(-220.81 -332.62)" fill="#4a50d9"/></g><g transform="translate(182.074 314.841)" opacity="0.4"><path d="M188.956,315.185c0,2.579-1.228,4.01-3.435,4.01-2.23,0-3.447-1.431-3.447-4.01s1.216-3.987,3.447-3.987C187.728,311.2,188.956,312.618,188.956,315.185Zm-5.057,0c0,1.859.506,2.648,1.622,2.648s1.61-.789,1.61-2.648-.506-2.624-1.61-2.624S183.9,313.338,183.9,315.185Z" transform="translate(-182.074 -311.198)" fill="#4a50d9"/><path d="M195.871,315.185c0,2.579-1.228,4.01-3.436,4.01-2.23,0-3.447-1.431-3.447-4.01s1.216-3.987,3.447-3.987C194.643,311.2,195.871,312.618,195.871,315.185Zm-5.058,0c0,1.859.506,2.648,1.622,2.648s1.611-.789,1.611-2.648-.508-2.624-1.611-2.624S190.813,313.338,190.813,315.185Z" transform="translate(-178.869 -311.198)" fill="#4a50d9"/><path d="M197.119,319.12v-6.385h-1.485v-1.5H198.9v7.884Z" transform="translate(-175.789 -311.18)" fill="#4a50d9"/></g><g transform="translate(205.185 336.282)" opacity="0.4"><path d="M204.745,329.835c0,2.579-1.226,4.01-3.435,4.01-2.229,0-3.445-1.431-3.445-4.01s1.216-3.987,3.445-3.987C203.519,325.848,204.745,327.268,204.745,329.835Zm-5.056,0c0,1.859.506,2.646,1.622,2.646s1.611-.787,1.611-2.646-.506-2.624-1.611-2.624S199.689,327.988,199.689,329.835Z" transform="translate(-197.865 -325.848)" fill="#4a50d9"/><path d="M211.661,329.835c0,2.579-1.228,4.01-3.435,4.01-2.23,0-3.447-1.431-3.447-4.01s1.216-3.987,3.447-3.987C210.433,325.848,211.661,327.268,211.661,329.835Zm-5.058,0c0,1.859.508,2.646,1.623,2.646s1.61-.787,1.61-2.646-.506-2.624-1.61-2.624S206.6,327.988,206.6,329.835Z" transform="translate(-194.66 -325.848)" fill="#4a50d9"/><path d="M212.911,333.77v-6.385h-1.487v-1.5h3.265v7.884Z" transform="translate(-191.58 -325.83)" fill="#4a50d9"/></g><g transform="translate(216.739 347.002)" opacity="0.4"><path d="M212.642,337.16c0,2.579-1.228,4.01-3.435,4.01-2.23,0-3.447-1.431-3.447-4.01s1.216-3.987,3.447-3.987C211.414,333.173,212.642,334.593,212.642,337.16Zm-5.057,0c0,1.859.506,2.648,1.622,2.648s1.61-.789,1.61-2.648-.506-2.624-1.61-2.624S207.585,335.313,207.585,337.16Z" transform="translate(-205.76 -333.173)" fill="#4a50d9"/><path d="M219.557,337.16c0,2.579-1.228,4.01-3.436,4.01-2.23,0-3.447-1.431-3.447-4.01s1.216-3.987,3.447-3.987C218.329,333.173,219.557,334.593,219.557,337.16Zm-5.058,0c0,1.859.506,2.648,1.622,2.648s1.611-.789,1.611-2.648-.508-2.624-1.611-2.624S214.5,335.313,214.5,337.16Z" transform="translate(-202.555 -333.173)" fill="#4a50d9"/><path d="M220.805,341.1V334.71H219.32v-1.5h3.265V341.1Z" transform="translate(-199.475 -333.155)" fill="#4a50d9"/></g><g transform="translate(228.294 357.723)" opacity="0.4"><path d="M220.537,344.485c0,2.579-1.226,4.01-3.435,4.01-2.23,0-3.447-1.431-3.447-4.01s1.216-3.987,3.447-3.987C219.31,340.5,220.537,341.918,220.537,344.485Zm-5.057,0c0,1.859.506,2.646,1.622,2.646s1.61-.787,1.61-2.646-.506-2.624-1.61-2.624S215.48,342.638,215.48,344.485Z" transform="translate(-213.655 -340.498)" fill="#4a50d9"/><path d="M227.452,344.485c0,2.579-1.228,4.01-3.436,4.01-2.229,0-3.445-1.431-3.445-4.01s1.216-3.987,3.445-3.987C226.224,340.5,227.452,341.918,227.452,344.485Zm-5.058,0c0,1.859.506,2.646,1.622,2.646s1.611-.787,1.611-2.646-.506-2.624-1.611-2.624S222.394,342.638,222.394,344.485Z" transform="translate(-210.45 -340.498)" fill="#4a50d9"/><path d="M228.7,348.42v-6.385h-1.486v-1.5h3.265v7.884Z" transform="translate(-207.37 -340.48)" fill="#4a50d9"/></g></g><g transform="translate(1315.313 643.372)" opacity="0.28"><g transform="translate(341.111 97.628)" opacity="0.4"><path d="M334.614,101.486c0,2.5-1.189,3.882-3.326,3.882-2.158,0-3.335-1.384-3.335-3.882s1.177-3.858,3.335-3.858C333.425,97.628,334.614,99,334.614,101.486Zm-4.895,0c0,1.8.49,2.563,1.568,2.563s1.56-.764,1.56-2.563-.49-2.539-1.56-2.539S329.72,99.7,329.72,101.486Z" transform="translate(-327.953 -97.628)" fill="#4a50d9"/></g><g transform="translate(363.48 118.382)" opacity="0.4"><path d="M350.4,116.136c0,2.5-1.187,3.882-3.325,3.882-2.159,0-3.336-1.384-3.336-3.882s1.177-3.858,3.336-3.858C349.217,112.278,350.4,113.651,350.4,116.136Zm-4.895,0c0,1.8.49,2.563,1.57,2.563s1.558-.764,1.558-2.563-.49-2.54-1.558-2.54S345.51,114.348,345.51,116.136Z" transform="translate(-343.743 -112.278)" fill="#4a50d9"/><path d="M357.319,116.136c0,2.5-1.189,3.882-3.326,3.882-2.158,0-3.335-1.384-3.335-3.882s1.177-3.858,3.335-3.858C356.13,112.278,357.319,113.651,357.319,116.136Zm-4.9,0c0,1.8.492,2.563,1.57,2.563s1.56-.764,1.56-2.563-.49-2.54-1.56-2.54S352.423,114.348,352.423,116.136Z" transform="translate(-340.862 -112.278)" fill="#4a50d9"/><path d="M358.741,119.947v-6.182H357.3v-1.449h3.16v7.631Z" transform="translate(-338.093 -112.262)" fill="#4a50d9"/></g><g transform="translate(310.887 98.386)" opacity="0.4"><path d="M313.279,102.022c0,2.5-1.189,3.882-3.326,3.882-2.158,0-3.335-1.385-3.335-3.882s1.177-3.859,3.335-3.859C312.09,98.163,313.279,99.537,313.279,102.022Zm-4.9,0c0,1.8.492,2.561,1.57,2.561s1.56-.762,1.56-2.561-.49-2.54-1.56-2.54S308.383,100.234,308.383,102.022Z" transform="translate(-306.618 -98.163)" fill="#4a50d9"/><path d="M320.193,102.022c0,2.5-1.189,3.882-3.325,3.882-2.159,0-3.336-1.385-3.336-3.882s1.177-3.859,3.336-3.859C319,98.163,320.193,99.537,320.193,102.022Zm-4.9,0c0,1.8.492,2.561,1.571,2.561s1.56-.762,1.56-2.561-.492-2.54-1.56-2.54S315.3,100.234,315.3,102.022Z" transform="translate(-303.737 -98.163)" fill="#4a50d9"/><path d="M321.616,105.832V99.652h-1.438V98.2h3.159v7.631Z" transform="translate(-300.968 -98.147)" fill="#4a50d9"/></g><g transform="translate(322.072 108.763)" opacity="0.4"><path d="M321.174,109.347c0,2.5-1.189,3.882-3.325,3.882-2.159,0-3.336-1.385-3.336-3.882s1.177-3.859,3.336-3.859C319.986,105.488,321.174,106.862,321.174,109.347Zm-4.894,0c0,1.8.49,2.561,1.57,2.561s1.558-.762,1.558-2.561-.49-2.54-1.558-2.54S316.28,107.559,316.28,109.347Z" transform="translate(-314.513 -105.488)" fill="#4a50d9"/><path d="M328.089,109.347c0,2.5-1.189,3.882-3.326,3.882-2.159,0-3.336-1.385-3.336-3.882s1.177-3.859,3.336-3.859C326.9,105.488,328.089,106.862,328.089,109.347Zm-4.9,0c0,1.8.49,2.561,1.57,2.561s1.56-.762,1.56-2.561-.492-2.54-1.56-2.54S323.194,107.559,323.194,109.347Z" transform="translate(-311.632 -105.488)" fill="#4a50d9"/><path d="M329.511,113.157v-6.181h-1.438v-1.451h3.161v7.631Z" transform="translate(-308.863 -105.472)" fill="#4a50d9"/></g><g transform="translate(333.256 119.14)" opacity="0.4"><path d="M329.069,116.672c0,2.5-1.187,3.882-3.325,3.882-2.159,0-3.336-1.385-3.336-3.882s1.177-3.859,3.336-3.859C327.882,112.813,329.069,114.187,329.069,116.672Zm-4.894,0c0,1.8.49,2.561,1.57,2.561s1.558-.762,1.558-2.561-.49-2.54-1.558-2.54S324.175,114.884,324.175,116.672Z" transform="translate(-322.408 -112.813)" fill="#4a50d9"/><path d="M335.984,116.672c0,2.5-1.189,3.882-3.326,3.882-2.158,0-3.335-1.385-3.335-3.882s1.177-3.859,3.335-3.859C334.8,112.813,335.984,114.187,335.984,116.672Zm-4.9,0c0,1.8.492,2.561,1.57,2.561s1.56-.762,1.56-2.561-.49-2.54-1.56-2.54S331.088,114.884,331.088,116.672Z" transform="translate(-319.527 -112.813)" fill="#4a50d9"/><path d="M337.406,120.482V114.3h-1.438v-1.451h3.161v7.631Z" transform="translate(-316.758 -112.797)" fill="#4a50d9"/></g><g transform="translate(344.442 129.517)" opacity="0.4"><path d="M336.964,124c0,2.5-1.187,3.882-3.325,3.882-2.158,0-3.335-1.385-3.335-3.882s1.177-3.859,3.335-3.859C335.776,120.138,336.964,121.512,336.964,124Zm-4.894,0c0,1.8.49,2.561,1.57,2.561s1.56-.762,1.56-2.561-.49-2.54-1.56-2.54S332.069,122.209,332.069,124Z" transform="translate(-330.304 -120.138)" fill="#4a50d9"/><path d="M343.879,124c0,2.5-1.189,3.882-3.325,3.882-2.159,0-3.336-1.385-3.336-3.882s1.177-3.859,3.336-3.859C342.69,120.138,343.879,121.512,343.879,124Zm-4.9,0c0,1.8.492,2.561,1.571,2.561s1.56-.762,1.56-2.561-.492-2.54-1.56-2.54S338.983,122.209,338.983,124Z" transform="translate(-327.423 -120.138)" fill="#4a50d9"/><path d="M345.3,127.807v-6.181h-1.438v-1.451h3.159v7.631Z" transform="translate(-324.654 -120.122)" fill="#4a50d9"/></g><g transform="translate(355.626 139.893)" opacity="0.4"><path d="M344.86,131.322c0,2.5-1.189,3.882-3.325,3.882-2.159,0-3.336-1.385-3.336-3.882s1.177-3.859,3.336-3.859C343.672,127.463,344.86,128.836,344.86,131.322Zm-4.894,0c0,1.8.49,2.561,1.57,2.561s1.558-.762,1.558-2.561-.49-2.54-1.558-2.54S339.966,129.534,339.966,131.322Z" transform="translate(-338.199 -127.463)" fill="#4a50d9"/><path d="M351.775,131.322c0,2.5-1.189,3.882-3.326,3.882-2.159,0-3.336-1.385-3.336-3.882s1.177-3.859,3.336-3.859C350.587,127.463,351.775,128.836,351.775,131.322Zm-4.9,0c0,1.8.49,2.561,1.57,2.561s1.56-.762,1.56-2.561-.492-2.54-1.56-2.54S346.88,129.534,346.88,131.322Z" transform="translate(-335.318 -127.463)" fill="#4a50d9"/><path d="M353.2,135.132v-6.181h-1.438V127.5h3.161v7.631Z" transform="translate(-332.549 -127.447)" fill="#4a50d9"/></g><g transform="translate(296.371 112.633)" opacity="0.4"><path d="M303.032,112.079c0,2.5-1.187,3.882-3.325,3.882-2.159,0-3.336-1.385-3.336-3.882s1.177-3.859,3.336-3.859C301.845,108.22,303.032,109.593,303.032,112.079Zm-4.894,0c0,1.8.49,2.561,1.57,2.561s1.558-.762,1.558-2.561-.49-2.54-1.558-2.54S298.138,110.291,298.138,112.079Z" transform="translate(-296.371 -108.22)" fill="#4a50d9"/><path d="M309.947,112.079c0,2.5-1.189,3.882-3.326,3.882-2.158,0-3.335-1.385-3.335-3.882s1.177-3.859,3.335-3.859C308.758,108.22,309.947,109.593,309.947,112.079Zm-4.9,0c0,1.8.492,2.561,1.57,2.561s1.56-.762,1.56-2.561-.49-2.54-1.56-2.54S305.051,110.291,305.051,112.079Z" transform="translate(-293.49 -108.22)" fill="#4a50d9"/><path d="M311.369,115.889v-6.181h-1.438v-1.451h3.161v7.631Z" transform="translate(-290.721 -108.204)" fill="#4a50d9"/></g><g transform="translate(307.557 123.01)" opacity="0.4"><path d="M310.928,119.4c0,2.5-1.189,3.882-3.326,3.882-2.158,0-3.335-1.385-3.335-3.882s1.177-3.859,3.335-3.859C309.74,115.545,310.928,116.918,310.928,119.4Zm-4.894,0c0,1.8.49,2.561,1.568,2.561s1.56-.762,1.56-2.561-.49-2.54-1.56-2.54S306.034,117.616,306.034,119.4Z" transform="translate(-304.267 -115.545)" fill="#4a50d9"/><path d="M317.842,119.4c0,2.5-1.189,3.882-3.325,3.882-2.159,0-3.336-1.385-3.336-3.882s1.177-3.859,3.336-3.859C316.654,115.545,317.842,116.918,317.842,119.4Zm-4.9,0c0,1.8.492,2.561,1.571,2.561s1.56-.762,1.56-2.561-.492-2.54-1.56-2.54S312.946,117.616,312.946,119.4Z" transform="translate(-301.386 -115.545)" fill="#4a50d9"/><path d="M319.265,123.214v-6.181h-1.438v-1.451h3.159v7.631Z" transform="translate(-298.617 -115.529)" fill="#4a50d9"/></g><g transform="translate(318.741 133.387)" opacity="0.4"><path d="M318.823,126.729c0,2.5-1.189,3.88-3.325,3.88-2.159,0-3.336-1.384-3.336-3.88s1.177-3.859,3.336-3.859C317.634,122.87,318.823,124.243,318.823,126.729Zm-4.894,0c0,1.8.49,2.561,1.57,2.561s1.558-.762,1.558-2.561-.49-2.54-1.558-2.54S313.929,124.941,313.929,126.729Z" transform="translate(-312.162 -122.87)" fill="#4a50d9"/><path d="M325.738,126.729c0,2.5-1.189,3.88-3.326,3.88-2.159,0-3.336-1.384-3.336-3.88s1.177-3.859,3.336-3.859C324.55,122.87,325.738,124.243,325.738,126.729Zm-4.9,0c0,1.8.49,2.561,1.57,2.561s1.56-.762,1.56-2.561-.492-2.54-1.56-2.54S320.843,124.941,320.843,126.729Z" transform="translate(-309.281 -122.87)" fill="#4a50d9"/><path d="M327.16,130.539v-6.181h-1.438v-1.451h3.161v7.631Z" transform="translate(-306.512 -122.854)" fill="#4a50d9"/></g><g transform="translate(329.926 143.764)" opacity="0.4"><path d="M326.718,134.054c0,2.5-1.187,3.88-3.325,3.88-2.159,0-3.336-1.384-3.336-3.88s1.177-3.859,3.336-3.859C325.531,130.2,326.718,131.568,326.718,134.054Zm-4.895,0c0,1.8.49,2.561,1.57,2.561s1.558-.764,1.558-2.561-.49-2.54-1.558-2.54S321.824,132.266,321.824,134.054Z" transform="translate(-320.057 -130.195)" fill="#4a50d9"/><path d="M333.633,134.054c0,2.5-1.189,3.88-3.326,3.88-2.158,0-3.335-1.384-3.335-3.88s1.177-3.859,3.335-3.859C332.444,130.2,333.633,131.568,333.633,134.054Zm-4.9,0c0,1.8.492,2.561,1.57,2.561s1.56-.764,1.56-2.561-.49-2.54-1.56-2.54S328.737,132.266,328.737,134.054Z" transform="translate(-317.176 -130.195)" fill="#4a50d9"/><path d="M335.055,137.864v-6.181h-1.438v-1.451h3.161v7.631Z" transform="translate(-314.407 -130.179)" fill="#4a50d9"/></g><g transform="translate(341.111 154.141)" opacity="0.4"><path d="M334.614,141.379c0,2.5-1.189,3.88-3.326,3.88-2.158,0-3.335-1.384-3.335-3.88s1.177-3.859,3.335-3.859C333.425,137.52,334.614,138.893,334.614,141.379Zm-4.895,0c0,1.8.49,2.561,1.568,2.561s1.56-.764,1.56-2.561-.49-2.541-1.56-2.541S329.72,139.591,329.72,141.379Z" transform="translate(-327.953 -137.52)" fill="#4a50d9"/><path d="M341.528,141.379c0,2.5-1.189,3.88-3.325,3.88-2.159,0-3.336-1.384-3.336-3.88s1.177-3.859,3.336-3.859C340.34,137.52,341.528,138.893,341.528,141.379Zm-4.9,0c0,1.8.492,2.561,1.571,2.561s1.56-.764,1.56-2.561-.492-2.541-1.56-2.541S336.632,139.591,336.632,141.379Z" transform="translate(-325.072 -137.52)" fill="#4a50d9"/><path d="M342.951,145.189v-6.182h-1.438v-1.449h3.159v7.631Z" transform="translate(-322.303 -137.504)" fill="#4a50d9"/></g></g><g transform="translate(195.313 -55.628)" opacity="0.28"><g transform="translate(341.111 97.628)" opacity="0.4"><path d="M334.614,101.486c0,2.5-1.189,3.882-3.326,3.882-2.158,0-3.335-1.384-3.335-3.882s1.177-3.858,3.335-3.858C333.425,97.628,334.614,99,334.614,101.486Zm-4.895,0c0,1.8.49,2.563,1.568,2.563s1.56-.764,1.56-2.563-.49-2.539-1.56-2.539S329.72,99.7,329.72,101.486Z" transform="translate(-327.953 -97.628)" fill="#4a50d9"/></g><g transform="translate(363.48 118.382)" opacity="0.4"><path d="M350.4,116.136c0,2.5-1.187,3.882-3.325,3.882-2.159,0-3.336-1.384-3.336-3.882s1.177-3.858,3.336-3.858C349.217,112.278,350.4,113.651,350.4,116.136Zm-4.895,0c0,1.8.49,2.563,1.57,2.563s1.558-.764,1.558-2.563-.49-2.54-1.558-2.54S345.51,114.348,345.51,116.136Z" transform="translate(-343.743 -112.278)" fill="#4a50d9"/><path d="M357.319,116.136c0,2.5-1.189,3.882-3.326,3.882-2.158,0-3.335-1.384-3.335-3.882s1.177-3.858,3.335-3.858C356.13,112.278,357.319,113.651,357.319,116.136Zm-4.9,0c0,1.8.492,2.563,1.57,2.563s1.56-.764,1.56-2.563-.49-2.54-1.56-2.54S352.423,114.348,352.423,116.136Z" transform="translate(-340.862 -112.278)" fill="#4a50d9"/><path d="M358.741,119.947v-6.182H357.3v-1.449h3.16v7.631Z" transform="translate(-338.093 -112.262)" fill="#4a50d9"/></g><g transform="translate(310.887 98.386)" opacity="0.4"><path d="M313.279,102.022c0,2.5-1.189,3.882-3.326,3.882-2.158,0-3.335-1.385-3.335-3.882s1.177-3.859,3.335-3.859C312.09,98.163,313.279,99.537,313.279,102.022Zm-4.9,0c0,1.8.492,2.561,1.57,2.561s1.56-.762,1.56-2.561-.49-2.54-1.56-2.54S308.383,100.234,308.383,102.022Z" transform="translate(-306.618 -98.163)" fill="#4a50d9"/><path d="M320.193,102.022c0,2.5-1.189,3.882-3.325,3.882-2.159,0-3.336-1.385-3.336-3.882s1.177-3.859,3.336-3.859C319,98.163,320.193,99.537,320.193,102.022Zm-4.9,0c0,1.8.492,2.561,1.571,2.561s1.56-.762,1.56-2.561-.492-2.54-1.56-2.54S315.3,100.234,315.3,102.022Z" transform="translate(-303.737 -98.163)" fill="#4a50d9"/><path d="M321.616,105.832V99.652h-1.438V98.2h3.159v7.631Z" transform="translate(-300.968 -98.147)" fill="#4a50d9"/></g><g transform="translate(322.072 108.763)" opacity="0.4"><path d="M321.174,109.347c0,2.5-1.189,3.882-3.325,3.882-2.159,0-3.336-1.385-3.336-3.882s1.177-3.859,3.336-3.859C319.986,105.488,321.174,106.862,321.174,109.347Zm-4.894,0c0,1.8.49,2.561,1.57,2.561s1.558-.762,1.558-2.561-.49-2.54-1.558-2.54S316.28,107.559,316.28,109.347Z" transform="translate(-314.513 -105.488)" fill="#4a50d9"/><path d="M328.089,109.347c0,2.5-1.189,3.882-3.326,3.882-2.159,0-3.336-1.385-3.336-3.882s1.177-3.859,3.336-3.859C326.9,105.488,328.089,106.862,328.089,109.347Zm-4.9,0c0,1.8.49,2.561,1.57,2.561s1.56-.762,1.56-2.561-.492-2.54-1.56-2.54S323.194,107.559,323.194,109.347Z" transform="translate(-311.632 -105.488)" fill="#4a50d9"/><path d="M329.511,113.157v-6.181h-1.438v-1.451h3.161v7.631Z" transform="translate(-308.863 -105.472)" fill="#4a50d9"/></g><g transform="translate(333.256 119.14)" opacity="0.4"><path d="M329.069,116.672c0,2.5-1.187,3.882-3.325,3.882-2.159,0-3.336-1.385-3.336-3.882s1.177-3.859,3.336-3.859C327.882,112.813,329.069,114.187,329.069,116.672Zm-4.894,0c0,1.8.49,2.561,1.57,2.561s1.558-.762,1.558-2.561-.49-2.54-1.558-2.54S324.175,114.884,324.175,116.672Z" transform="translate(-322.408 -112.813)" fill="#4a50d9"/><path d="M335.984,116.672c0,2.5-1.189,3.882-3.326,3.882-2.158,0-3.335-1.385-3.335-3.882s1.177-3.859,3.335-3.859C334.8,112.813,335.984,114.187,335.984,116.672Zm-4.9,0c0,1.8.492,2.561,1.57,2.561s1.56-.762,1.56-2.561-.49-2.54-1.56-2.54S331.088,114.884,331.088,116.672Z" transform="translate(-319.527 -112.813)" fill="#4a50d9"/><path d="M337.406,120.482V114.3h-1.438v-1.451h3.161v7.631Z" transform="translate(-316.758 -112.797)" fill="#4a50d9"/></g><g transform="translate(344.442 129.517)" opacity="0.4"><path d="M336.964,124c0,2.5-1.187,3.882-3.325,3.882-2.158,0-3.335-1.385-3.335-3.882s1.177-3.859,3.335-3.859C335.776,120.138,336.964,121.512,336.964,124Zm-4.894,0c0,1.8.49,2.561,1.57,2.561s1.56-.762,1.56-2.561-.49-2.54-1.56-2.54S332.069,122.209,332.069,124Z" transform="translate(-330.304 -120.138)" fill="#4a50d9"/><path d="M343.879,124c0,2.5-1.189,3.882-3.325,3.882-2.159,0-3.336-1.385-3.336-3.882s1.177-3.859,3.336-3.859C342.69,120.138,343.879,121.512,343.879,124Zm-4.9,0c0,1.8.492,2.561,1.571,2.561s1.56-.762,1.56-2.561-.492-2.54-1.56-2.54S338.983,122.209,338.983,124Z" transform="translate(-327.423 -120.138)" fill="#4a50d9"/><path d="M345.3,127.807v-6.181h-1.438v-1.451h3.159v7.631Z" transform="translate(-324.654 -120.122)" fill="#4a50d9"/></g><g transform="translate(355.626 139.893)" opacity="0.4"><path d="M344.86,131.322c0,2.5-1.189,3.882-3.325,3.882-2.159,0-3.336-1.385-3.336-3.882s1.177-3.859,3.336-3.859C343.672,127.463,344.86,128.836,344.86,131.322Zm-4.894,0c0,1.8.49,2.561,1.57,2.561s1.558-.762,1.558-2.561-.49-2.54-1.558-2.54S339.966,129.534,339.966,131.322Z" transform="translate(-338.199 -127.463)" fill="#4a50d9"/><path d="M351.775,131.322c0,2.5-1.189,3.882-3.326,3.882-2.159,0-3.336-1.385-3.336-3.882s1.177-3.859,3.336-3.859C350.587,127.463,351.775,128.836,351.775,131.322Zm-4.9,0c0,1.8.49,2.561,1.57,2.561s1.56-.762,1.56-2.561-.492-2.54-1.56-2.54S346.88,129.534,346.88,131.322Z" transform="translate(-335.318 -127.463)" fill="#4a50d9"/><path d="M353.2,135.132v-6.181h-1.438V127.5h3.161v7.631Z" transform="translate(-332.549 -127.447)" fill="#4a50d9"/></g><g transform="translate(296.371 112.633)" opacity="0.4"><path d="M303.032,112.079c0,2.5-1.187,3.882-3.325,3.882-2.159,0-3.336-1.385-3.336-3.882s1.177-3.859,3.336-3.859C301.845,108.22,303.032,109.593,303.032,112.079Zm-4.894,0c0,1.8.49,2.561,1.57,2.561s1.558-.762,1.558-2.561-.49-2.54-1.558-2.54S298.138,110.291,298.138,112.079Z" transform="translate(-296.371 -108.22)" fill="#4a50d9"/><path d="M309.947,112.079c0,2.5-1.189,3.882-3.326,3.882-2.158,0-3.335-1.385-3.335-3.882s1.177-3.859,3.335-3.859C308.758,108.22,309.947,109.593,309.947,112.079Zm-4.9,0c0,1.8.492,2.561,1.57,2.561s1.56-.762,1.56-2.561-.49-2.54-1.56-2.54S305.051,110.291,305.051,112.079Z" transform="translate(-293.49 -108.22)" fill="#4a50d9"/><path d="M311.369,115.889v-6.181h-1.438v-1.451h3.161v7.631Z" transform="translate(-290.721 -108.204)" fill="#4a50d9"/></g><g transform="translate(307.557 123.01)" opacity="0.4"><path d="M310.928,119.4c0,2.5-1.189,3.882-3.326,3.882-2.158,0-3.335-1.385-3.335-3.882s1.177-3.859,3.335-3.859C309.74,115.545,310.928,116.918,310.928,119.4Zm-4.894,0c0,1.8.49,2.561,1.568,2.561s1.56-.762,1.56-2.561-.49-2.54-1.56-2.54S306.034,117.616,306.034,119.4Z" transform="translate(-304.267 -115.545)" fill="#4a50d9"/><path d="M317.842,119.4c0,2.5-1.189,3.882-3.325,3.882-2.159,0-3.336-1.385-3.336-3.882s1.177-3.859,3.336-3.859C316.654,115.545,317.842,116.918,317.842,119.4Zm-4.9,0c0,1.8.492,2.561,1.571,2.561s1.56-.762,1.56-2.561-.492-2.54-1.56-2.54S312.946,117.616,312.946,119.4Z" transform="translate(-301.386 -115.545)" fill="#4a50d9"/><path d="M319.265,123.214v-6.181h-1.438v-1.451h3.159v7.631Z" transform="translate(-298.617 -115.529)" fill="#4a50d9"/></g><g transform="translate(318.741 133.387)" opacity="0.4"><path d="M318.823,126.729c0,2.5-1.189,3.88-3.325,3.88-2.159,0-3.336-1.384-3.336-3.88s1.177-3.859,3.336-3.859C317.634,122.87,318.823,124.243,318.823,126.729Zm-4.894,0c0,1.8.49,2.561,1.57,2.561s1.558-.762,1.558-2.561-.49-2.54-1.558-2.54S313.929,124.941,313.929,126.729Z" transform="translate(-312.162 -122.87)" fill="#4a50d9"/><path d="M325.738,126.729c0,2.5-1.189,3.88-3.326,3.88-2.159,0-3.336-1.384-3.336-3.88s1.177-3.859,3.336-3.859C324.55,122.87,325.738,124.243,325.738,126.729Zm-4.9,0c0,1.8.49,2.561,1.57,2.561s1.56-.762,1.56-2.561-.492-2.54-1.56-2.54S320.843,124.941,320.843,126.729Z" transform="translate(-309.281 -122.87)" fill="#4a50d9"/><path d="M327.16,130.539v-6.181h-1.438v-1.451h3.161v7.631Z" transform="translate(-306.512 -122.854)" fill="#4a50d9"/></g><g transform="translate(329.926 143.764)" opacity="0.4"><path d="M326.718,134.054c0,2.5-1.187,3.88-3.325,3.88-2.159,0-3.336-1.384-3.336-3.88s1.177-3.859,3.336-3.859C325.531,130.2,326.718,131.568,326.718,134.054Zm-4.895,0c0,1.8.49,2.561,1.57,2.561s1.558-.764,1.558-2.561-.49-2.54-1.558-2.54S321.824,132.266,321.824,134.054Z" transform="translate(-320.057 -130.195)" fill="#4a50d9"/><path d="M333.633,134.054c0,2.5-1.189,3.88-3.326,3.88-2.158,0-3.335-1.384-3.335-3.88s1.177-3.859,3.335-3.859C332.444,130.2,333.633,131.568,333.633,134.054Zm-4.9,0c0,1.8.492,2.561,1.57,2.561s1.56-.764,1.56-2.561-.49-2.54-1.56-2.54S328.737,132.266,328.737,134.054Z" transform="translate(-317.176 -130.195)" fill="#4a50d9"/><path d="M335.055,137.864v-6.181h-1.438v-1.451h3.161v7.631Z" transform="translate(-314.407 -130.179)" fill="#4a50d9"/></g><g transform="translate(341.111 154.141)" opacity="0.4"><path d="M334.614,141.379c0,2.5-1.189,3.88-3.326,3.88-2.158,0-3.335-1.384-3.335-3.88s1.177-3.859,3.335-3.859C333.425,137.52,334.614,138.893,334.614,141.379Zm-4.895,0c0,1.8.49,2.561,1.568,2.561s1.56-.764,1.56-2.561-.49-2.541-1.56-2.541S329.72,139.591,329.72,141.379Z" transform="translate(-327.953 -137.52)" fill="#4a50d9"/><path d="M341.528,141.379c0,2.5-1.189,3.88-3.325,3.88-2.159,0-3.336-1.384-3.336-3.88s1.177-3.859,3.336-3.859C340.34,137.52,341.528,138.893,341.528,141.379Zm-4.9,0c0,1.8.492,2.561,1.571,2.561s1.56-.764,1.56-2.561-.492-2.541-1.56-2.541S336.632,139.591,336.632,141.379Z" transform="translate(-325.072 -137.52)" fill="#4a50d9"/><path d="M342.951,145.189v-6.182h-1.438v-1.449h3.159v7.631Z" transform="translate(-322.303 -137.504)" fill="#4a50d9"/></g></g><g transform="translate(599.313 692.372)" opacity="0.28"><g transform="translate(341.111 97.628)" opacity="0.4"><path d="M334.614,101.486c0,2.5-1.189,3.882-3.326,3.882-2.158,0-3.335-1.384-3.335-3.882s1.177-3.858,3.335-3.858C333.425,97.628,334.614,99,334.614,101.486Zm-4.895,0c0,1.8.49,2.563,1.568,2.563s1.56-.764,1.56-2.563-.49-2.539-1.56-2.539S329.72,99.7,329.72,101.486Z" transform="translate(-327.953 -97.628)" fill="#4a50d9"/></g><g transform="translate(363.48 118.382)" opacity="0.4"><path d="M350.4,116.136c0,2.5-1.187,3.882-3.325,3.882-2.159,0-3.336-1.384-3.336-3.882s1.177-3.858,3.336-3.858C349.217,112.278,350.4,113.651,350.4,116.136Zm-4.895,0c0,1.8.49,2.563,1.57,2.563s1.558-.764,1.558-2.563-.49-2.54-1.558-2.54S345.51,114.348,345.51,116.136Z" transform="translate(-343.743 -112.278)" fill="#4a50d9"/><path d="M357.319,116.136c0,2.5-1.189,3.882-3.326,3.882-2.158,0-3.335-1.384-3.335-3.882s1.177-3.858,3.335-3.858C356.13,112.278,357.319,113.651,357.319,116.136Zm-4.9,0c0,1.8.492,2.563,1.57,2.563s1.56-.764,1.56-2.563-.49-2.54-1.56-2.54S352.423,114.348,352.423,116.136Z" transform="translate(-340.862 -112.278)" fill="#4a50d9"/><path d="M358.741,119.947v-6.182H357.3v-1.449h3.16v7.631Z" transform="translate(-338.093 -112.262)" fill="#4a50d9"/></g><g transform="translate(310.887 98.386)" opacity="0.4"><path d="M313.279,102.022c0,2.5-1.189,3.882-3.326,3.882-2.158,0-3.335-1.385-3.335-3.882s1.177-3.859,3.335-3.859C312.09,98.163,313.279,99.537,313.279,102.022Zm-4.9,0c0,1.8.492,2.561,1.57,2.561s1.56-.762,1.56-2.561-.49-2.54-1.56-2.54S308.383,100.234,308.383,102.022Z" transform="translate(-306.618 -98.163)" fill="#4a50d9"/><path d="M320.193,102.022c0,2.5-1.189,3.882-3.325,3.882-2.159,0-3.336-1.385-3.336-3.882s1.177-3.859,3.336-3.859C319,98.163,320.193,99.537,320.193,102.022Zm-4.9,0c0,1.8.492,2.561,1.571,2.561s1.56-.762,1.56-2.561-.492-2.54-1.56-2.54S315.3,100.234,315.3,102.022Z" transform="translate(-303.737 -98.163)" fill="#4a50d9"/><path d="M321.616,105.832V99.652h-1.438V98.2h3.159v7.631Z" transform="translate(-300.968 -98.147)" fill="#4a50d9"/></g><g transform="translate(322.072 108.763)" opacity="0.4"><path d="M321.174,109.347c0,2.5-1.189,3.882-3.325,3.882-2.159,0-3.336-1.385-3.336-3.882s1.177-3.859,3.336-3.859C319.986,105.488,321.174,106.862,321.174,109.347Zm-4.894,0c0,1.8.49,2.561,1.57,2.561s1.558-.762,1.558-2.561-.49-2.54-1.558-2.54S316.28,107.559,316.28,109.347Z" transform="translate(-314.513 -105.488)" fill="#4a50d9"/><path d="M328.089,109.347c0,2.5-1.189,3.882-3.326,3.882-2.159,0-3.336-1.385-3.336-3.882s1.177-3.859,3.336-3.859C326.9,105.488,328.089,106.862,328.089,109.347Zm-4.9,0c0,1.8.49,2.561,1.57,2.561s1.56-.762,1.56-2.561-.492-2.54-1.56-2.54S323.194,107.559,323.194,109.347Z" transform="translate(-311.632 -105.488)" fill="#4a50d9"/><path d="M329.511,113.157v-6.181h-1.438v-1.451h3.161v7.631Z" transform="translate(-308.863 -105.472)" fill="#4a50d9"/></g><g transform="translate(333.256 119.14)" opacity="0.4"><path d="M329.069,116.672c0,2.5-1.187,3.882-3.325,3.882-2.159,0-3.336-1.385-3.336-3.882s1.177-3.859,3.336-3.859C327.882,112.813,329.069,114.187,329.069,116.672Zm-4.894,0c0,1.8.49,2.561,1.57,2.561s1.558-.762,1.558-2.561-.49-2.54-1.558-2.54S324.175,114.884,324.175,116.672Z" transform="translate(-322.408 -112.813)" fill="#4a50d9"/><path d="M335.984,116.672c0,2.5-1.189,3.882-3.326,3.882-2.158,0-3.335-1.385-3.335-3.882s1.177-3.859,3.335-3.859C334.8,112.813,335.984,114.187,335.984,116.672Zm-4.9,0c0,1.8.492,2.561,1.57,2.561s1.56-.762,1.56-2.561-.49-2.54-1.56-2.54S331.088,114.884,331.088,116.672Z" transform="translate(-319.527 -112.813)" fill="#4a50d9"/><path d="M337.406,120.482V114.3h-1.438v-1.451h3.161v7.631Z" transform="translate(-316.758 -112.797)" fill="#4a50d9"/></g><g transform="translate(344.442 129.517)" opacity="0.4"><path d="M336.964,124c0,2.5-1.187,3.882-3.325,3.882-2.158,0-3.335-1.385-3.335-3.882s1.177-3.859,3.335-3.859C335.776,120.138,336.964,121.512,336.964,124Zm-4.894,0c0,1.8.49,2.561,1.57,2.561s1.56-.762,1.56-2.561-.49-2.54-1.56-2.54S332.069,122.209,332.069,124Z" transform="translate(-330.304 -120.138)" fill="#4a50d9"/><path d="M343.879,124c0,2.5-1.189,3.882-3.325,3.882-2.159,0-3.336-1.385-3.336-3.882s1.177-3.859,3.336-3.859C342.69,120.138,343.879,121.512,343.879,124Zm-4.9,0c0,1.8.492,2.561,1.571,2.561s1.56-.762,1.56-2.561-.492-2.54-1.56-2.54S338.983,122.209,338.983,124Z" transform="translate(-327.423 -120.138)" fill="#4a50d9"/><path d="M345.3,127.807v-6.181h-1.438v-1.451h3.159v7.631Z" transform="translate(-324.654 -120.122)" fill="#4a50d9"/></g><g transform="translate(355.626 139.893)" opacity="0.4"><path d="M344.86,131.322c0,2.5-1.189,3.882-3.325,3.882-2.159,0-3.336-1.385-3.336-3.882s1.177-3.859,3.336-3.859C343.672,127.463,344.86,128.836,344.86,131.322Zm-4.894,0c0,1.8.49,2.561,1.57,2.561s1.558-.762,1.558-2.561-.49-2.54-1.558-2.54S339.966,129.534,339.966,131.322Z" transform="translate(-338.199 -127.463)" fill="#4a50d9"/><path d="M351.775,131.322c0,2.5-1.189,3.882-3.326,3.882-2.159,0-3.336-1.385-3.336-3.882s1.177-3.859,3.336-3.859C350.587,127.463,351.775,128.836,351.775,131.322Zm-4.9,0c0,1.8.49,2.561,1.57,2.561s1.56-.762,1.56-2.561-.492-2.54-1.56-2.54S346.88,129.534,346.88,131.322Z" transform="translate(-335.318 -127.463)" fill="#4a50d9"/><path d="M353.2,135.132v-6.181h-1.438V127.5h3.161v7.631Z" transform="translate(-332.549 -127.447)" fill="#4a50d9"/></g><g transform="translate(296.371 112.633)" opacity="0.4"><path d="M303.032,112.079c0,2.5-1.187,3.882-3.325,3.882-2.159,0-3.336-1.385-3.336-3.882s1.177-3.859,3.336-3.859C301.845,108.22,303.032,109.593,303.032,112.079Zm-4.894,0c0,1.8.49,2.561,1.57,2.561s1.558-.762,1.558-2.561-.49-2.54-1.558-2.54S298.138,110.291,298.138,112.079Z" transform="translate(-296.371 -108.22)" fill="#4a50d9"/><path d="M309.947,112.079c0,2.5-1.189,3.882-3.326,3.882-2.158,0-3.335-1.385-3.335-3.882s1.177-3.859,3.335-3.859C308.758,108.22,309.947,109.593,309.947,112.079Zm-4.9,0c0,1.8.492,2.561,1.57,2.561s1.56-.762,1.56-2.561-.49-2.54-1.56-2.54S305.051,110.291,305.051,112.079Z" transform="translate(-293.49 -108.22)" fill="#4a50d9"/><path d="M311.369,115.889v-6.181h-1.438v-1.451h3.161v7.631Z" transform="translate(-290.721 -108.204)" fill="#4a50d9"/></g><g transform="translate(307.557 123.01)" opacity="0.4"><path d="M310.928,119.4c0,2.5-1.189,3.882-3.326,3.882-2.158,0-3.335-1.385-3.335-3.882s1.177-3.859,3.335-3.859C309.74,115.545,310.928,116.918,310.928,119.4Zm-4.894,0c0,1.8.49,2.561,1.568,2.561s1.56-.762,1.56-2.561-.49-2.54-1.56-2.54S306.034,117.616,306.034,119.4Z" transform="translate(-304.267 -115.545)" fill="#4a50d9"/><path d="M317.842,119.4c0,2.5-1.189,3.882-3.325,3.882-2.159,0-3.336-1.385-3.336-3.882s1.177-3.859,3.336-3.859C316.654,115.545,317.842,116.918,317.842,119.4Zm-4.9,0c0,1.8.492,2.561,1.571,2.561s1.56-.762,1.56-2.561-.492-2.54-1.56-2.54S312.946,117.616,312.946,119.4Z" transform="translate(-301.386 -115.545)" fill="#4a50d9"/><path d="M319.265,123.214v-6.181h-1.438v-1.451h3.159v7.631Z" transform="translate(-298.617 -115.529)" fill="#4a50d9"/></g><g transform="translate(318.741 133.387)" opacity="0.4"><path d="M318.823,126.729c0,2.5-1.189,3.88-3.325,3.88-2.159,0-3.336-1.384-3.336-3.88s1.177-3.859,3.336-3.859C317.634,122.87,318.823,124.243,318.823,126.729Zm-4.894,0c0,1.8.49,2.561,1.57,2.561s1.558-.762,1.558-2.561-.49-2.54-1.558-2.54S313.929,124.941,313.929,126.729Z" transform="translate(-312.162 -122.87)" fill="#4a50d9"/><path d="M325.738,126.729c0,2.5-1.189,3.88-3.326,3.88-2.159,0-3.336-1.384-3.336-3.88s1.177-3.859,3.336-3.859C324.55,122.87,325.738,124.243,325.738,126.729Zm-4.9,0c0,1.8.49,2.561,1.57,2.561s1.56-.762,1.56-2.561-.492-2.54-1.56-2.54S320.843,124.941,320.843,126.729Z" transform="translate(-309.281 -122.87)" fill="#4a50d9"/><path d="M327.16,130.539v-6.181h-1.438v-1.451h3.161v7.631Z" transform="translate(-306.512 -122.854)" fill="#4a50d9"/></g><g transform="translate(329.926 143.764)" opacity="0.4"><path d="M326.718,134.054c0,2.5-1.187,3.88-3.325,3.88-2.159,0-3.336-1.384-3.336-3.88s1.177-3.859,3.336-3.859C325.531,130.2,326.718,131.568,326.718,134.054Zm-4.895,0c0,1.8.49,2.561,1.57,2.561s1.558-.764,1.558-2.561-.49-2.54-1.558-2.54S321.824,132.266,321.824,134.054Z" transform="translate(-320.057 -130.195)" fill="#4a50d9"/><path d="M333.633,134.054c0,2.5-1.189,3.88-3.326,3.88-2.158,0-3.335-1.384-3.335-3.88s1.177-3.859,3.335-3.859C332.444,130.2,333.633,131.568,333.633,134.054Zm-4.9,0c0,1.8.492,2.561,1.57,2.561s1.56-.764,1.56-2.561-.49-2.54-1.56-2.54S328.737,132.266,328.737,134.054Z" transform="translate(-317.176 -130.195)" fill="#4a50d9"/><path d="M335.055,137.864v-6.181h-1.438v-1.451h3.161v7.631Z" transform="translate(-314.407 -130.179)" fill="#4a50d9"/></g><g transform="translate(341.111 154.141)" opacity="0.4"><path d="M334.614,141.379c0,2.5-1.189,3.88-3.326,3.88-2.158,0-3.335-1.384-3.335-3.88s1.177-3.859,3.335-3.859C333.425,137.52,334.614,138.893,334.614,141.379Zm-4.895,0c0,1.8.49,2.561,1.568,2.561s1.56-.764,1.56-2.561-.49-2.541-1.56-2.541S329.72,139.591,329.72,141.379Z" transform="translate(-327.953 -137.52)" fill="#4a50d9"/><path d="M341.528,141.379c0,2.5-1.189,3.88-3.325,3.88-2.159,0-3.336-1.384-3.336-3.88s1.177-3.859,3.336-3.859C340.34,137.52,341.528,138.893,341.528,141.379Zm-4.9,0c0,1.8.492,2.561,1.571,2.561s1.56-.764,1.56-2.561-.492-2.541-1.56-2.541S336.632,139.591,336.632,141.379Z" transform="translate(-325.072 -137.52)" fill="#4a50d9"/><path d="M342.951,145.189v-6.182h-1.438v-1.449h3.159v7.631Z" transform="translate(-322.303 -137.504)" fill="#4a50d9"/></g></g><g transform="translate(861.881 -60.807)" opacity="0.28"><g transform="translate(67.12 256.854)" opacity="0.4"><path d="M73.755,249.058c0,2.488-1.184,3.866-3.312,3.866-2.151,0-3.323-1.379-3.323-3.866s1.173-3.842,3.323-3.842C72.571,245.216,73.755,246.583,73.755,249.058Zm-4.875,0c0,1.792.488,2.553,1.563,2.553S72,250.851,72,249.058s-.488-2.53-1.552-2.53S68.88,247.279,68.88,249.058Z" transform="translate(-67.12 -245.216)" fill="#4a50d9"/><path d="M80.67,249.058c0,2.488-1.185,3.866-3.313,3.866-2.151,0-3.323-1.379-3.323-3.866s1.173-3.842,3.323-3.842C79.485,245.216,80.67,246.583,80.67,249.058Zm-4.878,0c0,1.792.49,2.553,1.565,2.553s1.554-.761,1.554-2.553-.49-2.53-1.554-2.53S75.792,247.279,75.792,249.058Z" transform="translate(-64.278 -245.216)" fill="#4a50d9"/><path d="M82.112,252.856V246.7H80.68v-1.444h3.147v7.6Z" transform="translate(-61.546 -245.2)" fill="#4a50d9"/></g><g transform="translate(78.261 246.867)" opacity="0.4"><path d="M81.65,241.981c0,2.488-1.184,3.866-3.312,3.866-2.151,0-3.323-1.379-3.323-3.866s1.173-3.842,3.323-3.842C80.466,238.139,81.65,239.506,81.65,241.981Zm-4.875,0c0,1.792.488,2.553,1.563,2.553s1.552-.761,1.552-2.553-.488-2.53-1.552-2.53S76.775,240.2,76.775,241.981Z" transform="translate(-75.015 -238.139)" fill="#4a50d9"/><path d="M88.565,241.981c0,2.488-1.184,3.866-3.313,3.866-2.149,0-3.323-1.379-3.323-3.866s1.174-3.842,3.323-3.842C87.381,238.139,88.565,239.506,88.565,241.981Zm-4.877,0c0,1.792.488,2.553,1.563,2.553s1.554-.761,1.554-2.553-.49-2.53-1.554-2.53S83.689,240.2,83.689,241.981Z" transform="translate(-72.173 -238.139)" fill="#4a50d9"/><path d="M90.007,245.779v-6.158H88.575v-1.445h3.148v7.6Z" transform="translate(-69.441 -238.124)" fill="#4a50d9"/></g><g transform="translate(89.401 236.88)" opacity="0.4"><path d="M89.545,234.9c0,2.486-1.182,3.866-3.312,3.866-2.151,0-3.323-1.38-3.323-3.866s1.173-3.844,3.323-3.844C88.362,231.061,89.545,232.43,89.545,234.9Zm-4.875,0c0,1.792.488,2.553,1.563,2.553s1.552-.761,1.552-2.553-.488-2.53-1.552-2.53S84.67,233.124,84.67,234.9Z" transform="translate(-82.91 -231.061)" fill="#4a50d9"/><path d="M96.46,234.9c0,2.486-1.184,3.866-3.313,3.866-2.149,0-3.322-1.38-3.322-3.866s1.173-3.844,3.322-3.844C95.276,231.061,96.46,232.43,96.46,234.9Zm-4.877,0c0,1.792.49,2.553,1.563,2.553S94.7,236.7,94.7,234.9s-.488-2.53-1.554-2.53S91.583,233.124,91.583,234.9Z" transform="translate(-80.067 -231.061)" fill="#4a50d9"/><path d="M97.9,238.7v-6.157H96.47V231.1h3.148v7.6Z" transform="translate(-77.336 -231.045)" fill="#4a50d9"/></g><g transform="translate(100.543 226.893)" opacity="0.4"><path d="M97.441,227.828c0,2.486-1.184,3.866-3.313,3.866-2.149,0-3.322-1.38-3.322-3.866s1.173-3.844,3.322-3.844C96.257,223.984,97.441,225.353,97.441,227.828Zm-4.875,0c0,1.792.488,2.551,1.562,2.551s1.554-.759,1.554-2.551-.488-2.53-1.554-2.53S92.566,226.047,92.566,227.828Z" transform="translate(-90.806 -223.984)" fill="#4a50d9"/><path d="M104.355,227.828c0,2.486-1.184,3.866-3.312,3.866-2.15,0-3.323-1.38-3.323-3.866s1.173-3.844,3.323-3.844C103.171,223.984,104.355,225.353,104.355,227.828Zm-4.877,0c0,1.792.49,2.551,1.565,2.551s1.554-.759,1.554-2.551-.49-2.53-1.554-2.53S99.478,226.047,99.478,227.828Z" transform="translate(-87.964 -223.984)" fill="#4a50d9"/><path d="M105.8,231.624v-6.157h-1.432v-1.445h3.147v7.6Z" transform="translate(-85.232 -223.968)" fill="#4a50d9"/></g><g transform="translate(111.684 216.907)" opacity="0.4"><path d="M105.336,220.751c0,2.486-1.184,3.866-3.312,3.866-2.151,0-3.323-1.38-3.323-3.866s1.173-3.844,3.323-3.844C104.152,216.907,105.336,218.274,105.336,220.751Zm-4.875,0c0,1.792.488,2.551,1.563,2.551s1.552-.759,1.552-2.551-.488-2.53-1.552-2.53S100.461,218.97,100.461,220.751Z" transform="translate(-98.701 -216.907)" fill="#4a50d9"/><path d="M112.251,220.751c0,2.486-1.184,3.866-3.313,3.866-2.151,0-3.323-1.38-3.323-3.866s1.173-3.844,3.323-3.844C111.067,216.907,112.251,218.274,112.251,220.751Zm-4.877,0c0,1.792.488,2.551,1.563,2.551s1.554-.759,1.554-2.551-.49-2.53-1.554-2.53S107.375,218.97,107.375,220.751Z" transform="translate(-95.859 -216.907)" fill="#4a50d9"/><path d="M113.693,224.547V218.39h-1.432v-1.445h3.148v7.6Z" transform="translate(-93.127 -216.891)" fill="#4a50d9"/></g><g transform="translate(81.578 270.64)" opacity="0.4"><path d="M84,258.83c0,2.486-1.184,3.866-3.312,3.866-2.151,0-3.323-1.38-3.323-3.866s1.173-3.844,3.323-3.844C82.817,254.986,84,256.353,84,258.83Zm-4.875,0c0,1.792.488,2.551,1.563,2.551s1.552-.759,1.552-2.551-.488-2.53-1.552-2.53S79.126,257.049,79.126,258.83Z" transform="translate(-77.366 -254.986)" fill="#4a50d9"/><path d="M90.916,258.83c0,2.486-1.184,3.866-3.313,3.866-2.151,0-3.323-1.38-3.323-3.866s1.173-3.844,3.323-3.844C89.732,254.986,90.916,256.353,90.916,258.83Zm-4.877,0c0,1.792.488,2.551,1.563,2.551s1.554-.759,1.554-2.551-.49-2.53-1.554-2.53S86.04,257.049,86.04,258.83Z" transform="translate(-74.524 -254.986)" fill="#4a50d9"/><path d="M92.358,262.626v-6.157H90.926v-1.445h3.148v7.6Z" transform="translate(-71.792 -254.97)" fill="#4a50d9"/></g><g transform="translate(92.719 260.654)" opacity="0.4"><path d="M91.9,251.753c0,2.486-1.182,3.865-3.312,3.865-2.151,0-3.323-1.379-3.323-3.865s1.173-3.844,3.323-3.844C90.713,247.909,91.9,249.276,91.9,251.753Zm-4.875,0c0,1.792.488,2.551,1.563,2.551s1.552-.759,1.552-2.551-.488-2.53-1.552-2.53S87.021,249.972,87.021,251.753Z" transform="translate(-85.261 -247.909)" fill="#4a50d9"/><path d="M98.811,251.753c0,2.486-1.184,3.865-3.313,3.865-2.149,0-3.322-1.379-3.322-3.865s1.173-3.844,3.322-3.844C97.627,247.909,98.811,249.276,98.811,251.753Zm-4.877,0c0,1.792.49,2.551,1.563,2.551s1.554-.759,1.554-2.551-.488-2.53-1.554-2.53S93.934,249.972,93.934,251.753Z" transform="translate(-82.418 -247.909)" fill="#4a50d9"/><path d="M100.253,255.549v-6.157H98.821v-1.445h3.148v7.6Z" transform="translate(-79.687 -247.893)" fill="#4a50d9"/></g><g transform="translate(103.861 250.667)" opacity="0.4"><path d="M99.792,244.674c0,2.488-1.184,3.866-3.313,3.866-2.149,0-3.322-1.379-3.322-3.866s1.173-3.842,3.322-3.842C98.608,240.832,99.792,242.2,99.792,244.674Zm-4.875,0c0,1.792.488,2.553,1.562,2.553s1.554-.761,1.554-2.553-.488-2.53-1.554-2.53S94.917,242.9,94.917,244.674Z" transform="translate(-93.157 -240.832)" fill="#4a50d9"/><path d="M106.706,244.674c0,2.488-1.184,3.866-3.312,3.866-2.151,0-3.323-1.379-3.323-3.866s1.173-3.842,3.323-3.842C105.522,240.832,106.706,242.2,106.706,244.674Zm-4.877,0c0,1.792.49,2.553,1.565,2.553s1.554-.761,1.554-2.553-.49-2.53-1.554-2.53S101.829,242.9,101.829,244.674Z" transform="translate(-90.315 -240.832)" fill="#4a50d9"/><path d="M108.149,248.472v-6.158h-1.432V240.87h3.147v7.6Z" transform="translate(-87.583 -240.816)" fill="#4a50d9"/></g><g transform="translate(115.001 240.681)" opacity="0.4"><path d="M107.687,237.6c0,2.488-1.184,3.866-3.312,3.866-2.15,0-3.323-1.379-3.323-3.866s1.173-3.842,3.323-3.842C106.5,233.755,107.687,235.122,107.687,237.6Zm-4.875,0c0,1.792.488,2.553,1.563,2.553s1.552-.761,1.552-2.553-.488-2.53-1.552-2.53S102.812,235.817,102.812,237.6Z" transform="translate(-101.052 -233.755)" fill="#4a50d9"/><path d="M114.6,237.6c0,2.488-1.184,3.866-3.313,3.866-2.151,0-3.323-1.379-3.323-3.866s1.173-3.842,3.323-3.842C113.418,233.755,114.6,235.122,114.6,237.6Zm-4.877,0c0,1.792.488,2.553,1.564,2.553s1.554-.761,1.554-2.553-.49-2.53-1.554-2.53S109.726,235.817,109.726,237.6Z" transform="translate(-98.21 -233.755)" fill="#4a50d9"/><path d="M116.044,241.395v-6.158h-1.432v-1.444h3.148v7.6Z" transform="translate(-95.478 -233.739)" fill="#4a50d9"/></g><g transform="translate(126.142 230.693)" opacity="0.4"><path d="M115.582,230.521c0,2.486-1.183,3.866-3.312,3.866-2.151,0-3.323-1.38-3.323-3.866s1.173-3.844,3.323-3.844C114.4,226.677,115.582,228.046,115.582,230.521Zm-4.875,0c0,1.792.488,2.553,1.563,2.553s1.552-.761,1.552-2.553-.488-2.53-1.552-2.53S110.707,228.74,110.707,230.521Z" transform="translate(-108.947 -226.677)" fill="#4a50d9"/><path d="M122.5,230.521c0,2.486-1.184,3.866-3.313,3.866-2.149,0-3.322-1.38-3.322-3.866s1.173-3.844,3.322-3.844C121.313,226.677,122.5,228.046,122.5,230.521Zm-4.877,0c0,1.792.49,2.553,1.564,2.553s1.554-.761,1.554-2.553-.488-2.53-1.554-2.53S117.62,228.74,117.62,230.521Z" transform="translate(-106.104 -226.677)" fill="#4a50d9"/><path d="M123.939,234.317V228.16h-1.432v-1.445h3.148v7.6Z" transform="translate(-103.373 -226.661)" fill="#4a50d9"/></g></g><g transform="translate(-98.119 10.193)" opacity="0.28"><g transform="translate(67.12 256.854)" opacity="0.4"><path d="M73.755,249.058c0,2.488-1.184,3.866-3.312,3.866-2.151,0-3.323-1.379-3.323-3.866s1.173-3.842,3.323-3.842C72.571,245.216,73.755,246.583,73.755,249.058Zm-4.875,0c0,1.792.488,2.553,1.563,2.553S72,250.851,72,249.058s-.488-2.53-1.552-2.53S68.88,247.279,68.88,249.058Z" transform="translate(-67.12 -245.216)" fill="#4a50d9"/><path d="M80.67,249.058c0,2.488-1.185,3.866-3.313,3.866-2.151,0-3.323-1.379-3.323-3.866s1.173-3.842,3.323-3.842C79.485,245.216,80.67,246.583,80.67,249.058Zm-4.878,0c0,1.792.49,2.553,1.565,2.553s1.554-.761,1.554-2.553-.49-2.53-1.554-2.53S75.792,247.279,75.792,249.058Z" transform="translate(-64.278 -245.216)" fill="#4a50d9"/><path d="M82.112,252.856V246.7H80.68v-1.444h3.147v7.6Z" transform="translate(-61.546 -245.2)" fill="#4a50d9"/></g><g transform="translate(78.261 246.867)" opacity="0.4"><path d="M81.65,241.981c0,2.488-1.184,3.866-3.312,3.866-2.151,0-3.323-1.379-3.323-3.866s1.173-3.842,3.323-3.842C80.466,238.139,81.65,239.506,81.65,241.981Zm-4.875,0c0,1.792.488,2.553,1.563,2.553s1.552-.761,1.552-2.553-.488-2.53-1.552-2.53S76.775,240.2,76.775,241.981Z" transform="translate(-75.015 -238.139)" fill="#4a50d9"/><path d="M88.565,241.981c0,2.488-1.184,3.866-3.313,3.866-2.149,0-3.323-1.379-3.323-3.866s1.174-3.842,3.323-3.842C87.381,238.139,88.565,239.506,88.565,241.981Zm-4.877,0c0,1.792.488,2.553,1.563,2.553s1.554-.761,1.554-2.553-.49-2.53-1.554-2.53S83.689,240.2,83.689,241.981Z" transform="translate(-72.173 -238.139)" fill="#4a50d9"/><path d="M90.007,245.779v-6.158H88.575v-1.445h3.148v7.6Z" transform="translate(-69.441 -238.124)" fill="#4a50d9"/></g><g transform="translate(89.401 236.88)" opacity="0.4"><path d="M89.545,234.9c0,2.486-1.182,3.866-3.312,3.866-2.151,0-3.323-1.38-3.323-3.866s1.173-3.844,3.323-3.844C88.362,231.061,89.545,232.43,89.545,234.9Zm-4.875,0c0,1.792.488,2.553,1.563,2.553s1.552-.761,1.552-2.553-.488-2.53-1.552-2.53S84.67,233.124,84.67,234.9Z" transform="translate(-82.91 -231.061)" fill="#4a50d9"/><path d="M96.46,234.9c0,2.486-1.184,3.866-3.313,3.866-2.149,0-3.322-1.38-3.322-3.866s1.173-3.844,3.322-3.844C95.276,231.061,96.46,232.43,96.46,234.9Zm-4.877,0c0,1.792.49,2.553,1.563,2.553S94.7,236.7,94.7,234.9s-.488-2.53-1.554-2.53S91.583,233.124,91.583,234.9Z" transform="translate(-80.067 -231.061)" fill="#4a50d9"/><path d="M97.9,238.7v-6.157H96.47V231.1h3.148v7.6Z" transform="translate(-77.336 -231.045)" fill="#4a50d9"/></g><g transform="translate(100.543 226.893)" opacity="0.4"><path d="M97.441,227.828c0,2.486-1.184,3.866-3.313,3.866-2.149,0-3.322-1.38-3.322-3.866s1.173-3.844,3.322-3.844C96.257,223.984,97.441,225.353,97.441,227.828Zm-4.875,0c0,1.792.488,2.551,1.562,2.551s1.554-.759,1.554-2.551-.488-2.53-1.554-2.53S92.566,226.047,92.566,227.828Z" transform="translate(-90.806 -223.984)" fill="#4a50d9"/><path d="M104.355,227.828c0,2.486-1.184,3.866-3.312,3.866-2.15,0-3.323-1.38-3.323-3.866s1.173-3.844,3.323-3.844C103.171,223.984,104.355,225.353,104.355,227.828Zm-4.877,0c0,1.792.49,2.551,1.565,2.551s1.554-.759,1.554-2.551-.49-2.53-1.554-2.53S99.478,226.047,99.478,227.828Z" transform="translate(-87.964 -223.984)" fill="#4a50d9"/><path d="M105.8,231.624v-6.157h-1.432v-1.445h3.147v7.6Z" transform="translate(-85.232 -223.968)" fill="#4a50d9"/></g><g transform="translate(111.684 216.907)" opacity="0.4"><path d="M105.336,220.751c0,2.486-1.184,3.866-3.312,3.866-2.151,0-3.323-1.38-3.323-3.866s1.173-3.844,3.323-3.844C104.152,216.907,105.336,218.274,105.336,220.751Zm-4.875,0c0,1.792.488,2.551,1.563,2.551s1.552-.759,1.552-2.551-.488-2.53-1.552-2.53S100.461,218.97,100.461,220.751Z" transform="translate(-98.701 -216.907)" fill="#4a50d9"/><path d="M112.251,220.751c0,2.486-1.184,3.866-3.313,3.866-2.151,0-3.323-1.38-3.323-3.866s1.173-3.844,3.323-3.844C111.067,216.907,112.251,218.274,112.251,220.751Zm-4.877,0c0,1.792.488,2.551,1.563,2.551s1.554-.759,1.554-2.551-.49-2.53-1.554-2.53S107.375,218.97,107.375,220.751Z" transform="translate(-95.859 -216.907)" fill="#4a50d9"/><path d="M113.693,224.547V218.39h-1.432v-1.445h3.148v7.6Z" transform="translate(-93.127 -216.891)" fill="#4a50d9"/></g><g transform="translate(81.578 270.64)" opacity="0.4"><path d="M84,258.83c0,2.486-1.184,3.866-3.312,3.866-2.151,0-3.323-1.38-3.323-3.866s1.173-3.844,3.323-3.844C82.817,254.986,84,256.353,84,258.83Zm-4.875,0c0,1.792.488,2.551,1.563,2.551s1.552-.759,1.552-2.551-.488-2.53-1.552-2.53S79.126,257.049,79.126,258.83Z" transform="translate(-77.366 -254.986)" fill="#4a50d9"/><path d="M90.916,258.83c0,2.486-1.184,3.866-3.313,3.866-2.151,0-3.323-1.38-3.323-3.866s1.173-3.844,3.323-3.844C89.732,254.986,90.916,256.353,90.916,258.83Zm-4.877,0c0,1.792.488,2.551,1.563,2.551s1.554-.759,1.554-2.551-.49-2.53-1.554-2.53S86.04,257.049,86.04,258.83Z" transform="translate(-74.524 -254.986)" fill="#4a50d9"/><path d="M92.358,262.626v-6.157H90.926v-1.445h3.148v7.6Z" transform="translate(-71.792 -254.97)" fill="#4a50d9"/></g><g transform="translate(92.719 260.654)" opacity="0.4"><path d="M91.9,251.753c0,2.486-1.182,3.865-3.312,3.865-2.151,0-3.323-1.379-3.323-3.865s1.173-3.844,3.323-3.844C90.713,247.909,91.9,249.276,91.9,251.753Zm-4.875,0c0,1.792.488,2.551,1.563,2.551s1.552-.759,1.552-2.551-.488-2.53-1.552-2.53S87.021,249.972,87.021,251.753Z" transform="translate(-85.261 -247.909)" fill="#4a50d9"/><path d="M98.811,251.753c0,2.486-1.184,3.865-3.313,3.865-2.149,0-3.322-1.379-3.322-3.865s1.173-3.844,3.322-3.844C97.627,247.909,98.811,249.276,98.811,251.753Zm-4.877,0c0,1.792.49,2.551,1.563,2.551s1.554-.759,1.554-2.551-.488-2.53-1.554-2.53S93.934,249.972,93.934,251.753Z" transform="translate(-82.418 -247.909)" fill="#4a50d9"/><path d="M100.253,255.549v-6.157H98.821v-1.445h3.148v7.6Z" transform="translate(-79.687 -247.893)" fill="#4a50d9"/></g><g transform="translate(103.861 250.667)" opacity="0.4"><path d="M99.792,244.674c0,2.488-1.184,3.866-3.313,3.866-2.149,0-3.322-1.379-3.322-3.866s1.173-3.842,3.322-3.842C98.608,240.832,99.792,242.2,99.792,244.674Zm-4.875,0c0,1.792.488,2.553,1.562,2.553s1.554-.761,1.554-2.553-.488-2.53-1.554-2.53S94.917,242.9,94.917,244.674Z" transform="translate(-93.157 -240.832)" fill="#4a50d9"/><path d="M106.706,244.674c0,2.488-1.184,3.866-3.312,3.866-2.151,0-3.323-1.379-3.323-3.866s1.173-3.842,3.323-3.842C105.522,240.832,106.706,242.2,106.706,244.674Zm-4.877,0c0,1.792.49,2.553,1.565,2.553s1.554-.761,1.554-2.553-.49-2.53-1.554-2.53S101.829,242.9,101.829,244.674Z" transform="translate(-90.315 -240.832)" fill="#4a50d9"/><path d="M108.149,248.472v-6.158h-1.432V240.87h3.147v7.6Z" transform="translate(-87.583 -240.816)" fill="#4a50d9"/></g><g transform="translate(115.001 240.681)" opacity="0.4"><path d="M107.687,237.6c0,2.488-1.184,3.866-3.312,3.866-2.15,0-3.323-1.379-3.323-3.866s1.173-3.842,3.323-3.842C106.5,233.755,107.687,235.122,107.687,237.6Zm-4.875,0c0,1.792.488,2.553,1.563,2.553s1.552-.761,1.552-2.553-.488-2.53-1.552-2.53S102.812,235.817,102.812,237.6Z" transform="translate(-101.052 -233.755)" fill="#4a50d9"/><path d="M114.6,237.6c0,2.488-1.184,3.866-3.313,3.866-2.151,0-3.323-1.379-3.323-3.866s1.173-3.842,3.323-3.842C113.418,233.755,114.6,235.122,114.6,237.6Zm-4.877,0c0,1.792.488,2.553,1.564,2.553s1.554-.761,1.554-2.553-.49-2.53-1.554-2.53S109.726,235.817,109.726,237.6Z" transform="translate(-98.21 -233.755)" fill="#4a50d9"/><path d="M116.044,241.395v-6.158h-1.432v-1.444h3.148v7.6Z" transform="translate(-95.478 -233.739)" fill="#4a50d9"/></g><g transform="translate(126.142 230.693)" opacity="0.4"><path d="M115.582,230.521c0,2.486-1.183,3.866-3.312,3.866-2.151,0-3.323-1.38-3.323-3.866s1.173-3.844,3.323-3.844C114.4,226.677,115.582,228.046,115.582,230.521Zm-4.875,0c0,1.792.488,2.553,1.563,2.553s1.552-.761,1.552-2.553-.488-2.53-1.552-2.53S110.707,228.74,110.707,230.521Z" transform="translate(-108.947 -226.677)" fill="#4a50d9"/><path d="M122.5,230.521c0,2.486-1.184,3.866-3.313,3.866-2.149,0-3.322-1.38-3.322-3.866s1.173-3.844,3.322-3.844C121.313,226.677,122.5,228.046,122.5,230.521Zm-4.877,0c0,1.792.49,2.553,1.564,2.553s1.554-.761,1.554-2.553-.488-2.53-1.554-2.53S117.62,228.74,117.62,230.521Z" transform="translate(-106.104 -226.677)" fill="#4a50d9"/><path d="M123.939,234.317V228.16h-1.432v-1.445h3.148v7.6Z" transform="translate(-103.373 -226.661)" fill="#4a50d9"/></g></g><g transform="translate(354.881 556.193)" opacity="0.28"><g transform="translate(67.12 256.854)" opacity="0.4"><path d="M73.755,249.058c0,2.488-1.184,3.866-3.312,3.866-2.151,0-3.323-1.379-3.323-3.866s1.173-3.842,3.323-3.842C72.571,245.216,73.755,246.583,73.755,249.058Zm-4.875,0c0,1.792.488,2.553,1.563,2.553S72,250.851,72,249.058s-.488-2.53-1.552-2.53S68.88,247.279,68.88,249.058Z" transform="translate(-67.12 -245.216)" fill="#4a50d9"/><path d="M80.67,249.058c0,2.488-1.185,3.866-3.313,3.866-2.151,0-3.323-1.379-3.323-3.866s1.173-3.842,3.323-3.842C79.485,245.216,80.67,246.583,80.67,249.058Zm-4.878,0c0,1.792.49,2.553,1.565,2.553s1.554-.761,1.554-2.553-.49-2.53-1.554-2.53S75.792,247.279,75.792,249.058Z" transform="translate(-64.278 -245.216)" fill="#4a50d9"/><path d="M82.112,252.856V246.7H80.68v-1.444h3.147v7.6Z" transform="translate(-61.546 -245.2)" fill="#4a50d9"/></g><g transform="translate(78.261 246.867)" opacity="0.4"><path d="M81.65,241.981c0,2.488-1.184,3.866-3.312,3.866-2.151,0-3.323-1.379-3.323-3.866s1.173-3.842,3.323-3.842C80.466,238.139,81.65,239.506,81.65,241.981Zm-4.875,0c0,1.792.488,2.553,1.563,2.553s1.552-.761,1.552-2.553-.488-2.53-1.552-2.53S76.775,240.2,76.775,241.981Z" transform="translate(-75.015 -238.139)" fill="#4a50d9"/><path d="M88.565,241.981c0,2.488-1.184,3.866-3.313,3.866-2.149,0-3.323-1.379-3.323-3.866s1.174-3.842,3.323-3.842C87.381,238.139,88.565,239.506,88.565,241.981Zm-4.877,0c0,1.792.488,2.553,1.563,2.553s1.554-.761,1.554-2.553-.49-2.53-1.554-2.53S83.689,240.2,83.689,241.981Z" transform="translate(-72.173 -238.139)" fill="#4a50d9"/><path d="M90.007,245.779v-6.158H88.575v-1.445h3.148v7.6Z" transform="translate(-69.441 -238.124)" fill="#4a50d9"/></g><g transform="translate(89.401 236.88)" opacity="0.4"><path d="M89.545,234.9c0,2.486-1.182,3.866-3.312,3.866-2.151,0-3.323-1.38-3.323-3.866s1.173-3.844,3.323-3.844C88.362,231.061,89.545,232.43,89.545,234.9Zm-4.875,0c0,1.792.488,2.553,1.563,2.553s1.552-.761,1.552-2.553-.488-2.53-1.552-2.53S84.67,233.124,84.67,234.9Z" transform="translate(-82.91 -231.061)" fill="#4a50d9"/><path d="M96.46,234.9c0,2.486-1.184,3.866-3.313,3.866-2.149,0-3.322-1.38-3.322-3.866s1.173-3.844,3.322-3.844C95.276,231.061,96.46,232.43,96.46,234.9Zm-4.877,0c0,1.792.49,2.553,1.563,2.553S94.7,236.7,94.7,234.9s-.488-2.53-1.554-2.53S91.583,233.124,91.583,234.9Z" transform="translate(-80.067 -231.061)" fill="#4a50d9"/><path d="M97.9,238.7v-6.157H96.47V231.1h3.148v7.6Z" transform="translate(-77.336 -231.045)" fill="#4a50d9"/></g><g transform="translate(100.543 226.893)" opacity="0.4"><path d="M97.441,227.828c0,2.486-1.184,3.866-3.313,3.866-2.149,0-3.322-1.38-3.322-3.866s1.173-3.844,3.322-3.844C96.257,223.984,97.441,225.353,97.441,227.828Zm-4.875,0c0,1.792.488,2.551,1.562,2.551s1.554-.759,1.554-2.551-.488-2.53-1.554-2.53S92.566,226.047,92.566,227.828Z" transform="translate(-90.806 -223.984)" fill="#4a50d9"/><path d="M104.355,227.828c0,2.486-1.184,3.866-3.312,3.866-2.15,0-3.323-1.38-3.323-3.866s1.173-3.844,3.323-3.844C103.171,223.984,104.355,225.353,104.355,227.828Zm-4.877,0c0,1.792.49,2.551,1.565,2.551s1.554-.759,1.554-2.551-.49-2.53-1.554-2.53S99.478,226.047,99.478,227.828Z" transform="translate(-87.964 -223.984)" fill="#4a50d9"/><path d="M105.8,231.624v-6.157h-1.432v-1.445h3.147v7.6Z" transform="translate(-85.232 -223.968)" fill="#4a50d9"/></g><g transform="translate(111.684 216.907)" opacity="0.4"><path d="M105.336,220.751c0,2.486-1.184,3.866-3.312,3.866-2.151,0-3.323-1.38-3.323-3.866s1.173-3.844,3.323-3.844C104.152,216.907,105.336,218.274,105.336,220.751Zm-4.875,0c0,1.792.488,2.551,1.563,2.551s1.552-.759,1.552-2.551-.488-2.53-1.552-2.53S100.461,218.97,100.461,220.751Z" transform="translate(-98.701 -216.907)" fill="#4a50d9"/><path d="M112.251,220.751c0,2.486-1.184,3.866-3.313,3.866-2.151,0-3.323-1.38-3.323-3.866s1.173-3.844,3.323-3.844C111.067,216.907,112.251,218.274,112.251,220.751Zm-4.877,0c0,1.792.488,2.551,1.563,2.551s1.554-.759,1.554-2.551-.49-2.53-1.554-2.53S107.375,218.97,107.375,220.751Z" transform="translate(-95.859 -216.907)" fill="#4a50d9"/><path d="M113.693,224.547V218.39h-1.432v-1.445h3.148v7.6Z" transform="translate(-93.127 -216.891)" fill="#4a50d9"/></g><g transform="translate(81.578 270.64)" opacity="0.4"><path d="M84,258.83c0,2.486-1.184,3.866-3.312,3.866-2.151,0-3.323-1.38-3.323-3.866s1.173-3.844,3.323-3.844C82.817,254.986,84,256.353,84,258.83Zm-4.875,0c0,1.792.488,2.551,1.563,2.551s1.552-.759,1.552-2.551-.488-2.53-1.552-2.53S79.126,257.049,79.126,258.83Z" transform="translate(-77.366 -254.986)" fill="#4a50d9"/><path d="M90.916,258.83c0,2.486-1.184,3.866-3.313,3.866-2.151,0-3.323-1.38-3.323-3.866s1.173-3.844,3.323-3.844C89.732,254.986,90.916,256.353,90.916,258.83Zm-4.877,0c0,1.792.488,2.551,1.563,2.551s1.554-.759,1.554-2.551-.49-2.53-1.554-2.53S86.04,257.049,86.04,258.83Z" transform="translate(-74.524 -254.986)" fill="#4a50d9"/><path d="M92.358,262.626v-6.157H90.926v-1.445h3.148v7.6Z" transform="translate(-71.792 -254.97)" fill="#4a50d9"/></g><g transform="translate(92.719 260.654)" opacity="0.4"><path d="M91.9,251.753c0,2.486-1.182,3.865-3.312,3.865-2.151,0-3.323-1.379-3.323-3.865s1.173-3.844,3.323-3.844C90.713,247.909,91.9,249.276,91.9,251.753Zm-4.875,0c0,1.792.488,2.551,1.563,2.551s1.552-.759,1.552-2.551-.488-2.53-1.552-2.53S87.021,249.972,87.021,251.753Z" transform="translate(-85.261 -247.909)" fill="#4a50d9"/><path d="M98.811,251.753c0,2.486-1.184,3.865-3.313,3.865-2.149,0-3.322-1.379-3.322-3.865s1.173-3.844,3.322-3.844C97.627,247.909,98.811,249.276,98.811,251.753Zm-4.877,0c0,1.792.49,2.551,1.563,2.551s1.554-.759,1.554-2.551-.488-2.53-1.554-2.53S93.934,249.972,93.934,251.753Z" transform="translate(-82.418 -247.909)" fill="#4a50d9"/><path d="M100.253,255.549v-6.157H98.821v-1.445h3.148v7.6Z" transform="translate(-79.687 -247.893)" fill="#4a50d9"/></g><g transform="translate(103.861 250.667)" opacity="0.4"><path d="M99.792,244.674c0,2.488-1.184,3.866-3.313,3.866-2.149,0-3.322-1.379-3.322-3.866s1.173-3.842,3.322-3.842C98.608,240.832,99.792,242.2,99.792,244.674Zm-4.875,0c0,1.792.488,2.553,1.562,2.553s1.554-.761,1.554-2.553-.488-2.53-1.554-2.53S94.917,242.9,94.917,244.674Z" transform="translate(-93.157 -240.832)" fill="#4a50d9"/><path d="M106.706,244.674c0,2.488-1.184,3.866-3.312,3.866-2.151,0-3.323-1.379-3.323-3.866s1.173-3.842,3.323-3.842C105.522,240.832,106.706,242.2,106.706,244.674Zm-4.877,0c0,1.792.49,2.553,1.565,2.553s1.554-.761,1.554-2.553-.49-2.53-1.554-2.53S101.829,242.9,101.829,244.674Z" transform="translate(-90.315 -240.832)" fill="#4a50d9"/><path d="M108.149,248.472v-6.158h-1.432V240.87h3.147v7.6Z" transform="translate(-87.583 -240.816)" fill="#4a50d9"/></g><g transform="translate(115.001 240.681)" opacity="0.4"><path d="M107.687,237.6c0,2.488-1.184,3.866-3.312,3.866-2.15,0-3.323-1.379-3.323-3.866s1.173-3.842,3.323-3.842C106.5,233.755,107.687,235.122,107.687,237.6Zm-4.875,0c0,1.792.488,2.553,1.563,2.553s1.552-.761,1.552-2.553-.488-2.53-1.552-2.53S102.812,235.817,102.812,237.6Z" transform="translate(-101.052 -233.755)" fill="#4a50d9"/><path d="M114.6,237.6c0,2.488-1.184,3.866-3.313,3.866-2.151,0-3.323-1.379-3.323-3.866s1.173-3.842,3.323-3.842C113.418,233.755,114.6,235.122,114.6,237.6Zm-4.877,0c0,1.792.488,2.553,1.564,2.553s1.554-.761,1.554-2.553-.49-2.53-1.554-2.53S109.726,235.817,109.726,237.6Z" transform="translate(-98.21 -233.755)" fill="#4a50d9"/><path d="M116.044,241.395v-6.158h-1.432v-1.444h3.148v7.6Z" transform="translate(-95.478 -233.739)" fill="#4a50d9"/></g><g transform="translate(126.142 230.693)" opacity="0.4"><path d="M115.582,230.521c0,2.486-1.183,3.866-3.312,3.866-2.151,0-3.323-1.38-3.323-3.866s1.173-3.844,3.323-3.844C114.4,226.677,115.582,228.046,115.582,230.521Zm-4.875,0c0,1.792.488,2.553,1.563,2.553s1.552-.761,1.552-2.553-.488-2.53-1.552-2.53S110.707,228.74,110.707,230.521Z" transform="translate(-108.947 -226.677)" fill="#4a50d9"/><path d="M122.5,230.521c0,2.486-1.184,3.866-3.313,3.866-2.149,0-3.322-1.38-3.322-3.866s1.173-3.844,3.322-3.844C121.313,226.677,122.5,228.046,122.5,230.521Zm-4.877,0c0,1.792.49,2.553,1.564,2.553s1.554-.761,1.554-2.553-.488-2.53-1.554-2.53S117.62,228.74,117.62,230.521Z" transform="translate(-106.104 -226.677)" fill="#4a50d9"/><path d="M123.939,234.317V228.16h-1.432v-1.445h3.148v7.6Z" transform="translate(-103.373 -226.661)" fill="#4a50d9"/></g></g></g></svg>