<svg xmlns="http://www.w3.org/2000/svg" xmlns:xlink="http://www.w3.org/1999/xlink" width="1920" height="1080" viewBox="0 0 1920 1080"><defs><clipPath id="b"><rect width="1920" height="1080"/></clipPath></defs><g id="a" clip-path="url(#b)"><rect width="1920" height="1080" fill="#2e34cc"/><rect width="1920" height="469" transform="translate(0 611)" fill="#fff"/><path d="M458.219,371.064A11.221,11.221,0,1,1,447,359.563,11.364,11.364,0,0,1,458.219,371.064Z" transform="translate(825.14 464.744)" fill="#fff" stroke="#fff" stroke-linecap="round" stroke-linejoin="round" stroke-width="2"/><path d="M43.883,302.421a11.22,11.22,0,1,1-11.216-11.5A11.359,11.359,0,0,1,43.883,302.421Z" transform="translate(96.551 573.791)" fill="#fff" stroke="#fff" stroke-linecap="round" stroke-linejoin="round" stroke-width="2"/><g transform="translate(1132.212 153.379)" opacity="0.23"><line y2="20.104" transform="translate(9.803)" stroke-width="2" stroke="#fff" stroke-linecap="round" stroke-linejoin="round" fill="none"/><line x1="19.606" transform="translate(0 10.052)" stroke-width="2" stroke="#fff" stroke-linecap="round" stroke-linejoin="round" fill="none"/></g><g transform="translate(1900.034 824.789)"><line y2="20.104" transform="translate(9.803 0)" stroke-width="2" stroke="#fff" stroke-linecap="round" stroke-linejoin="round" fill="none"/><line x1="19.606" transform="translate(0 10.052)" stroke-width="2" stroke="#fff" stroke-linecap="round" stroke-linejoin="round" fill="none"/></g><g transform="translate(573.449 643.657)" opacity="0.23"><line y2="20.104" transform="translate(9.803)" stroke-width="2" stroke="#fff" stroke-linecap="round" stroke-linejoin="round" fill="none"/><line x1="19.606" transform="translate(0 10.052)" stroke-width="2" stroke="#fff" stroke-linecap="round" stroke-linejoin="round" fill="none"/></g><g transform="translate(1457.336 1017.822)"><g transform="translate(118.537 0)"><line y2="20.104" transform="translate(9.803)" stroke-width="2" stroke="#fff" stroke-linecap="round" stroke-linejoin="round" fill="none"/><line x1="19.606" transform="translate(0 10.052)" stroke-width="2" stroke="#fff" stroke-linecap="round" stroke-linejoin="round" fill="none"/></g><g transform="translate(59.269 0)"><line y2="20.104" transform="translate(9.803)" stroke-width="2" stroke="#fff" stroke-linecap="round" stroke-linejoin="round" fill="none"/><line x1="19.606" transform="translate(0 10.052)" stroke-width="2" stroke="#fff" stroke-linecap="round" stroke-linejoin="round" fill="none"/></g><g transform="translate(0 0)"><line y2="20.104" transform="translate(9.803)" stroke-width="2" stroke="#fff" stroke-linecap="round" stroke-linejoin="round" fill="none"/><line x1="19.606" transform="translate(0 10.052)" stroke-width="2" stroke="#fff" stroke-linecap="round" stroke-linejoin="round" fill="none"/></g></g><g transform="translate(129.488 166.928)" opacity="0.23"><g transform="translate(118.537)"><line y2="20.104" transform="translate(9.803)" stroke-width="2" stroke="#fff" stroke-linecap="round" stroke-linejoin="round" fill="none"/><line x1="19.606" transform="translate(0 10.052)" stroke-width="2" stroke="#fff" stroke-linecap="round" stroke-linejoin="round" fill="none"/></g><g transform="translate(59.269)"><line y2="20.104" transform="translate(9.803)" stroke-width="2" stroke="#fff" stroke-linecap="round" stroke-linejoin="round" fill="none"/><line x1="19.606" transform="translate(0 10.052)" stroke-width="2" stroke="#fff" stroke-linecap="round" stroke-linejoin="round" fill="none"/></g><line y2="20.104" transform="translate(9.803)" stroke-width="2" stroke="#fff" stroke-linecap="round" stroke-linejoin="round" fill="none"/><line x1="19.606" transform="translate(0 10.052)" stroke-width="2" stroke="#fff" stroke-linecap="round" stroke-linejoin="round" fill="none"/></g><path d="M265.451,474.675c6.65-6.819,18.315,5.142,24.965-1.677s-5.014-18.78,1.636-25.6,18.315,5.142,24.968-1.68-5.017-18.777,1.63-25.593,18.318,5.136,24.973-1.686-5.006-18.788,1.652-25.616,18.323,5.133,24.981-1.694" transform="translate(527.207 521.264)" fill="none" stroke="#fff" stroke-linecap="round" stroke-linejoin="round" stroke-width="2"/><path d="M476.238,454.9c6.65-6.816,18.315,5.142,24.962-1.677s-5.012-18.777,1.639-25.6,18.315,5.139,24.965-1.68-5.014-18.777,1.633-25.593,18.318,5.136,24.97-1.686-5-18.788,1.655-25.615,18.32,5.133,24.979-1.694" transform="translate(853.374 517.194)" fill="none" stroke="#fff" stroke-linecap="round" stroke-linejoin="round" stroke-width="2"/><path d="M488.167,180.406c6.65-6.819,18.315,5.142,24.965-1.677s-5.014-18.777,1.636-25.6,18.315,5.139,24.968-1.683-5.017-18.777,1.63-25.593,18.318,5.139,24.973-1.686-5.006-18.785,1.652-25.613,18.323,5.13,24.981-1.7" transform="translate(1161.767 567.015)" fill="none" stroke="#fff" stroke-linecap="round" stroke-linejoin="round" stroke-width="2" opacity="0.23"/><path d="M488.167,180.406c6.65-6.819,18.315,5.142,24.965-1.677s-5.014-18.777,1.636-25.6,18.315,5.139,24.968-1.683-5.017-18.777,1.63-25.593,18.318,5.139,24.973-1.686-5.006-18.785,1.652-25.613,18.323,5.13,24.981-1.7" transform="translate(636.977 -415.914) rotate(90)" fill="none" stroke="#fff" stroke-linecap="round" stroke-linejoin="round" stroke-width="2" opacity="0.23"/><path d="M488.167,180.406c6.65-6.819,18.315,5.142,24.965-1.677s-5.014-18.777,1.636-25.6,18.315,5.139,24.968-1.683-5.017-18.777,1.63-25.593,18.318,5.139,24.973-1.686-5.006-18.785,1.652-25.613,18.323,5.13,24.981-1.7" transform="translate(1379.977 123.086) rotate(90)" fill="none" stroke="#fff" stroke-linecap="round" stroke-linejoin="round" stroke-width="2" opacity="0.23"/><path d="M488.167,180.406c6.65-6.819,18.315,5.142,24.965-1.677s-5.014-18.777,1.636-25.6,18.315,5.139,24.968-1.683-5.017-18.777,1.63-25.593,18.318,5.139,24.973-1.686-5.006-18.785,1.652-25.613,18.323,5.13,24.981-1.7" transform="translate(-348.233 483.015)" fill="none" stroke="#fff" stroke-linecap="round" stroke-linejoin="round" stroke-width="2" opacity="0.23"/><path d="M488.167,180.406c6.65-6.819,18.315,5.142,24.965-1.677s-5.014-18.777,1.636-25.6,18.315,5.139,24.968-1.683-5.017-18.777,1.63-25.593,18.318,5.139,24.973-1.686-5.006-18.785,1.652-25.613,18.323,5.13,24.981-1.7" transform="translate(1173.767 -13.985)" fill="none" stroke="#fff" stroke-linecap="round" stroke-linejoin="round" stroke-width="2" opacity="0.23"/><g transform="translate(1190 -408)" opacity="0.41"><g transform="translate(671.998 891.97) rotate(-90)" opacity="0.4"><path d="M7.439,3.719A3.719,3.719,0,1,1,3.719,0,3.719,3.719,0,0,1,7.439,3.719Z" transform="translate(0 0)" fill="#fff"/><circle cx="3.72" cy="3.72" r="3.72" transform="translate(32.053)" fill="#fff"/><circle cx="3.72" cy="3.72" r="3.72" transform="translate(64.105)" fill="#fff"/><path d="M7.439,3.719A3.719,3.719,0,1,1,3.719,0,3.721,3.721,0,0,1,7.439,3.719Z" transform="translate(0 32.052)" fill="#fff"/><circle cx="3.72" cy="3.72" r="3.72" transform="translate(32.053 32.053)" fill="#fff"/><circle cx="3.72" cy="3.72" r="3.72" transform="translate(64.105 32.053)" fill="#fff"/><path d="M7.439,3.719A3.719,3.719,0,1,1,3.719,0,3.719,3.719,0,0,1,7.439,3.719Z" transform="translate(0 64.106)" fill="#fff"/><path d="M7.441,3.719A3.72,3.72,0,1,1,3.721,0,3.72,3.72,0,0,1,7.441,3.719Z" transform="translate(32.052 64.106)" fill="#fff"/><path d="M7.439,3.719A3.719,3.719,0,1,1,3.719,0,3.719,3.719,0,0,1,7.439,3.719Z" transform="translate(64.106 64.106)" fill="#fff"/></g><g transform="translate(766.141 891.97) rotate(-90)" opacity="0.4"><path d="M7.439,3.719A3.719,3.719,0,1,1,3.719,0,3.719,3.719,0,0,1,7.439,3.719Z" transform="translate(0 0)" fill="#fff"/><circle cx="3.72" cy="3.72" r="3.72" transform="translate(32.053)" fill="#fff"/><circle cx="3.72" cy="3.72" r="3.72" transform="translate(64.105)" fill="#fff"/><path d="M7.439,3.719A3.719,3.719,0,1,1,3.719,0,3.721,3.721,0,0,1,7.439,3.719Z" transform="translate(0 32.052)" fill="#fff"/><circle cx="3.72" cy="3.72" r="3.72" transform="translate(32.053 32.053)" fill="#fff"/><circle cx="3.72" cy="3.72" r="3.72" transform="translate(64.105 32.053)" fill="#fff"/><path d="M7.439,3.719A3.719,3.719,0,1,1,3.719,0,3.719,3.719,0,0,1,7.439,3.719Z" transform="translate(0 64.106)" fill="#fff"/><path d="M7.441,3.719A3.72,3.72,0,1,1,3.721,0,3.72,3.72,0,0,1,7.441,3.719Z" transform="translate(32.052 64.106)" fill="#fff"/><path d="M7.439,3.719A3.719,3.719,0,1,1,3.719,0,3.719,3.719,0,0,1,7.439,3.719Z" transform="translate(64.106 64.106)" fill="#fff"/></g><g transform="translate(766.141 799.71) rotate(-90)" opacity="0.4"><path d="M7.439,3.719A3.719,3.719,0,1,1,3.719,0,3.719,3.719,0,0,1,7.439,3.719Z" transform="translate(0 0)" fill="#fff"/><circle cx="3.72" cy="3.72" r="3.72" transform="translate(32.053)" fill="#fff"/><circle cx="3.72" cy="3.72" r="3.72" transform="translate(64.105)" fill="#fff"/><path d="M7.439,3.719A3.719,3.719,0,1,1,3.719,0,3.721,3.721,0,0,1,7.439,3.719Z" transform="translate(0 32.052)" fill="#fff"/><circle cx="3.72" cy="3.72" r="3.72" transform="translate(32.053 32.053)" fill="#fff"/><circle cx="3.72" cy="3.72" r="3.72" transform="translate(64.105 32.053)" fill="#fff"/><path d="M7.439,3.719A3.719,3.719,0,1,1,3.719,0,3.719,3.719,0,0,1,7.439,3.719Z" transform="translate(0 64.106)" fill="#fff"/><path d="M7.441,3.719A3.72,3.72,0,1,1,3.721,0,3.72,3.72,0,0,1,7.441,3.719Z" transform="translate(32.052 64.106)" fill="#fff"/><path d="M7.439,3.719A3.719,3.719,0,1,1,3.719,0,3.719,3.719,0,0,1,7.439,3.719Z" transform="translate(64.106 64.106)" fill="#fff"/></g><g transform="translate(672.141 799.71) rotate(-90)" opacity="0.4"><path d="M7.439,3.719A3.719,3.719,0,1,1,3.719,0,3.719,3.719,0,0,1,7.439,3.719Z" transform="translate(0 0)" fill="#fff"/><circle cx="3.72" cy="3.72" r="3.72" transform="translate(32.053)" fill="#fff"/><circle cx="3.72" cy="3.72" r="3.72" transform="translate(64.105)" fill="#fff"/><path d="M7.439,3.719A3.719,3.719,0,1,1,3.719,0,3.721,3.721,0,0,1,7.439,3.719Z" transform="translate(0 32.052)" fill="#fff"/><circle cx="3.72" cy="3.72" r="3.72" transform="translate(32.053 32.053)" fill="#fff"/><circle cx="3.72" cy="3.72" r="3.72" transform="translate(64.105 32.053)" fill="#fff"/><path d="M7.439,3.719A3.719,3.719,0,1,1,3.719,0,3.719,3.719,0,0,1,7.439,3.719Z" transform="translate(0 64.106)" fill="#fff"/><path d="M7.441,3.719A3.72,3.72,0,1,1,3.721,0,3.72,3.72,0,0,1,7.441,3.719Z" transform="translate(32.052 64.106)" fill="#fff"/><path d="M7.439,3.719A3.719,3.719,0,1,1,3.719,0,3.719,3.719,0,0,1,7.439,3.719Z" transform="translate(64.106 64.106)" fill="#fff"/></g></g></g></svg>