<svg xmlns="http://www.w3.org/2000/svg" xmlns:xlink="http://www.w3.org/1999/xlink" width="1920" height="1080" viewBox="0 0 1920 1080"><defs><clipPath id="b"><rect width="1920" height="1080"/></clipPath></defs><g id="a" clip-path="url(#b)"><rect width="1920" height="1080" fill="#2e34cc"/><rect width="1920" height="573" transform="translate(0 507)" fill="#fff"/><path d="M458.219,371.064A11.221,11.221,0,1,1,447,359.563,11.364,11.364,0,0,1,458.219,371.064Z" transform="translate(825.14 464.744)" fill="#fff" stroke="#fff" stroke-linecap="round" stroke-linejoin="round" stroke-width="2"/><path d="M43.883,302.421a11.22,11.22,0,1,1-11.216-11.5A11.359,11.359,0,0,1,43.883,302.421Z" transform="translate(96.551 573.791)" fill="#fff" stroke="#fff" stroke-linecap="round" stroke-linejoin="round" stroke-width="2"/><g transform="translate(1231.212 90.379)" opacity="0.14"><line y2="7.922" transform="translate(3.863)" stroke-width="2" stroke="#fff" stroke-linecap="round" stroke-linejoin="round" fill="none"/><line x1="7.726" transform="translate(0 3.961)" stroke-width="2" stroke="#fff" stroke-linecap="round" stroke-linejoin="round" fill="none"/></g><g transform="translate(1527.212 16.379)" opacity="0.14"><line y2="7.922" transform="translate(3.863)" stroke-width="2" stroke="#fff" stroke-linecap="round" stroke-linejoin="round" fill="none"/><line x1="7.726" transform="translate(0 3.961)" stroke-width="2" stroke="#fff" stroke-linecap="round" stroke-linejoin="round" fill="none"/></g><g transform="translate(1900.034 824.789)"><line y2="20.104" transform="translate(9.803 0)" stroke-width="2" stroke="#fff" stroke-linecap="round" stroke-linejoin="round" fill="none"/><line x1="19.606" transform="translate(0 10.052)" stroke-width="2" stroke="#fff" stroke-linecap="round" stroke-linejoin="round" fill="none"/></g><g transform="translate(573.449 643.657)" opacity="0.23"><line y2="20.104" transform="translate(9.803)" stroke-width="2" stroke="#fff" stroke-linecap="round" stroke-linejoin="round" fill="none"/><line x1="19.606" transform="translate(0 10.052)" stroke-width="2" stroke="#fff" stroke-linecap="round" stroke-linejoin="round" fill="none"/></g><g transform="translate(1457.336 1017.822)"><g transform="translate(118.537 0)"><line y2="20.104" transform="translate(9.803)" stroke-width="2" stroke="#fff" stroke-linecap="round" stroke-linejoin="round" fill="none"/><line x1="19.606" transform="translate(0 10.052)" stroke-width="2" stroke="#fff" stroke-linecap="round" stroke-linejoin="round" fill="none"/></g><g transform="translate(59.269 0)"><line y2="20.104" transform="translate(9.803)" stroke-width="2" stroke="#fff" stroke-linecap="round" stroke-linejoin="round" fill="none"/><line x1="19.606" transform="translate(0 10.052)" stroke-width="2" stroke="#fff" stroke-linecap="round" stroke-linejoin="round" fill="none"/></g><g transform="translate(0 0)"><line y2="20.104" transform="translate(9.803)" stroke-width="2" stroke="#fff" stroke-linecap="round" stroke-linejoin="round" fill="none"/><line x1="19.606" transform="translate(0 10.052)" stroke-width="2" stroke="#fff" stroke-linecap="round" stroke-linejoin="round" fill="none"/></g></g><g transform="translate(129.488 166.928)" opacity="0.14"><g transform="translate(38.651)"><line y2="6.555" transform="translate(3.196)" stroke-width="2" stroke="#fff" stroke-linecap="round" stroke-linejoin="round" fill="none"/><line x1="6.393" transform="translate(0 3.278)" stroke-width="2" stroke="#fff" stroke-linecap="round" stroke-linejoin="round" fill="none"/></g><g transform="translate(19.326)"><line y2="6.555" transform="translate(3.196)" stroke-width="2" stroke="#fff" stroke-linecap="round" stroke-linejoin="round" fill="none"/><line x1="6.393" transform="translate(0 3.278)" stroke-width="2" stroke="#fff" stroke-linecap="round" stroke-linejoin="round" fill="none"/></g><line y2="6.555" transform="translate(3.196)" stroke-width="2" stroke="#fff" stroke-linecap="round" stroke-linejoin="round" fill="none"/><line x1="6.393" transform="translate(0 3.278)" stroke-width="2" stroke="#fff" stroke-linecap="round" stroke-linejoin="round" fill="none"/></g><path d="M265.451,474.675c6.65-6.819,18.315,5.142,24.965-1.677s-5.014-18.78,1.636-25.6,18.315,5.142,24.968-1.68-5.017-18.777,1.63-25.593,18.318,5.136,24.973-1.686-5.006-18.788,1.652-25.616,18.323,5.133,24.981-1.694" transform="translate(527.207 521.264)" fill="none" stroke="#fff" stroke-linecap="round" stroke-linejoin="round" stroke-width="2"/><path d="M476.238,454.9c6.65-6.816,18.315,5.142,24.962-1.677s-5.012-18.777,1.639-25.6,18.315,5.139,24.965-1.68-5.014-18.777,1.633-25.593,18.318,5.136,24.97-1.686-5-18.788,1.655-25.615,18.32,5.133,24.979-1.694" transform="translate(853.374 517.194)" fill="none" stroke="#fff" stroke-linecap="round" stroke-linejoin="round" stroke-width="2"/><path d="M488.167,180.406c6.65-6.819,18.315,5.142,24.965-1.677s-5.014-18.777,1.636-25.6,18.315,5.139,24.968-1.683-5.017-18.777,1.63-25.593,18.318,5.139,24.973-1.686-5.006-18.785,1.652-25.613,18.323,5.13,24.981-1.7" transform="translate(1161.767 567.015)" fill="none" stroke="#fff" stroke-linecap="round" stroke-linejoin="round" stroke-width="2" opacity="0.23"/><path d="M488.167,126.655c2.4-2.457,6.6,1.853,9-.6s-1.807-6.767.589-9.224,6.6,1.852,9-.606-1.808-6.767.588-9.223,6.6,1.852,9-.608-1.8-6.77.6-9.23,6.6,1.849,9-.612" transform="translate(582.903 -415.914) rotate(90)" fill="none" stroke="#fff" stroke-linecap="round" stroke-linejoin="round" stroke-width="2" opacity="0.14"/><path d="M488.167,126.655c2.4-2.457,6.6,1.853,9-.6s-1.807-6.767.589-9.224,6.6,1.852,9-.606-1.808-6.767.588-9.223,6.6,1.852,9-.608-1.8-6.77.6-9.23,6.6,1.849,9-.612" transform="matrix(0.966, -0.259, 0.259, 0.966, -404.361, 410.572)" fill="none" stroke="#fff" stroke-linecap="round" stroke-linejoin="round" stroke-width="2" opacity="0.14"/><path d="M488.167,180.406c6.65-6.819,18.315,5.142,24.965-1.677s-5.014-18.777,1.636-25.6,18.315,5.139,24.968-1.683-5.017-18.777,1.63-25.593,18.318,5.139,24.973-1.686-5.006-18.785,1.652-25.613,18.323,5.13,24.981-1.7" transform="translate(1379.977 123.086) rotate(90)" fill="none" stroke="#fff" stroke-linecap="round" stroke-linejoin="round" stroke-width="2" opacity="0.23"/><path d="M488.167,180.406c6.65-6.819,18.315,5.142,24.965-1.677s-5.014-18.777,1.636-25.6,18.315,5.139,24.968-1.683-5.017-18.777,1.63-25.593,18.318,5.139,24.973-1.686-5.006-18.785,1.652-25.613,18.323,5.13,24.981-1.7" transform="translate(-348.233 483.015)" fill="none" stroke="#fff" stroke-linecap="round" stroke-linejoin="round" stroke-width="2" opacity="0.23"/><path d="M488.167,123.843c2.174-2.229,5.988,1.681,8.162-.548s-1.639-6.139.535-8.368,5.988,1.68,8.163-.55-1.64-6.139.533-8.367,5.989,1.68,8.164-.551-1.637-6.141.54-8.374,5.99,1.677,8.167-.555" transform="translate(1244.308 -13.985)" fill="none" stroke="#fff" stroke-linecap="round" stroke-linejoin="round" stroke-width="2" opacity="0.14"/><path d="M488.167,123.843c2.174-2.229,5.988,1.681,8.162-.548s-1.639-6.139.535-8.368,5.988,1.68,8.163-.55-1.64-6.139.533-8.367,5.989,1.68,8.164-.551-1.637-6.141.54-8.374,5.99,1.677,8.167-.555" transform="translate(1961.796 -202.095) rotate(90)" fill="none" stroke="#fff" stroke-linecap="round" stroke-linejoin="round" stroke-width="2" opacity="0.14"/><g transform="translate(1220.781 -298.77)" opacity="0.41"><g transform="translate(671.998 782.74) rotate(-90)" opacity="0.4"><path d="M2.478,1.239A1.239,1.239,0,1,1,1.239,0,1.239,1.239,0,0,1,2.478,1.239Z" transform="translate(0 0)" fill="#fff"/><circle cx="1.239" cy="1.239" r="1.239" transform="translate(10.679)" fill="#fff"/><circle cx="1.239" cy="1.239" r="1.239" transform="translate(21.358)" fill="#fff"/><path d="M2.478,1.239A1.239,1.239,0,1,1,1.239,0,1.24,1.24,0,0,1,2.478,1.239Z" transform="translate(0 10.679)" fill="#fff"/><circle cx="1.239" cy="1.239" r="1.239" transform="translate(10.679 10.679)" fill="#fff"/><circle cx="1.239" cy="1.239" r="1.239" transform="translate(21.358 10.679)" fill="#fff"/><path d="M2.478,1.239A1.239,1.239,0,1,1,1.239,0,1.239,1.239,0,0,1,2.478,1.239Z" transform="translate(0 21.358)" fill="#fff"/><path d="M2.479,1.239A1.24,1.24,0,1,1,1.24,0,1.239,1.239,0,0,1,2.479,1.239Z" transform="translate(10.679 21.358)" fill="#fff"/><path d="M2.478,1.239A1.239,1.239,0,1,1,1.239,0,1.239,1.239,0,0,1,2.478,1.239Z" transform="translate(21.358 21.358)" fill="#fff"/></g><g transform="translate(703.364 782.74) rotate(-90)" opacity="0.4"><path d="M2.478,1.239A1.239,1.239,0,1,1,1.239,0,1.239,1.239,0,0,1,2.478,1.239Z" transform="translate(0 0)" fill="#fff"/><circle cx="1.239" cy="1.239" r="1.239" transform="translate(10.679)" fill="#fff"/><circle cx="1.239" cy="1.239" r="1.239" transform="translate(21.358)" fill="#fff"/><path d="M2.478,1.239A1.239,1.239,0,1,1,1.239,0,1.24,1.24,0,0,1,2.478,1.239Z" transform="translate(0 10.679)" fill="#fff"/><circle cx="1.239" cy="1.239" r="1.239" transform="translate(10.679 10.679)" fill="#fff"/><circle cx="1.239" cy="1.239" r="1.239" transform="translate(21.358 10.679)" fill="#fff"/><path d="M2.478,1.239A1.239,1.239,0,1,1,1.239,0,1.239,1.239,0,0,1,2.478,1.239Z" transform="translate(0 21.358)" fill="#fff"/><path d="M2.479,1.239A1.24,1.24,0,1,1,1.24,0,1.239,1.239,0,0,1,2.479,1.239Z" transform="translate(10.679 21.358)" fill="#fff"/><path d="M2.478,1.239A1.239,1.239,0,1,1,1.239,0,1.239,1.239,0,0,1,2.478,1.239Z" transform="translate(21.358 21.358)" fill="#fff"/></g><g transform="translate(703.364 752.002) rotate(-90)" opacity="0.4"><path d="M2.478,1.239A1.239,1.239,0,1,1,1.239,0,1.239,1.239,0,0,1,2.478,1.239Z" transform="translate(0 0)" fill="#fff"/><circle cx="1.239" cy="1.239" r="1.239" transform="translate(10.679)" fill="#fff"/><circle cx="1.239" cy="1.239" r="1.239" transform="translate(21.358)" fill="#fff"/><path d="M2.478,1.239A1.239,1.239,0,1,1,1.239,0,1.24,1.24,0,0,1,2.478,1.239Z" transform="translate(0 10.679)" fill="#fff"/><circle cx="1.239" cy="1.239" r="1.239" transform="translate(10.679 10.679)" fill="#fff"/><circle cx="1.239" cy="1.239" r="1.239" transform="translate(21.358 10.679)" fill="#fff"/><path d="M2.478,1.239A1.239,1.239,0,1,1,1.239,0,1.239,1.239,0,0,1,2.478,1.239Z" transform="translate(0 21.358)" fill="#fff"/><path d="M2.479,1.239A1.24,1.24,0,1,1,1.24,0,1.239,1.239,0,0,1,2.479,1.239Z" transform="translate(10.679 21.358)" fill="#fff"/><path d="M2.478,1.239A1.239,1.239,0,1,1,1.239,0,1.239,1.239,0,0,1,2.478,1.239Z" transform="translate(21.358 21.358)" fill="#fff"/></g><g transform="translate(672.045 752.002) rotate(-90)" opacity="0.4"><path d="M2.478,1.239A1.239,1.239,0,1,1,1.239,0,1.239,1.239,0,0,1,2.478,1.239Z" transform="translate(0 0)" fill="#fff"/><circle cx="1.239" cy="1.239" r="1.239" transform="translate(10.679)" fill="#fff"/><circle cx="1.239" cy="1.239" r="1.239" transform="translate(21.358)" fill="#fff"/><path d="M2.478,1.239A1.239,1.239,0,1,1,1.239,0,1.24,1.24,0,0,1,2.478,1.239Z" transform="translate(0 10.679)" fill="#fff"/><circle cx="1.239" cy="1.239" r="1.239" transform="translate(10.679 10.679)" fill="#fff"/><circle cx="1.239" cy="1.239" r="1.239" transform="translate(21.358 10.679)" fill="#fff"/><path d="M2.478,1.239A1.239,1.239,0,1,1,1.239,0,1.239,1.239,0,0,1,2.478,1.239Z" transform="translate(0 21.358)" fill="#fff"/><path d="M2.479,1.239A1.24,1.24,0,1,1,1.24,0,1.239,1.239,0,0,1,2.479,1.239Z" transform="translate(10.679 21.358)" fill="#fff"/><path d="M2.478,1.239A1.239,1.239,0,1,1,1.239,0,1.239,1.239,0,0,1,2.478,1.239Z" transform="translate(21.358 21.358)" fill="#fff"/></g></g></g></svg>