<svg xmlns="http://www.w3.org/2000/svg" width="455.967" height="358.565" viewBox="0 0 455.967 358.565"><g transform="translate(-717.999 -4919.716)"><g transform="translate(717.999 5051.565)" style="isolation:isolate"><path d="M478.1,195.979l-1.353-2.342-76.939,44.422a13.9,13.9,0,1,0,1.376,2.327Zm-89.475,62.075a11.837,11.837,0,1,1,11.836-11.836A11.85,11.85,0,0,1,388.625,258.054Z" transform="translate(-374.76 -193.637)" fill="#656bfe"/><path d="M386.533,226.326a6.619,6.619,0,1,0,6.618,6.62A6.62,6.62,0,0,0,386.533,226.326Z" transform="translate(-372.668 -180.364)" fill="#656bfe"/></g><g transform="translate(905.03 4919.716)" style="isolation:isolate"><path d="M507.781,121.953v49.808l47.711,27.546V149.5l-37.269-21.517Z" transform="translate(-507.781 -90.894)" fill="#656bfe"/><path d="M604.645,127.409,556.934,99.863l-47.711,27.546,47.711,27.546Z" transform="translate(-507.195 -99.863)" fill="#656bfe"/><path d="M509.223,119.454h0L556.934,147h0Z" transform="translate(-507.195 -91.908)" fill="#656bfe"/><path d="M544.6,199.306l47.711-27.546V121.953l-10.442,6.029L544.6,149.5Z" transform="translate(-492.832 -90.894)" fill="#656bfe"/><path d="M581.867,126.241,544.6,147.758h0Z" transform="translate(-492.832 -89.153)" fill="#656bfe"/></g><path d="M507.781,260.894l47.711,27.546V238.633l-47.711-27.546Z" transform="translate(397.249 4865.013)" fill="#656bfe"/><path d="M604.645,216.543,556.934,189l-47.711,27.546,47.711,27.546Z" transform="translate(397.835 4856.043)" fill="#656bfe"/><path d="M509.223,208.588h0l47.71,27.546h0Z" transform="translate(397.835 4863.998)" fill="#fff" style="mix-blend-mode:soft-light;isolation:isolate"/><path d="M592.31,260.894V211.086L544.6,238.633V288.44Z" transform="translate(412.198 4865.013)" fill="#656bfe"/><path d="M431.82,166.981v49.808l47.711,27.546V194.526Z" transform="translate(366.407 4847.104)" fill="#656bfe"/><path d="M536.238,150.231,534.86,147.9l-36.1,21.385,2.687,1.551Z" transform="translate(393.586 4839.359)" fill="#656bfe"/><path d="M563.774,148.319l1.378-2.326,36.1,21.385-2.687,1.551Z" transform="translate(419.984 4838.583)" fill="#656bfe"/><path d="M485.6,282.72l1.379-2.326,36.1,21.385-2.687,1.551Z" transform="translate(388.243 4893.153)" fill="#656bfe"/><path d="M612.3,194.391l-1.378-2.326-36.1,21.385L577.5,215Z" transform="translate(424.468 4857.29)" fill="#656bfe"/><path d="M536.405,239.109l-1.378-2.326-36.1,21.385,2.687,1.551Z" transform="translate(393.654 4875.446)" fill="#656bfe"/><path d="M611.517,282.72l-1.378-2.326-36.1,21.385,2.687,1.551Z" transform="translate(424.151 4893.153)" fill="#656bfe"/><path d="M528.039,172.065l-2.687-1.551-44.379-25.622-47.711,27.546,47.711,27.546,47.711-27.546Z" transform="translate(366.993 4838.136)" fill="#656bfe"/><path d="M433.263,164.482h0l47.711,27.546h0Z" transform="translate(366.993 4846.09)" fill="#fff" style="mix-blend-mode:soft-light;isolation:isolate"/><path d="M516.349,216.788V166.981l-47.711,27.545v49.808Z" transform="translate(381.357 4847.104)" fill="#656bfe"/><path d="M596.836,171.228,586.394,165.2v49.808L634.1,242.552V192.745Z" transform="translate(429.168 4846.381)" fill="#656bfe"/><path d="M683.258,170.655l-47.711-27.546-47.711,27.546L635.547,198.2Z" transform="translate(429.754 4837.412)" fill="#656bfe"/><path d="M587.836,162.7h0l47.711,27.546h0Z" transform="translate(429.754 4845.367)" fill="#fff" style="mix-blend-mode:soft-light;isolation:isolate"/><path d="M623.212,242.552l47.711-27.546V165.2l-10.442,6.029-37.269,21.517Z" transform="translate(444.117 4846.381)" fill="#656bfe"/><path d="M660.48,169.487,623.212,191h0Z" transform="translate(444.117 4848.122)" fill="#fff" style="mix-blend-mode:soft-light;isolation:isolate"/><path d="M507.781,349.675l47.711,27.546V327.414l-47.711-27.546Z" transform="translate(397.249 4901.06)" fill="#656bfe"/><path d="M604.645,305.324l-47.711-27.546-47.711,27.546,47.711,27.546Z" transform="translate(397.835 4892.091)" fill="#656bfe"/><path d="M556.934,324.915h0l-47.711-27.546h0Z" transform="translate(397.835 4900.045)" fill="#fff" style="mix-blend-mode:soft-light;isolation:isolate"/><path d="M592.31,349.675V299.868L544.6,327.414v49.807Z" transform="translate(412.198 4901.06)" fill="#656bfe"/><path d="M431.82,305.569l47.711,27.546V283.307L431.82,255.761Z" transform="translate(366.407 4883.151)" fill="#656bfe"/><path d="M528.684,261.218l-47.711-27.545-47.711,27.545,47.711,27.546Z" transform="translate(366.993 4874.183)" fill="#656bfe"/><path d="M433.263,253.263h0l47.71,27.546h0Z" transform="translate(366.993 4882.138)" fill="#fff" style="mix-blend-mode:soft-light;isolation:isolate"/><path d="M516.349,305.569V255.761l-47.711,27.546v49.807Z" transform="translate(381.357 4883.151)" fill="#656bfe"/><path d="M586.394,303.787,634.1,331.333V281.525L586.394,253.98Z" transform="translate(429.168 4882.428)" fill="#656bfe"/><path d="M703.277,219.86a13.834,13.834,0,0,0-12.561,19.7l-38.289,22.107,2.7,1.561,36.962-21.339a13.856,13.856,0,1,0,11.185-22.024Zm0,25.7a11.837,11.837,0,1,1,11.836-11.836A11.85,11.85,0,0,1,703.277,245.561Z" transform="translate(455.979 4868.575)" fill="#656bfe"/><path d="M690.5,225.013a6.619,6.619,0,1,0,6.618,6.62A6.62,6.62,0,0,0,690.5,225.013Z" transform="translate(468.752 4870.667)" fill="#656bfe"/><path d="M681.357,258.339l-2.7-1.561L635.547,231.89l-47.711,27.546,47.711,27.545,47.711-27.545Z" transform="translate(429.754 4873.459)" fill="#656bfe"/><path d="M635.547,279.027h0l-47.711-27.545h0Z" transform="translate(429.754 4881.414)" fill="#fff" style="mix-blend-mode:soft-light;isolation:isolate"/><path d="M670.923,303.787V253.98l-47.711,27.545v49.808Z" transform="translate(444.117 4882.428)" fill="#656bfe"/><circle cx="12.818" cy="12.818" r="12.818" transform="translate(1144.546 5091.159) rotate(-9.244)" fill="none" style="mix-blend-mode:color-dodge;isolation:isolate"/><circle cx="12.818" cy="12.818" r="12.818" transform="translate(1144.546 5091.159) rotate(-9.244)" fill="none"/></g></svg>