<svg xmlns="http://www.w3.org/2000/svg" width="640" height="588.813" viewBox="0 0 640 588.813"><g transform="translate(-0.001 1.332)"><path d="M552.012-1.332H87.989A88.085,88.085,0,0,0,0,86.656V370.629a88.089,88.089,0,0,0,87.676,87.988V587.481L272.867,458.618H552.012A88.09,88.09,0,0,0,640,370.629V86.656A88.085,88.085,0,0,0,552.012-1.332ZM602.5,370.629a50.547,50.547,0,0,1-50.488,50.488H261.1L125.176,515.7V421.117H87.989A50.547,50.547,0,0,1,37.5,370.629V86.656A50.542,50.542,0,0,1,87.989,36.168H552.012A50.542,50.542,0,0,1,602.5,86.656Zm0,0" fill="#fff"/><path d="M171.293,131.172H468.707v37.5H171.293Zm0,0" fill="#fff"/><path d="M171.293,211.172H468.707v37.5H171.293Zm0,0" fill="#fff"/><path d="M171.293,291.172H468.707v37.5H171.293Zm0,0" fill="#fff"/></g></svg>