<svg xmlns="http://www.w3.org/2000/svg" width="214.815" height="215" viewBox="0 0 214.815 215"><g transform="translate(0 0.184)"><g transform="translate(107.407 71.607)"><path d="M265.062,160A25.09,25.09,0,0,1,240,185.064v7.16A32.258,32.258,0,0,0,272.222,160Z" transform="translate(-240 -160.002)" fill="#4a50d9"/></g><g transform="translate(75.185 39.385)"><path d="M168,120.224h7.16a25.09,25.09,0,0,1,25.062-25.062V88A32.258,32.258,0,0,0,168,120.224Z" transform="translate(-168 -88.002)" fill="#4a50d9"/></g><g transform="translate(93.072 53.705)"><path d="M228.773,137.141l-11.761-1.958a2.234,2.234,0,0,1,.358-4.439h9.853a2.238,2.238,0,0,1,2.234,2.234v1.346h7.16v-1.346a9.4,9.4,0,0,0-9.387-9.395h-1.346V120h-7.16v3.58h-1.346a9.395,9.395,0,0,0-1.543,18.664L227.6,144.2a2.234,2.234,0,0,1-.358,4.439h-9.86a2.238,2.238,0,0,1-2.234-2.234v-1.346h-7.16v1.346a9.4,9.4,0,0,0,9.395,9.395h1.346v3.58h7.16V155.8h1.346a9.395,9.395,0,0,0,1.543-18.664Z" transform="translate(-207.969 -120.002)" fill="#4a50d9"/></g><g transform="translate(60.852 0.002)"><g transform="translate(0 0)"><path d="M225.491,53.705V25.064h-7.16V41.909A46.9,46.9,0,0,0,211.17,35V14.323h-7.16V30.359a46.184,46.184,0,0,0-21.481-5.3c-1.21,0-2.4.09-3.58.183V0h-7.16V26.363a46.467,46.467,0,0,0-7.16,2.281v-7.16h-7.16V32.224h.358a46.892,46.892,0,0,0-11.1,9.685V14.323h-7.16V53.705a46.543,46.543,0,1,0,85.926,0Zm-16.169,46.462a39.257,39.257,0,1,1-5.312-61.509V57.286h7.16V44.68A39.257,39.257,0,0,1,209.322,100.167Z" transform="translate(-135.973 -0.002)" fill="#4a50d9"/></g></g><g transform="translate(128.888 0.002)"><g transform="translate(0 0)"><rect width="7" height="7" transform="translate(0.112 -0.186)" fill="#4a50d9"/></g></g><g transform="translate(82.345 7.162)"><rect width="8" height="8" transform="translate(-0.345 -0.347)" fill="#4a50d9"/></g><g transform="translate(157.536 7.172)"><path d="M387.753,33.318a3.58,3.58,0,0,0-2.933-2.933,13.849,13.849,0,0,1-11.382-11.378,3.58,3.58,0,0,0-7.06,0A13.849,13.849,0,0,1,355,30.384a3.58,3.58,0,0,0,0,7.06,13.849,13.849,0,0,1,11.382,11.378,3.58,3.58,0,0,0,7.06,0A13.849,13.849,0,0,1,384.82,37.445,3.58,3.58,0,0,0,387.753,33.318Zm-17.845,5.71a21.014,21.014,0,0,0-5.113-5.113,21.014,21.014,0,0,0,5.113-5.113,21.015,21.015,0,0,0,5.113,5.113A21.007,21.007,0,0,0,369.908,39.027Z" transform="translate(-352.013 -16.023)" fill="#4a50d9"/></g><g transform="translate(0 137.476)"><path d="M212.188,323.188a15.242,15.242,0,0,0-12.393-6.686,15.087,15.087,0,0,0-7.117,1.79L152.07,340.16A16.111,16.111,0,0,0,137.839,316.5H97.959a41.824,41.824,0,0,0-52.629,0H0v7.16H42.963v53.7H0v7.16H142.454a17.808,17.808,0,0,0,9.928-3.007l55.744-37.163A15.241,15.241,0,0,0,212.188,323.188ZM204.155,338.4l-55.744,37.177a10.683,10.683,0,0,1-5.958,1.79H50.123V321.779A34.728,34.728,0,0,1,94.335,322.8a3.581,3.581,0,0,0,2.331.859h41.173a8.951,8.951,0,1,1,0,17.9H100.246a3.58,3.58,0,1,0,0,7.16H150.37a3.582,3.582,0,0,0,1.7-.426l44.008-23.7a8.013,8.013,0,0,1,8.081,13.8Z" transform="translate(0 -307.186)" fill="#4a50d9"/></g><g transform="translate(14.321 179.014)"><path d="M42.741,400a10.741,10.741,0,1,0,10.741,10.741A10.741,10.741,0,0,0,42.741,400Zm0,14.321a3.58,3.58,0,1,1,3.58-3.58A3.58,3.58,0,0,1,42.741,414.323Z" transform="translate(-32 -400.002)" fill="#4a50d9"/></g></g></svg>