<svg xmlns="http://www.w3.org/2000/svg" width="197.265" height="200.592" viewBox="0 0 197.265 200.592"><g transform="translate(-0.016 0)"><path d="M196.445,161.583l-4.421-7.987.034-33.5a3.346,3.346,0,0,0-.417-1.618L170.623,80.545a13.37,13.37,0,0,0-8.589-6.465V10.008A10.009,10.009,0,0,0,152.026,0H45.273A10.008,10.008,0,0,0,35.265,10.008V74.1a13.349,13.349,0,0,0-8.591,6.449L5.658,118.482a3.328,3.328,0,0,0-.417,1.614l.033,33.5L.859,161.567a6.672,6.672,0,0,0,2.6,9.086l52.488,29.081a6.622,6.622,0,0,0,5.112.593A6.511,6.511,0,0,0,65,197.175l4.587-8.26,13.9-12.106h30.326l13.9,12.106,4.569,8.234a6.541,6.541,0,0,0,3.96,3.178,6.707,6.707,0,0,0,1.859.264,6.6,6.6,0,0,0,3.233-.847l52.5-29.088a6.67,6.67,0,0,0,2.61-9.073ZM64.765,184.268a3.316,3.316,0,0,0-.723.9L59.2,193.906,6.691,164.8l4.838-8.741a3.32,3.32,0,0,0,.417-1.6l-.033-33.5,20.6-37.172a6.685,6.685,0,0,1,12.53,3.251,6.849,6.849,0,0,1-.85,3.224L34.48,107.774a3.336,3.336,0,0,0,1.3,4.537,16.645,16.645,0,0,1,6.622,22.464L35.8,144.983a3.337,3.337,0,0,0-.533,1.8V166.8a10.008,10.008,0,0,0,10.008,10.008H73.328ZM45.274,170.137a3.335,3.335,0,0,1-3.336-3.336V147.785l6.185-9.57a23.322,23.322,0,0,0-6.3-29.912L50.04,93.485a13.541,13.541,0,0,0,1.668-6.431A13.4,13.4,0,0,0,44.8,75.35a13.975,13.975,0,0,0-2.867-1.168V10.008a3.336,3.336,0,0,1,3.336-3.336H152.026a3.336,3.336,0,0,1,3.336,3.336V74.166a14,14,0,0,0-2.886,1.181,13.382,13.382,0,0,0-6.889,11.676,13.527,13.527,0,0,0,1.684,6.452l8.21,14.812a23.436,23.436,0,0,0-6.192,30.088l6.073,9.41V166.8a3.336,3.336,0,0,1-3.336,3.336Zm92.855,23.8-4.872-8.773a3.317,3.317,0,0,0-.723-.9l-8.563-7.459h28.056A10.009,10.009,0,0,0,162.034,166.8V146.785a3.336,3.336,0,0,0-.534-1.811l-6.49-10.008a16.682,16.682,0,0,1,5.538-22.065c.311-.21.624-.386,1.034-.63a3.335,3.335,0,0,0,1.235-4.493l-9.7-17.495a6.848,6.848,0,0,1-.863-3.243,6.736,6.736,0,0,1,6.5-6.7,6.953,6.953,0,0,1,6.025,3.45l20.6,37.172-.034,33.5a3.347,3.347,0,0,0,.417,1.619l4.838,8.742Zm0,0" transform="translate(0)" fill="#4a50d9"/><path d="M140.547,48h13.344v6.672H140.547Zm0,0" transform="translate(-81.929 -27.984)" fill="#4a50d9"/><path d="M188.547,48H248.6v6.672H188.547Zm0,0" transform="translate(-109.913 -27.984)" fill="#4a50d9"/><path d="M140.547,80h80.064v6.672H140.547Zm0,0" transform="translate(-81.929 -46.64)" fill="#4a50d9"/><path d="M140.547,112h40.032v6.672H140.547Zm0,0" transform="translate(-81.929 -65.296)" fill="#4a50d9"/><path d="M252.547,112h33.36v6.672h-33.36Zm0,0" transform="translate(-147.225 -65.296)" fill="#4a50d9"/><path d="M140.547,144h80.064v6.672H140.547Zm0,0" transform="translate(-81.929 -83.952)" fill="#4a50d9"/><path d="M140.547,208h40.032v6.672H140.547Zm0,0" transform="translate(-81.929 -121.263)" fill="#4a50d9"/><path d="M252.547,208h33.36v6.672h-33.36Zm0,0" transform="translate(-147.225 -121.263)" fill="#4a50d9"/><path d="M140.547,240h80.064v6.672H140.547Zm0,0" transform="translate(-81.929 -139.919)" fill="#4a50d9"/><path d="M140.547,336h40.032v6.672H140.547Zm0,0" transform="translate(-81.929 -195.887)" fill="#4a50d9"/><path d="M252.547,336h33.36v6.672h-33.36Zm0,0" transform="translate(-147.225 -195.887)" fill="#4a50d9"/><path d="M140.547,176h26.688v6.672H140.547Zm0,0" transform="translate(-81.929 -102.608)" fill="#4a50d9"/><path d="M220.547,176h13.344v6.672H220.547Zm0,0" transform="translate(-128.569 -102.608)" fill="#4a50d9"/><path d="M268.547,176h26.688v6.672H268.547Zm0,0" transform="translate(-156.553 -102.608)" fill="#4a50d9"/><path d="M140.547,304h50.04v6.672h-50.04Zm0,0" transform="translate(-81.929 -177.231)" fill="#4a50d9"/><path d="M276.547,304H299.9v6.672H276.547Zm0,0" transform="translate(-161.217 -177.231)" fill="#4a50d9"/><path d="M140.547,272h33.36v6.672h-33.36Zm0,0" transform="translate(-81.929 -158.575)" fill="#4a50d9"/><path d="M236.547,272h13.344v6.672H236.547Zm0,0" transform="translate(-137.897 -158.575)" fill="#4a50d9"/><path d="M284.547,272h20.016v6.672H284.547Zm0,0" transform="translate(-165.881 -158.575)" fill="#4a50d9"/></g></svg>