<svg xmlns="http://www.w3.org/2000/svg" width="258" height="53" viewBox="0 0 258 53"><g transform="translate(-847 -345)"><path d="M73.687,50.354a22.525,22.525,0,0,0-3.4-5.474A23,23,0,1,0,38.531,77.724a22.254,22.254,0,0,0,5.44,3.111,22.763,22.763,0,0,0,8.619,1.7,23.052,23.052,0,0,0,23-23.035,22.763,22.763,0,0,0-1.9-9.146ZM52.573,41.123a18.209,18.209,0,0,1,7.686,1.7h0a7.462,7.462,0,0,1-1.836.527A9.741,9.741,0,0,0,50.176,51.6,5.1,5.1,0,0,1,45.569,56.1a9.741,9.741,0,0,0-8.245,8.245A4.947,4.947,0,0,1,35.981,67.3h0A18.36,18.36,0,0,1,52.59,41.089ZM38.514,71.4c.2-.187.408-.357.612-.561a9.316,9.316,0,0,0,2.754-5.491,4.964,4.964,0,0,1,1.479-3.094,4.811,4.811,0,0,1,3.077-1.462,9.741,9.741,0,0,0,8.245-8.245A4.964,4.964,0,0,1,56.16,49.3a4.879,4.879,0,0,1,3.111-1.411,9.316,9.316,0,0,0,5.1-2.431,17.867,17.867,0,0,1,4.012,4.726,1.462,1.462,0,0,1-.221.238,4.879,4.879,0,0,1-3.077,1.5,9.707,9.707,0,0,0-8.245,8.245,5.1,5.1,0,0,1-4.573,4.556,9.792,9.792,0,0,0-8.3,8.245,5.338,5.338,0,0,1-.833,2.329A18.513,18.513,0,0,1,38.514,71.4Zm14.059,6.562a18.428,18.428,0,0,1-5.1-.714,9.826,9.826,0,0,0,1.088-3.4,5.1,5.1,0,0,1,4.556-4.556,9.741,9.741,0,0,0,8.262-8.245,5.1,5.1,0,0,1,4.556-4.556,9.707,9.707,0,0,0,4.352-1.7A18.394,18.394,0,0,1,52.573,77.877Z" transform="translate(817.529 311.572)" fill="#2e34cc"/><text transform="translate(906 387)" fill="#2e34cc" font-size="40" font-family="Roboto-Bold, Roboto" font-weight="700"><tspan x="0" y="0">predavanja</tspan></text></g></svg>