<svg xmlns="http://www.w3.org/2000/svg" width="16.747" height="16.748" viewBox="0 0 16.747 16.748"><g transform="translate(-0.014)"><g transform="translate(0.014)"><g transform="translate(0)"><path d="M305.191,151.713a.663.663,0,0,0-.142-.214l-1.968-1.968a.656.656,0,1,0-.928.928l.848.848h-3.665a.656.656,0,1,0,0,1.312H303l-.848.848a.656.656,0,1,0,.928.928l1.968-1.968a.649.649,0,0,0,.142-.214A.657.657,0,0,0,305.191,151.713Z" transform="translate(-289.494 -144.746)" fill="#e1e2ff"/><path d="M11.169,9.186a.656.656,0,0,0-.656.656v3.281H7.888V2.625A.657.657,0,0,0,7.42,2L5.141,1.312h5.371V4.593a.656.656,0,1,0,1.312,0V.656A.656.656,0,0,0,11.169,0H.67A.585.585,0,0,0,.6.012a.648.648,0,0,0-.278.1C.31.119.292.119.278.13S.271.141.266.145A.65.65,0,0,0,.091.352.536.536,0,0,0,.073.407.622.622,0,0,0,.021.561a.408.408,0,0,0,0,.057C.023.631.014.643.014.656V13.78a.656.656,0,0,0,.528.643L7.1,15.735a.611.611,0,0,0,.129.013.657.657,0,0,0,.656-.656v-.656h3.281a.656.656,0,0,0,.656-.656V9.843A.656.656,0,0,0,11.169,9.186Z" transform="translate(-0.014)" fill="#e1e2ff"/></g></g></g></svg>