<svg xmlns="http://www.w3.org/2000/svg" width="258.008" height="58.914" viewBox="0 0 258.008 58.914"><g transform="translate(-831 -413)"><path d="M63.87,45.031h6.517V71.38H63.87Zm9.1,16.4c0-6.517,4-10.4,10.166-10.4S93.3,54.914,93.3,61.431s-3.91,10.427-10.166,10.427S72.972,68.056,72.972,61.431Zm13.794,0c0-3.584-1.412-5.691-3.628-5.691s-3.606,2.172-3.606,5.691,1.368,5.648,3.606,5.648,3.628-2,3.628-5.626Zm8.993,11.23h6.256a3.367,3.367,0,0,0,3.519,1.955c2.476,0,3.78-1.347,3.78-3.3V67.665h-.13a6.169,6.169,0,0,1-5.93,3.562c-4.757,0-7.907-3.628-7.907-9.862s3-10.166,7.994-10.166a6.234,6.234,0,0,1,6,3.823h0V51.4h6.517V71.163c0,4.757-4.192,7.711-10.383,7.711-5.756,0-9.34-2.585-9.71-6.191Zm13.576-11.252c0-3.171-1.455-5.17-3.758-5.17s-3.714,1.977-3.714,5.17,1.39,5,3.714,5,3.758-1.759,3.758-4.974Zm8.971,0c0-6.517,4-10.4,10.166-10.4s10.188,3.888,10.188,10.4-3.91,10.427-10.188,10.427-10.166-3.78-10.166-10.4Zm13.794,0c0-3.584-1.412-5.691-3.628-5.691s-3.5,2.194-3.5,5.735,1.368,5.648,3.584,5.648,3.541-2.02,3.541-5.648Zm9.036-14.749a3.323,3.323,0,1,1,3.389,3.237,3.171,3.171,0,0,1-3.389-3.193Zm0,4.779h6.517V71.38h-6.517Zm30.172,9.97c0,6.517-2.889,10.231-7.842,10.231a6.212,6.212,0,0,1-6.082-3.693h-.13v9.818h-6.517V51.4h6.517v3.562h.13a6.234,6.234,0,0,1,6.039-3.845c5,.087,7.972,3.823,7.972,10.34Zm-6.517,0c0-3.171-1.455-5.192-3.736-5.192s-3.736,2.042-3.758,5.192,1.477,5.17,3.758,5.17,3.736-1.977,3.736-5.126Zm17.7-10.427c5.409,0,8.689,2.563,8.841,6.669H185.4c0-1.412-1.173-2.3-2.976-2.3s-2.607.7-2.607,1.716.717,1.347,2.172,1.651l4.171.847c3.975.847,5.669,2.455,5.669,5.474,0,4.127-3.758,6.777-9.3,6.777s-9.167-2.65-9.449-6.712h6.278c.2,1.477,1.368,2.346,3.28,2.346s2.78-.63,2.78-1.673-.608-1.26-2.172-1.586l-3.758-.8c-3.888-.8-5.93-2.867-5.93-5.908.044-3.91,3.541-6.451,8.928-6.451Zm31.084,20.354H207.3V67.622h-.13a5.669,5.669,0,0,1-5.778,4.149,6.929,6.929,0,0,1-7.3-7.494V51.4h6.517V62.778c0,2.368,1.216,3.628,3.237,3.628a3.323,3.323,0,0,0,3.3-3.758V51.4h6.517Zm3.15-19.941h6.3V55.24h.13a5.778,5.778,0,0,1,5.669-4.214,5.192,5.192,0,0,1,5.539,4.344h.13a6.126,6.126,0,0,1,6.126-4.344,6.321,6.321,0,0,1,6.517,6.777V71.38h-6.517V59.541c0-2.172-.977-3.171-2.8-3.171a2.846,2.846,0,0,0-2.846,3.215v11.8h-6.191V59.454c0-2-.977-3.085-2.759-3.085a2.911,2.911,0,0,0-2.889,3.258V71.38h-6.517Z" transform="translate(841.852 384.568)" fill="#fff"/><path d="M85.968,54.222a28.781,28.781,0,0,0-4.344-6.995A29.39,29.39,0,1,0,41.047,89.195,28.435,28.435,0,0,0,48,93.17a29.086,29.086,0,0,0,11.013,2.172A29.455,29.455,0,0,0,88.4,65.909a29.086,29.086,0,0,0-2.433-11.686ZM58.99,42.427A23.267,23.267,0,0,1,68.81,44.6h0a9.535,9.535,0,0,1-2.346.673A12.447,12.447,0,0,0,55.927,55.808a6.517,6.517,0,0,1-5.887,5.756A12.447,12.447,0,0,0,39.5,72.1a6.321,6.321,0,0,1-1.716,3.78h0a23.46,23.46,0,0,1,21.222-33.5ZM41.025,81.114c.261-.239.521-.456.782-.717a11.9,11.9,0,0,0,3.519-7.016,6.343,6.343,0,0,1,1.89-3.953,6.147,6.147,0,0,1,3.932-1.868A12.447,12.447,0,0,0,61.683,57.024a6.343,6.343,0,0,1,1.89-4.149,6.234,6.234,0,0,1,3.975-1.8,11.9,11.9,0,0,0,6.517-3.106,22.83,22.83,0,0,1,5.126,6.039,1.869,1.869,0,0,1-.282.3,6.234,6.234,0,0,1-3.932,1.912A12.4,12.4,0,0,0,64.442,66.756,6.517,6.517,0,0,1,58.6,72.577,12.512,12.512,0,0,0,48,83.113a6.821,6.821,0,0,1-1.064,2.976,23.655,23.655,0,0,1-5.908-4.974ZM58.99,89.5a23.547,23.547,0,0,1-6.517-.912,12.555,12.555,0,0,0,1.39-4.344,6.517,6.517,0,0,1,5.822-5.821A12.447,12.447,0,0,0,70.242,67.885a6.517,6.517,0,0,1,5.822-5.822,12.4,12.4,0,0,0,5.561-2.172A23.5,23.5,0,0,1,58.99,89.39Z" transform="translate(801.529 376.572)" fill="#fff"/></g></svg>