<svg xmlns="http://www.w3.org/2000/svg" width="1091.494" height="655.659" viewBox="0 0 1091.494 655.659"><g transform="translate(-785.742 -244.807)"><path d="M19.732,549.412S38.625,376.85,125.27,348.2c142.746-47.2,157.265,72.242,187.107,57.884S404.437,221.3,580.5,219.823c176.237-1.476,198.6,266.616,340.815,194.327,100.338-51,189.77,135.262,189.77,135.262Z" transform="translate(766.01 103.934)" fill="#f5f5ff"/><g transform="translate(1269.59 244.807)"><rect width="447.35" height="278.672" transform="translate(6.782 0.796)" fill="#4a50d9"/><rect width="464.188" height="11.147" fill="#46557c"/><rect width="464.188" height="11.147" transform="translate(0 274.691)" fill="#46557c"/><path d="M1104.526,299.535l-2.954-.96,5.908,16.6Z" transform="translate(-831.993 -164.782)" fill="#3d50a0" opacity="0.4" style="mix-blend-mode:multiply;isolation:isolate"/></g><g transform="translate(1426.264 298.107)"><path d="M1100.251,277.921l.642-10.751c-2.585.014-6.374-.967-8.877-6.066-4.117-8.386-.836-28.534-.836-28.534s19.985-5.583,22.548.965-.414,25.348-.414,25.348l.145,17.184Z" transform="translate(-985.137 -197.371)" fill="#f9b39d"/><path d="M1089.13,247.075l.716-6.122s-3.229-14.934,3.589-9.174c2.477,2.093,8.48,5.065,14.087-.479,2.272-2.247,4.274,7.072,4.012,11.943-.235,4.378,1.42,3.465,1.42,3.465s9.677-16.221,4.9-23.922C1110.847,211.5,1077.653,198.833,1089.13,247.075Z" transform="translate(-984.165 -191.917)" fill="#1e2d56"/><path d="M1147.37,606.142c0-10.612-11.477-167.384-11.477-167.384l-52,3.628a1376.665,1376.665,0,0,1-12.768,166.1l19.015.731c3.578-15.077,11.811-89.542,20.793-136.385,11.39,46.485,13.964,119.519,18.2,134.446Z" transform="translate(-979.424 -260.637)" fill="#808cff"/><path d="M1154.413,691.918l39.035-.207c1.649-6.735-20.794-12.607-20.794-12.607l-18.241,1.139Z" transform="translate(-1004.708 -333.598)" fill="#1e2d56"/><path d="M1082.988,692.668l-37.042-.823c-1.455-6.252,17.511-9.53,17.511-9.53l19.372-.366Z" transform="translate(-971.757 -334.462)" fill="#1e2d56"/><path d="M1175.56,467.24s-3.712,13.652-1.118,11.582c2.838-2.265,2.581,5.369,2.581,5.369s3.775,9.79,9.093.946c1.056-1.756,1.959-16.6,1.959-16.6Z" transform="translate(-1010.509 -269.283)" fill="#f9b39d"/><path d="M1096.245,253.2c0,.822-.192,1.49-.432,1.49s-.436-.666-.437-1.489.192-1.49.432-1.491S1096.243,252.38,1096.245,253.2Z" transform="translate(-986.786 -203.856)"/><path d="M1113.888,254.177c0,.823-.192,1.49-.432,1.49s-.436-.666-.437-1.489.192-1.49.432-1.49S1113.887,253.354,1113.888,254.177Z" transform="translate(-992.142 -204.151)"/><path d="M1120.62,249.83l-.634-.361c.6-1.053,3.674-6.321,5.545-6.193a1.137,1.137,0,0,1,.989.805l-.672.284c-.147-.348-.3-.357-.359-.361C1124.446,243.927,1122.02,247.373,1120.62,249.83Z" transform="translate(-994.257 -201.293)"/><path d="M992.839,287.315l12.055-7.7s14.1,21.187,17.539,24.058c3.4,2.844,22.572-7.787,45.439-12.767,12.876-2.8,30.56-.357,40.167,6.612,12.4,9,20.18,44.763,21.987,58.614,4.078,31.247,4.888,56.911,4.888,56.911l-14.782-2.8c0-8.756-5.29-53.233-5.29-53.233s-12.733-37.217-12.667-36.6c3.923,36.494,14.039,84.905,14.039,84.905l-26.265,1.707-3.27-14.06-1.419,14.4-30.033,1.354c2.053-22.768-4.1-89.915-4.1-89.915s-22.985,6.046-30.4,5.232C1009.053,322.751,992.839,287.315,992.839,287.315Z" transform="translate(-955.659 -212.327)" fill="#394578"/><path d="M1100.579,292.974l1.963-4.937,7.619,1.888,7.176-3.51,4.3,6.755-4.729,54.814Z" transform="translate(-988.366 -214.39)" fill="#fff"/><path d="M1113.161,326.338l.177-25.729-2.454-4.666,2.515-4.509,3.575,3.994-1.118,4.049L1122.24,324l-2.086,27.333Z" transform="translate(-991.494 -215.914)" fill="#e0624c"/><ellipse cx="1.696" cy="1.815" rx="1.696" ry="1.815" transform="translate(128.126 145.168)" fill="#d0dcfc"/><path d="M1105.6,281.554a19.723,19.723,0,0,0,7.381-3.635c1.956-1.483-1.391,6.383-7.54,6.286Z" transform="translate(-989.841 -211.754)" fill="#f9b39d" opacity="0.4" style="mix-blend-mode:multiply;isolation:isolate"/><path d="M1103.58,275.333a1.392,1.392,0,0,1-.208-.015c-1.132-.161-1.649-1.583-1.671-1.644l.688-.244c.107.3.51,1.085,1.088,1.167.5.069,1.139-.395,1.824-1.348l.593.426C1105.1,274.776,1104.322,275.333,1103.58,275.333Z" transform="translate(-988.706 -210.393)"/><path d="M1103.381,263.607l2.367-.257.078.725-3.279.356.782-5.965.724.087" transform="translate(-988.964 -205.906)"/><path d="M1125.009,254.726c.437-.669,3.325-1.93,3.185.277-.443,6.941-3.817,5.208-3.817,5.208S1124.253,255.881,1125.009,254.726Z" transform="translate(-995.588 -204.476)" fill="#f9b39d"/><path d="M1087.863,251.439s-2.765-1.708-2.6.5c.462,6.151,3.353,5.119,3.353,5.119Z" transform="translate(-983.714 -203.581)" fill="#f9b39d"/><path d="M1093.414,257a5.621,5.621,0,0,1-4.948-3.218,5.765,5.765,0,0,1-.383-4.184,4.938,4.938,0,0,1,2.557-3.085,4.805,4.805,0,0,1,2.133-.493,5.625,5.625,0,0,1,4.949,3.218,5.38,5.38,0,0,1-2.175,7.268A4.8,4.8,0,0,1,1093.414,257Zm-.641-10.251a4.074,4.074,0,0,0-1.811.419,4.212,4.212,0,0,0-2.179,2.636,5.03,5.03,0,0,0,.339,3.656,4.884,4.884,0,0,0,4.292,2.81,4.074,4.074,0,0,0,1.811-.419,4.65,4.65,0,0,0,1.841-6.292A4.887,4.887,0,0,0,1092.773,246.748Z" transform="translate(-984.503 -202.127)"/><path d="M1112.306,258.557a5.62,5.62,0,0,1-4.948-3.219,5.379,5.379,0,0,1,2.174-7.268,4.8,4.8,0,0,1,2.132-.494,5.623,5.623,0,0,1,4.948,3.219,5.38,5.38,0,0,1-2.174,7.268A4.8,4.8,0,0,1,1112.306,258.557Zm-.641-10.251a4.071,4.071,0,0,0-1.811.419,4.65,4.65,0,0,0-1.841,6.292,4.887,4.887,0,0,0,4.293,2.81,4.07,4.07,0,0,0,1.81-.419,4.651,4.651,0,0,0,1.841-6.292A4.888,4.888,0,0,0,1111.664,248.306Z" transform="translate(-990.239 -202.6)"/><path d="M1000.3,273.162s-3.977-14.121-6.872-15.2,0,7.6,0,7.6-2.9-6.909-10.552-5.408c-3.443.676-3.938,9.491,7.641,20.04Z" transform="translate(-951.983 -205.723)" fill="#f9b39d"/><path d="M998.04,273.722a16.974,16.974,0,0,1-.121,1.809c-.178,1.492-.618,3.461-1.7,4.081" transform="translate(-956.684 -210.537)" fill="#f9b39d" opacity="0.4" style="mix-blend-mode:multiply;isolation:isolate"/><path d="M1084.926,616.125l-.725-.08,16.549-152.228.879-.04Z" transform="translate(-983.394 -268.232)" fill="#808cff" opacity="0.4" style="mix-blend-mode:multiply;isolation:isolate"/><path d="M1164.558,614.375l-16.024-152.893.728-.047L1165.283,614.3Z" transform="translate(-1002.924 -267.521)" fill="#808cff" opacity="0.4" style="mix-blend-mode:multiply;isolation:isolate"/></g><g transform="translate(1410.431 391.367)"><g transform="translate(38.519)"><g transform="translate(0 5.109)"><path d="M149.6,175.169c-14,8.939-25.053,16-25.053,27.931v16.957h2.968V203.1c0-10.306,10.451-16.981,23.684-25.429,1.948-1.247,3.95-2.523,5.985-3.857l-1.629-2.482C153.536,172.657,151.542,173.931,149.6,175.169Z" transform="translate(-124.549 -171.331)" fill="#262626"/></g><path d="M135.008,175.808l1.972,3.167s12.035-1.519,8.424-7.455C141.479,165.071,135.008,175.808,135.008,175.808Z" transform="translate(-106.477 -169.458)" fill="#262626"/><path d="M134.1,173.435l2.058,2.968,2.394-1.45-1.972-3.167Z" transform="translate(-108.048 -165.436)" fill="#ed6e3b"/></g><rect width="145.095" height="16.908" transform="translate(20.218 50.108)" fill="#262626"/><rect width="183.019" height="7.233" transform="translate(0 67.016)" fill="#0b0c10"/><path d="M0,0H183.019V7.232H0Z" transform="translate(0 269.684)" fill="#464646"/><rect width="167.519" height="191.592" transform="translate(7.75 74.119)" fill="#676767"/><path d="M280.427,263.3l-78.489.931-78.489-.931h-5.306L110.429,277H293.447l-7.714-13.7Z" transform="translate(-110.429 -7.316)" fill="#5d5d5d"/></g><g transform="translate(1016.143 278.842)"><path d="M371.883,656.557l-12.925-69.865,60.43.653-10.067,69.985Z" transform="translate(-353.111 -286.279)" fill="#e3ecff"/><path d="M371.712,376s-37.373-147.166-12.757-219.97c4.771-14.11,37.75,189.957,16.322,221.151l4.156,78.563-4.156.282Z" transform="translate(-350.563 -155.331)" fill="#d0dcfc"/><path d="M396.392,495.683V429.2s12.557-156.338,16.815-141.944c19.112,64.614-11.9,141.7-12.618,141.7-1.439,0-1.478,66.728-1.478,66.728Z" transform="translate(-364.475 -195.096)" fill="#d0dcfc"/><path d="M412.761,505.616l5.158-51.323s18.243-123.274,47.331-134.676c0,0-18.342,129.176-43.911,137.425L417,506.281Z" transform="translate(-369.444 -205.203)" fill="#d0dcfc"/></g><path d="M1401.462,763.433h-69.988s3.652-17.542,34.994-17.542S1401.462,763.433,1401.462,763.433Z" transform="translate(367.806 -55.765)" fill="#131e44"/><g transform="translate(1131.892 484.162)" opacity="0.4" style="mix-blend-mode:multiply;isolation:isolate"><path d="M541.441,487.851c-1.9-.5-4.355-5.872-7.507-3.234-3.069,2.568-.722,6.373,1.6,8.434-1.662-1.913-2.564-4.262-.085-6.336,2.867-2.4,4.961,1.149,6.75,2.19C541.937,488.536,541.683,488.183,541.441,487.851Z" transform="translate(-521.533 -460.392)" fill="#59281b"/><path d="M550.291,451.61c7.657,14.978,2.722,18.441-.283,22.764-1.125,1.618,7.591,9.384,9.513,11.213a84.637,84.637,0,0,1-6.731-8.149c5.144-2.858,6.439-9.568-1.217-24.546a8.978,8.978,0,0,0-2.252-2.743A8.029,8.029,0,0,1,550.291,451.61Z" transform="translate(-526.649 -450.149)" fill="#59281b"/><path d="M533.929,510.332,525.87,515.3a46.672,46.672,0,0,1-9.1-6.826,46.886,46.886,0,0,0,10.386,8.107l8.059-4.966.321-9.485s-.538-.3-1.3-.819Z" transform="translate(-516.766 -465.68)" fill="#59281b"/><path d="M567.058,507.228a1.282,1.282,0,0,1-.331-.075,7.506,7.506,0,0,1,.183,8.883c-2.733,3.863-8.47,2.6-11.309,1.664a7,7,0,0,1-.384.653s9.264,4.213,12.976-1.035C571.884,512.1,567.058,507.228,567.058,507.228Z" transform="translate(-528.439 -467.454)" fill="#59281b"/></g><ellipse cx="99.256" cy="6.835" rx="99.256" ry="6.835" transform="translate(1600.015 779.492)" fill="#ebebfc" style="mix-blend-mode:multiply;isolation:isolate"/><path d="M128.936,757.433h69.988s-3.652-17.542-34.994-17.542S128.936,757.433,128.936,757.433Z" transform="translate(732.859 -53.944)" fill="#131e44"/><path d="M1273.756,872.9v13.355h-53.326l28.636-12.748Z" transform="translate(401.516 -94.322)" fill="#8e372e"/><path d="M151.452,536.475l-1.26-4.072,5.461,8.686Z" transform="translate(726.407 9.043)" fill="#f9b39d" opacity="0.4" style="mix-blend-mode:multiply;isolation:isolate"/><g transform="translate(829.724 482.053)"><path d="M134.346,698.236s5.686,26.356,27.32,31.128c14.115,3.114,58.508-9.09,58.508-9.09l.682-39.3-39.942,9.751S149.566,703.125,134.346,698.236Z" transform="translate(-98.507 -518.112)" fill="#808cff"/><path d="M245.973,677.827S273.6,666.141,280.49,672.5c13.21,12.2-45.35,118.957-45.35,118.957l-18.057-2.249,39.587-72.037-11.379-.048Z" transform="translate(-123.623 -514.964)" fill="#f9917d"/><ellipse cx="78.433" cy="6.835" rx="78.433" ry="6.835" transform="translate(0 297.439)" fill="#ebebfc" style="mix-blend-mode:multiply;isolation:isolate"/><path d="M210.1,836.5a13.721,13.721,0,0,1-2.669-2.708s11.573-24.887,20.082-25.788c0,0,17.48,6.941,14.817,10.644-22.487,31.254-12.229,47.107-22.837,43.227-4-1.464-10.5-14.071-4.641-30.1C216.382,827.6,210.1,836.5,210.1,836.5Z" transform="translate(-120.694 -556.675)" fill="#471e15"/><path d="M214.732,851.605l9.154-20.977-6.816,8.018Z" transform="translate(-122.91 -563.542)" fill="#59281b" opacity="0.4" style="mix-blend-mode:multiply;isolation:isolate"/><path d="M252.229,690.4s28.357-9.318,35.248-2.956c13.21,12.2-33.688,109.629-33.688,109.629l-15.633-.613,22.312-75.532-8.781.634Z" transform="translate(-130.021 -519.401)" fill="#f9b39d"/><path d="M143.056,721.163s3.791,6.151,9.547,4.1,21.511-17.012,21.511-17.012S152.649,724.9,143.056,721.163Z" transform="translate(-101.151 -526.393)" fill="#808cff" opacity="0.4" style="mix-blend-mode:multiply;isolation:isolate"/><path d="M190.283,582.521,210,551.11l21.7,13.339-18.124,30.392Z" transform="translate(-115.488 -478.689)" fill="#d5dbef"/><path d="M151.7,467.014s-9.89-19.771,4.516-19.892c16.026-.135,7.733,18.46,7.733,18.46Z" transform="translate(-102.769 -447.121)" fill="#60443d"/><path d="M159.331,447.348c-.238,0-.452.1-.676.114,14.326.834,6.486,18.5,6.486,18.5h1.924S175.357,447.213,159.331,447.348Z" transform="translate(-105.887 -447.19)" fill="#60443d" opacity="0.4" style="mix-blend-mode:multiply;isolation:isolate"/><path d="M115.631,524.057s30.495-41.017,42.161-37.517,13.654,11.427,13.654,11.427-8.567,13.489-9.15,16.989-1.433,9.614-1.433,9.614l-3.482-3.619-7.308,8.034s-7.643,1.045-9.113-6.5l-1.261-4.072-4.167,5.512C130.938,523.832,121.265,523.237,115.631,524.057Z" transform="translate(-92.826 -459.023)" fill="#f9b39d"/><path d="M132.822,489.852s-7.583,17.5,0,16.916a56.279,56.279,0,0,0,15.382-3.934s2.2-10.366,6.863-9.2,3.305,7.914,3.305,7.914,13.381.162,16.881-6.838-7.523-23.02-20.356-22.436S137.432,478.684,132.822,489.852Z" transform="translate(-97.021 -454.752)" fill="#60443d"/><g transform="translate(33.005 20.18)" opacity="0.4" style="mix-blend-mode:multiply;isolation:isolate"><path d="M153.394,501.048c-4.667-1.167-5.777,5.1-7.263,7.169-2.349,3.277-7.4,5.381-14.982,5.965a3.981,3.981,0,0,1-.872-.031,2.674,2.674,0,0,0,2.8,1.313,56.28,56.28,0,0,0,15.382-3.934s2.2-10.366,6.863-9.2c.1.025.2.056.293.087A4.066,4.066,0,0,0,153.394,501.048Z" transform="translate(-130.277 -483.628)" fill="#60443d"/><path d="M177.243,476.1c6.863,5.083,11.036,13.809,8.692,18.5-2.639,5.278-10.895,6.484-14.8,6.757a11.1,11.1,0,0,1-.161,1.362s13.381.162,16.881-6.838C190.414,490.765,185.223,480.852,177.243,476.1Z" transform="translate(-142.633 -476.097)" fill="#60443d"/></g><path d="M93.762,601.79l11.784-1.04s13.082,45.368,18.786,63.45,34.067-6.59,43.511-17.539l-5.177-17.182c0-2.826,3.637-24.769,6.343-35.652,0,0-2.571-40.766-28.556-50.532-30.942-11.629-37.859-8.7-45.442,9.968S93.762,601.79,93.762,601.79Z" transform="translate(-85.434 -474.224)" fill="#f2785f"/><path d="M94.842,629.839s11.015,39.933,15.166,40.74,7.868-3.255,7.868-3.255L106.626,628.8Z" transform="translate(-86.515 -502.273)" fill="#f9b39d"/><path d="M177.382,722.075a254,254,0,0,0-11.068-41.158c-10.3-27.7-22.921-41.94-37.515-42.332-7.5-.2-13.031,2.3-16.466,7.447-13.351,19.986,9.639,73.443,11.9,78.583l-19.917,86.8,2.144,0L126.427,724.4l-.142-.319a253.461,253.461,0,0,1-12.219-35.446,63.658,63.658,0,0,0,10.036.671,131.092,131.092,0,0,0,15.291-.981c16.217-1.912,23.179-3.894,25.626-4.755a254.694,254.694,0,0,1,10.3,38.845Zm-63.312-74.883c3.01-4.506,7.955-6.692,14.672-6.519,13.107.352,23.15,13.337,30.5,28.855-1.089.951-6.011,3.751-25.629,4.775-9.744.508-19.472.594-22.374.609C109.588,663.886,109.807,653.574,114.071,647.192Zm25.076,39.061c-15.266,1.8-23.446.584-25.634.159-.752-3.128-1.415-6.286-1.942-9.4,7.361.031,37.629.1,47.61-4.9a2.894,2.894,0,0,0,.909-.752c1.524,3.353,2.929,6.8,4.212,10.251C162.075,682.393,155.294,684.35,139.147,686.254Z" transform="translate(-89.391 -505.24)" fill="#131e44"/><path d="M186.5,848.974h-2.292l16.01-87.421,2.055.421Z" transform="translate(-113.644 -542.573)" fill="#131e44"/><path d="M153.705,849.907,143.278,764.9l2.074-.27,10.21,85.279Z" transform="translate(-101.219 -543.506)" fill="#131e44"/><path d="M225.569,850l-9.975-84.864,2.074-.2L227.89,850Z" transform="translate(-123.171 -543.601)" fill="#131e44"/><path d="M164.188,511.512c-.27.805-.8,1.352-1.187,1.223s-.478-.887-.207-1.692.8-1.352,1.187-1.223S164.458,510.706,164.188,511.512Z" transform="translate(-107.096 -466.149)" fill="#f9b39d" opacity="0.4" style="mix-blend-mode:multiply;isolation:isolate"/><path d="M178.466,520.046c-.365.66-.423,1.325-.13,1.487s.825-.241,1.189-.9.423-1.325.13-1.487S178.83,519.387,178.466,520.046Z" transform="translate(-111.804 -468.975)" fill="#0c0c0c"/><path d="M169.207,536.421a.966.966,0,0,1-.51-.139c-.7-.425-.611-1.628-.6-1.764l.694.062c-.031.362.032.965.268,1.107.154.094.466.006.854-.241l.375.587A2.088,2.088,0,0,1,169.207,536.421Z" transform="translate(-108.75 -473.652)" fill="#0c0c0c"/><path d="M159.717,597.769l18.237,44.3L155.7,601.858Z" transform="translate(-104.99 -492.853)" fill="#f2785f" opacity="0.4" style="mix-blend-mode:multiply;isolation:isolate"/><path d="M173.049,605.86s15.129,35.87,21.229,39.231c21.989,12.117,17.439-63.739,17.439-63.739s3.972-21.474-12.4-21.474c-5.489,0,.931,21.474.931,21.474l-2.555,31.963-3.862-12.448A26.559,26.559,0,0,1,173.049,605.86Z" transform="translate(-110.256 -481.35)" fill="#f9b39d"/><path d="M116.145,529.215l-11.089,10.8s7.365,6.922,15.729-2.174c0,0,6.89,7.658,11.591,6.027a14.235,14.235,0,0,0,6.844-4.83S125.127,526.611,116.145,529.215Z" transform="translate(-89.616 -471.933)" fill="#f99180"/><path d="M109.42,619.258l-5.976-21.489,1.786,22.15Z" transform="translate(-89.126 -492.853)" fill="#f2785f" opacity="0.4" style="mix-blend-mode:multiply;isolation:isolate"/><path d="M193.414,658.349a2.517,2.517,0,0,1-.816-.148c-8.911-3.083-30.674-58.022-31.6-60.36l.648-.256c.224.569,22.565,56.978,31.176,59.956a1.375,1.375,0,0,0,1.2-.055l.352.6A1.878,1.878,0,0,1,193.414,658.349Z" transform="translate(-106.599 -492.797)" fill="#0c0c0c"/></g><g transform="translate(1118.89 386.928)"><ellipse cx="78.433" cy="6.835" rx="78.433" ry="6.835" transform="translate(17.777 392.564)" fill="#ebebfc" style="mix-blend-mode:multiply;isolation:isolate"/><path d="M569.673,757.433h69.988s-3.652-17.542-34.994-17.542S569.673,757.433,569.673,757.433Z" transform="translate(-519.825 -440.872)" fill="#131e44"/><path d="M554.975,695.694l60.283-4.618L677.9,681.6,724.7,816.439l-20.679.012-52.573-93.6s-56.556,11.669-73.151,3.922C569.5,722.665,554.975,695.694,554.975,695.694Z" transform="translate(-515.363 -423.177)" fill="#997773"/><path d="M560.74,716.81s33.746,4.136,53.427-21.292l69.147,3.94,27.962,121.206-19.52-.7-36.213-86.174s-60.962,5.718-77.557-2.028C569.184,727.656,560.74,716.81,560.74,716.81Z" transform="translate(-517.113 -427.402)" fill="#af918c"/><path d="M541.723,616.155s33.406,4.25,53.427-21.292l-14.965-34.528s24.744,19.271,21.86-4.28-32.64-57.2-42.305-61.934c-9.552-4.679-32.119-7.574-32.119-7.574s-9.331-94.591,0-121.086c1.146-3.254-18.841-.258-18.841-.258s-24.037,91.342,0,159.609S541.723,616.155,541.723,616.155Z" transform="translate(-498.096 -326.747)" fill="#93a2f9"/><path d="M547.09,811.887l-2.036-.467,19.917-86.8c-2.263-5.14-25.253-58.6-11.9-78.583,3.435-5.143,8.976-7.649,16.466-7.447,14.6.392,27.217,14.635,37.515,42.332a254.112,254.112,0,0,1,11.068,41.158l-2.061.342c-.134-.809-13.762-80.862-46.578-81.744-6.717-.173-11.662,2.013-14.672,6.519-13.1,19.609,11.959,76.321,12.214,76.892l.142.319Z" transform="translate(-512.351 -410.115)" fill="#131e44"/><path d="M568.347,707.915c-7.833,0-11.51-.949-11.736-1.009l.54-2.018-.27,1.009.269-1.009c.08.02,8.232,2.1,26.242-.028,20.7-2.441,26.01-4.97,26.06-5l.924,1.874c-.222.11-5.686,2.713-26.74,5.2A131.082,131.082,0,0,1,568.347,707.915Z" transform="translate(-515.859 -428.721)" fill="#131e44"/><path d="M627.568,847.43h-2.122l15.019-84.081,2.057.377Z" transform="translate(-536.756 -447.993)" fill="#131e44"/><rect width="2.09" height="82.887" transform="translate(59.837 316.555) rotate(-6.935)" fill="#131e44"/><path d="M603.862,628.755l-27.77-39.423L611.513,646.7Z" transform="translate(-521.773 -395.167)" fill="#808cff" opacity="0.4" style="mix-blend-mode:multiply;isolation:isolate"/><path d="M534.276,516.122S521.254,467.18,532.152,455s12.179,16.271,18.59,19.52a43.469,43.469,0,0,0,10.692,4.02l-5.778,3.543s6.79,14.892,2.777,18.171c-3.675,3.005-11.861,1.008-11.861,1.008l4.169,14.863Z" transform="translate(-507.114 -353.472)" fill="#f9b39d"/><path d="M534.193,538.219l-9.807.981,5.629-15.84Z" transform="translate(-506.077 -375.14)" fill="#808cff" opacity="0.4" style="mix-blend-mode:multiply;isolation:isolate"/><path d="M551.779,488.55s-3.224-.009-12.478-12.485c5.144-2.858,6.439-9.568-1.217-24.546-4.165-8.148-25.7-11.944-32.574,16.689-4.631,19.3,18.035,31.468,18.035,31.468l8.059-4.966.321-9.485s-10.148-5.692-4.85-10.126c3.151-2.637,5.37,1.913,7.274,2.418,3.333,4.56,8.783,12.945,7.512,17.508a16.418,16.418,0,0,1-1.924,4.651s9.264,4.213,12.976-1.035C556.605,493.422,551.779,488.55,551.779,488.55Z" transform="translate(-500.157 -351.543)" fill="#59281b"/><path d="M513.436,349.217s7.626-26.44,24.992-38.447c4.7-3.247-6.872,27.786-6.872,27.786s7.716-11.145,9.026-6.338l-8.3,17Z" transform="translate(-502.753 -310.532)" fill="#f9b39d"/><path d="M531.6,542.348l2.541-6.268h16.71l6.688,6.268Z" transform="translate(-508.268 -379.001)" fill="#ebebfc"/><path d="M512.853,362.464l-1.338,7.885,18.207,2.682,1.972-8.18Z" transform="translate(-502.17 -326.297)" fill="#ebebfc"/><path d="M564.143,720.125c13.243.611,29.217-1.586,44.478-14.562,0,0-5.031,17.465-31.632,17.751C568.563,723.4,564.143,720.125,564.143,720.125Z" transform="translate(-518.146 -430.451)" fill="#af918c" opacity="0.4" style="mix-blend-mode:multiply;isolation:isolate"/><path d="M770.159,866.821l2.417,13.725,45.75.177-30.557-14.847Z" transform="translate(-580.686 -479.117)" fill="#152344"/><path d="M746.153,865.624l1.951,14.963,47.422-.06-30.067-15.076Z" transform="translate(-573.398 -478.988)" fill="#1e2d56"/><path d="M561.228,690.214c-4.624,0-7.547-.2-7.638-.2l.148-2.084c.287.019,28.825,1.935,49.562-6.5l.788,1.935C589.549,689.274,571.33,690.214,561.228,690.214Z" transform="translate(-514.942 -423.123)" fill="#131e44"/><path d="M697.344,750.208l5.457-1.364-1.236,11.97Z" transform="translate(-558.581 -443.59)" fill="#af918c" opacity="0.4" style="mix-blend-mode:multiply;isolation:isolate"/></g><path d="M237.319,843.24a13.689,13.689,0,0,1-3.437-1.626s2.321-27.348,10-31.117c0,0,18.8.515,17.571,4.906-10.383,37.077,4.7,48.441-6.6,48.441-4.263,0-14.7-9.607-14.7-26.674C240.159,832.721,237.319,843.24,237.319,843.24Z" transform="translate(701.001 -75.378)" fill="#59281b"/><path d="M245.151,857.468l1.392-22.845-3.647,9.871Z" transform="translate(698.265 -82.702)" fill="#59281b" opacity="0.4" style="mix-blend-mode:multiply;isolation:isolate"/><path d="M1378.83,668.562l-12.26-47.674,41.63.323,15.69.122-9.549,47.756Z" transform="translate(357.152 -17.818)" fill="#fff"/><g transform="translate(1767.377 381.917)"><path d="M1475.236,666.044l-14.272-55.5,66.73-.292-11.117,55.6Z" transform="translate(-1438.881 -396.506)" fill="#e3ecff"/><path d="M1513.577,304.051c-60.369,59.29-20.555,164.271-20.555,164.271l.12,0v50.815h4.638l-.078-53.3C1518.664,447.6,1526.33,291.525,1513.577,304.051Z" transform="translate(-1444.702 -303.336)" fill="#e9f0ff"/><path d="M1444.466,349.448c-41.821,67.761,15.853,124.4,15.853,124.4s10.022,9.352,10.026,9.351l3.5,54.331h4.849l-4.055-54.869C1475.7,436.609,1453.855,334.236,1444.466,349.448Z" transform="translate(-1429.255 -316.871)" fill="#e9f0ff"/><path d="M1525.727,507.167l-5.561,42.727,3.972.153,8.753-42.557s60.33-30.9,19.833-103.552C1552.725,403.939,1531.938,476.917,1525.727,507.167Z" transform="translate(-1456.852 -333.876)" fill="#e9f0ff"/></g><path d="M1389,683.394s-25.642,3.607-44.2-19.517l13.873-31.26s-22.939,17.448-20.265-3.874,30.258-51.785,39.219-56.072c8.854-4.236,29.775-6.857,29.775-6.857s18.079-.6,11.024,37.511C1406.464,667.927,1389,683.394,1389,683.394Z" transform="translate(365.767 -1.099)" fill="#4b6faf"/><path d="M1432.2,542.426s17.632-44.545,7.53-55.575-19.3,16.091-25.247,19.032a42.351,42.351,0,0,1-9.912,3.677l5.356,3.227s-6.294,13.492-2.575,16.461c3.408,2.72,11.291-.262,11.291-.262l-4.9,14.335Z" transform="translate(345.617 23.668)" fill="#f9b39d"/><path d="M1364.152,655.349l14.67-14.653-22.582,32.483Z" transform="translate(360.288 -23.831)" fill="#93a2f9" opacity="0.4" style="mix-blend-mode:multiply;isolation:isolate"/><path d="M1365.262,725.64s-23.78,4.406-43.18-20.66c0,0-46.4,1.761-56.559,11.465-8.9,8.5-4.4,106.3-4.4,106.3h24.691l-7.238-86.917s53.913,16.689,70.272,9.053C1357.525,740.832,1365.262,725.64,1365.262,725.64Z" transform="translate(389.507 -43.346)" fill="#ad827b"/><path d="M1350.67,722.56s-23.78,4.406-43.18-20.66c0,0-58.149-13.211-68.31-3.508-8.9,8.5-27.262,121.274-27.262,121.274h24.14l20.022-93.7s55.424,21.619,73,17.5C1347.881,739.049,1350.67,722.56,1350.67,722.56Z" transform="translate(404.099 -40.266)" fill="#af918c"/><path d="M1392.329,725.64c-13.055.6-29.143-2.695-43.18-20.66,0,0,1.838,21.493,27.52,23.854A29.165,29.165,0,0,0,1392.329,725.64Z" transform="translate(362.44 -43.346)" fill="#af918c" opacity="0.4" style="mix-blend-mode:multiply;isolation:isolate"/><path d="M1223.029,873.51l-.607,12.748H1169l31.292-13.355Z" transform="translate(417.128 -94.322)" fill="#9b4a3a"/><path d="M1423.362,486.077c-1.692,2.8,2.428,11.357,5.767,11.749s0,13.14,0,13.14l1.483,1.215s5.276-9.54,7.235-4.246c1.382,3.731-5.514,14.161-5.514,14.161l10.417,4.179s11.985-15.759,13.871-21.915C1461.877,487.216,1434.621,467.427,1423.362,486.077Z" transform="translate(340.031 25.392)" fill="#a52f0f"/><path d="M1400.019,714.489a75.508,75.508,0,0,1-11.009-.846c-19.118-2.821-24.1-5.794-24.305-5.919l1.1-1.778c.042.025,5.006,2.9,23.513,5.629,16.194,2.39,24.828-1.251,24.913-1.288l.839,1.914C1414.789,712.323,1409.709,714.489,1400.019,714.489Z" transform="translate(357.718 -43.639)" fill="#131e44"/><path d="M1408.671,696.847c-16.693,0-29.061-1.962-36.839-5.851l.935-1.868c8.78,4.391,23.928,6.228,44.8,5.462.791-.029,1.044-.049,1.74-.049v2.089c-.7,0-.91.02-1.664.047C1414.564,696.791,1411.5,696.847,1408.671,696.847Z" transform="translate(355.554 -38.534)" fill="#131e44"/><path d="M1363.423,852.512l-15.012-83.547,2.057-.345,15.113,83.892Z" transform="translate(362.664 -62.665)" fill="#131e44"/><path d="M1399.382,852.891l-2.1,0,10.008-82.282,2.074.252Z" transform="translate(347.83 -63.268)" fill="#131e44"/><path d="M1327.078,853.163h-2.116l10.008-82.4,2.074.308Z" transform="translate(369.783 -63.317)" fill="#131e44"/><path d="M1416.191,816l-16.554-84.322.134-.3c2.213-4.959,19.248-56.414,7.66-74.27a12.538,12.538,0,0,0-11.261-5.941h0c-32.795,0-45.308,77.633-45.43,78.416l-2.065-.263a234.792,234.792,0,0,1,10.506-39.88c9.93-26.721,22.375-40.362,36.989-40.362h0a14.668,14.668,0,0,1,13.014,6.893c11.85,18.26-4.645,69.3-7.371,75.887L1418.325,816Z" transform="translate(362.585 -26.376)" fill="#131e44"/><path d="M1345.357,620.232s11.028-1.207,11.382.32-9.645,2.919-9.645,2.919,7.3,3.544,6.554,8.009c-1.608,9.608-11.841,9.182-15.2,4.6S1335.952,620.944,1345.357,620.232Z" transform="translate(366.233 -17.482)" fill="#f9b39d"/><path d="M1411.959,533.433a4.239,4.239,0,0,1-2.743-1.487l.531-.451c.011.014,1.162,1.323,2.335,1.237a2.115,2.115,0,0,0,1.56-1.192l.6.361a2.76,2.76,0,0,1-2.1,1.525C1412.077,533.431,1412.018,533.433,1411.959,533.433Z" transform="translate(344.206 9.318)"/><path d="M1423.631,548.066l4.105-.987-6.722,8.747Z" transform="translate(340.624 4.588)" fill="#f9b39d" opacity="0.4" style="mix-blend-mode:multiply;isolation:isolate"/><path d="M1425.437,515.264c-.458.831-1.092,1.36-1.415,1.182s-.214-1,.244-1.828,1.092-1.36,1.415-1.182S1425.9,514.433,1425.437,515.264Z" transform="translate(339.768 14.811)"/><path d="M1404.7,568.813l10.984-7.733h18.475l1.306,7.415S1416.679,569.234,1404.7,568.813Z" transform="translate(345.577 0.338)" fill="#4b7abf"/><g transform="translate(1245.089 528.083)"><path d="M842.531,681.381s15.177-19.079,25.363-16.563c21.213,5.239-20.465,170.739-20.465,170.739H829.137S829.137,717.829,842.531,681.381Z" transform="translate(-708.789 -538.167)" fill="#fca38b"/><path d="M666.373,847.956,656.33,765.248l2.074-.165,10.008,82.873Z" transform="translate(-656.33 -568.674)" fill="#131e44"/><ellipse cx="113.504" cy="6.835" rx="113.504" ry="6.835" transform="translate(22.003 335.354)" fill="#ebebfc" style="mix-blend-mode:multiply;isolation:isolate"/><path d="M828.609,889.08H851.4s-4.273,33.13-1.641,36.531c6.449,8.333,26.621,13.383,23.78,22.46l-32.521-.03-4.3-14.1-2.21,14.1-6.8.031.607-58.99" transform="translate(-708.357 -606.316)" fill="#4f3631"/><path d="M735.279,549.538s20.392,12.945,22.885-15.011c.229-2.575,7.377-2.326,6.46-4.358-1.286-2.851-8.5-8.04-8.5-8.04l-6.959-16.372s-37.455,23.9-13.882,43.78" transform="translate(-677.932 -489.951)" fill="#f9b39d"/><path d="M765.572,532.095c-1.706,0-2.627-3.772-2.627-7.321s.921-7.321,2.627-7.321,2.626,3.772,2.626,7.321S767.277,532.095,765.572,532.095Zm0-13.945c-.806,0-1.93,2.52-1.93,6.625s1.125,6.624,1.93,6.624,1.93-2.52,1.93-6.624S766.378,518.149,765.572,518.149Z" transform="translate(-688.695 -493.501)"/><path d="M750.169,581.411s.25-6.409,6.761-6.329c2.4.029,0,9.606,0,9.606s5.775-5.957,7.03-5.136c7.618,4.977-3.339,8.065-3.339,8.065H750.129Z" transform="translate(-684.805 -510.995)" fill="#fff"/><path d="M881.592,710.558s17.944-23.858,25.363-16.44S886.49,864.979,886.49,864.979H868.2S868.2,747.007,881.592,710.558Z" transform="translate(-720.647 -546.697)" fill="#f9b39d"/><path d="M734.529,832.418h79.283s-4.137-19.872-39.642-19.872S734.529,832.418,734.529,832.418Z" transform="translate(-680.069 -583.082)" fill="#131e44"/><path d="M802.368,932.7l-2.091-.176,17.41-95.514,2.055.374Z" transform="translate(-700.028 -590.508)" fill="#131e44"/><path d="M765.334,932.333,753.911,836.05l2.075-.243,11.338,96.416Z" transform="translate(-685.953 -590.143)" fill="#131e44"/><path d="M852.651,931.34l-11.3-97.132,2.076-.241,11.323,97.352Z" transform="translate(-712.497 -589.585)" fill="#131e44"/><path d="M881.148,682.084s15.61-19.937,20.557-17.323,12.713,23.615,9.181,20.538c-4.515-3.934-18.751,9.982-18.751,9.982Z" transform="translate(-724.578 -538.148)" fill="#fca38b"/><path d="M816.569,672.77l35.956-4.853,3.709,11.4L821.578,695.2Z" transform="translate(-704.974 -539.177)" fill="#576dc9"/><path d="M868.756,889.08h23.558s-4.69,33.13-2.059,36.531c6.449,8.333,27.942,13.383,25.1,22.46l-33.843-.03-4.3-14.1-2.21,14.1-6.809-.093.378-58.866" transform="translate(-720.647 -606.316)" fill="#60443d"/><path d="M857.5,664.773s11.523-12.786,16.469-10.173,10.917,19.959,7.46,16.8c-11.519-10.531-11.231,5.328-11.231,5.328Z" transform="translate(-717.399 -535.028)" fill="#f9b39d"/><path d="M857.5,668.174s3.174-12.6,6.321-11.251,0,13.344,0,13.344,6.912-4.427,7.652-2.913-4.5,5.551-4.5,5.551,15.684-2.619,10.094,2.117-17.253,4.793-17.253,4.793Z" transform="translate(-717.399 -535.809)" fill="#fff"/><path d="M757.381,526.795c-18.582-4.7-24.828-3.007-26.9-1.581a2.224,2.224,0,0,0-1.055,1.284l-.692-.08a2.783,2.783,0,0,1,1.351-1.777c2.646-1.825,9.559-3.049,27.462,1.479Z" transform="translate(-678.311 -495.184)"/><path d="M764.923,554.409c-.054,0-.106,0-.159-.008A2.572,2.572,0,0,1,763,553.024l.623-.313c0,.01.48.929,1.212,1,.5.043,1.042-.309,1.617-1.054l.552.425A2.785,2.785,0,0,1,764.923,554.409Z" transform="translate(-688.711 -504.187)"/><path d="M761.9,525.754c0,1.236-.419,2.238-.935,2.238s-.935-1-.935-2.238.419-2.239.935-2.239S761.9,524.518,761.9,525.754Z" transform="translate(-687.811 -495.341)"/><path d="M743.136,538.846c0,.48-.877.869-1.961.869s-1.96-.389-1.96-.869.878-.869,1.96-.869S743.136,538.366,743.136,538.846Z" transform="translate(-681.491 -499.732)" fill="#f9b39d" opacity="0.4" style="mix-blend-mode:multiply;isolation:isolate"/><path d="M894.178,748.148l8.233-8.772v6.594Z" transform="translate(-728.533 -560.87)" fill="#f9b39d" opacity="0.4" style="mix-blend-mode:multiply;isolation:isolate"/><path d="M738.674,751.2s12.3,36.426,50.018,28.536c30.067-6.289,58.478-44.546,58.478-44.546s-4.813-35.109-14.583-37.281C779.224,686.047,769.275,765.114,738.674,751.2Z" transform="translate(-681.327 -547.912)" fill="#e0624c"/><path d="M726.745,718.7s18.546,12.052,63.058-14.118c3.962-2.33,45.409-29.871,45.409-29.871l-9.244-15.363L787.021,676.3c-6.027-29.007-15.812-73.547-27.82-78.977-20.4-9.224-53.785-13.088-58.421,5.459-3.283,13.13-1.1,97.011,9.8,99.946,3.621.974,11.336-2.014,11.336-2.014C721.918,709.555,723.237,714.218,726.745,718.7Z" transform="translate(-669.398 -515.412)" fill="#6979d6"/><path d="M716.266,485.267s3.3,4.534,7.831,3.3,14.764-1.28,15.259,8.973c.41,8.5-8.286,6.824-9.111,9.3s-1.235,15.008-6.148,10.994c-6.535-5.34-13.219,3.4-9.509,8.253s10.333,1.639,10.745,4.936-6.182,8.243-2.885,12.365,9.283,13.037,5.67,28.439c-2.5,10.655-13.089,15.869-23.87,10.655,0,0-3.3,16.549-17.659,16.549-16.184,0-25.891-17.291-7.419-56.879,4.351-9.324-3.58-15.178-.4-26.2,2.4-8.3,10.289-8.425,11.113-12.34S689.887,475.787,716.266,485.267Z" transform="translate(-660.215 -483.061)" fill="#9b4a3a"/><g transform="translate(12.041 7.091)" opacity="0.4" style="mix-blend-mode:multiply;isolation:isolate"><path d="M726.634,551.164c-.156-1.244-1.2-1.561-2.63-1.735-.973,3.206-5.6,7.42-2.729,11.008,3.3,4.121,9.283,13.037,5.67,28.439-2.5,10.655-13.089,15.868-23.869,10.655,0,0-3.3,16.548-17.659,16.548a16.53,16.53,0,0,1-11.8-4.373c3.109,5.061,8.239,7.464,14.27,7.464,14.357,0,17.659-16.549,17.659-16.549,10.78,5.214,21.369,0,23.869-10.655,3.613-15.4-2.373-24.317-5.67-28.439S727.045,554.461,726.634,551.164Z" transform="translate(-673.62 -510.299)" fill="#9b4a3a"/><path d="M757.539,500.627c-.174-3.6-1.552-5.929-3.459-7.384a11.359,11.359,0,0,1,.986,4.294c.41,8.5-8.286,6.824-9.111,9.3s-1.236,15.008-6.149,10.994c-6.535-5.34-13.218,3.4-9.509,8.253a6.989,6.989,0,0,0,1.678,1.581c-1.614-4.909,4.4-11.562,10.3-6.742,4.913,4.014,5.324-8.521,6.149-10.994S757.949,509.132,757.539,500.627Z" transform="translate(-690.503 -493.243)" fill="#9b4a3a"/></g><path d="M770.851,654.929s23.03,77.335,31.839,73.406-10.361,5.8-10.361,5.8Z" transform="translate(-691.095 -535.235)" fill="#6979d6" opacity="0.4" style="mix-blend-mode:multiply;isolation:isolate"/><path d="M712.115,888.711l-2.266-.162,22.52-98.145c-2.449-5.555-28.634-66.294-13.513-88.931,3.864-5.783,10.091-8.61,18.534-8.374,16.471.443,30.728,16.547,42.372,47.865a287.533,287.533,0,0,1,12.531,46.6l-2.061.341c-.152-.917-15.61-91.715-52.9-92.718-7.667-.194-13.3,2.3-16.74,7.446-14.879,22.273,13.536,86.592,13.825,87.239l.142.319Z" transform="translate(-672.577 -546.818)" fill="#131e44"/><path d="M735.975,771.355c-8.849,0-13-1.072-13.254-1.139l.539-2.019c.091.024,9.343,2.381,29.78-.028,23.295-2.747,29.512-5.644,29.572-5.673l.919,1.876c-.251.124-6.419,3.063-30.247,5.872A148.38,148.38,0,0,1,735.975,771.355Z" transform="translate(-676.484 -567.889)" fill="#131e44"/><path d="M735.531,752.227a152.229,152.229,0,0,1-16.338-.829l.243-2.075c.357.042,35.765,4.037,55.563-6.627l.991,1.839C764.274,750.846,747.746,752.227,735.531,752.227Z" transform="translate(-675.413 -561.878)" fill="#131e44"/><path d="M881.148,686.437s4.271-7.821,7.46-7.566-.579,12.231-.579,12.231,5.707-10.642,8.742-8.182-5.345,12.64-5.345,12.64,10.279-4.466,10.279-.267-11.313,6.507-11.313,6.507Z" transform="translate(-724.578 -542.501)" fill="#fff"/><path d="M728.044,728.141l-8.486-47.167,3.625,48.4Z" transform="translate(-675.524 -543.141)" fill="#6979d6" opacity="0.4" style="mix-blend-mode:multiply;isolation:isolate"/><path d="M744.09,773.935s15.427,5.452,42.239-6.993c6.521-3.027-11.7,12.713-28.692,14.308C748.767,782.083,744.09,773.935,744.09,773.935Z" transform="translate(-682.971 -569.121)" fill="#e0624c" opacity="0.4" style="mix-blend-mode:multiply;isolation:isolate"/></g><g transform="translate(958.541 507.821)"><path d="M335.042,828.418h79.284s-4.137-19.872-39.642-19.872S335.042,828.418,335.042,828.418Z" transform="translate(-288.249 -582.606)" fill="#131e44"/><path d="M328.6,768.257s5.087,20.53,29.146,22.133,87.521-29.015,87.521-29.015l14.1,115.537h25s-3.846-166.856-10.256-172.067S343.606,749.186,328.6,768.257Z" transform="translate(-286.293 -551.01)" fill="#1e2d56"/><path d="M550.211,870.159l5.336,13.217,55.238-14.926-35.763-7.08Z" transform="translate(-353.568 -598.642)"/><path d="M496.121,784.352l5.128-3.566-3.034,20.692Z" transform="translate(-337.148 -574.179)" fill="#131e44" opacity="0.4" style="mix-blend-mode:multiply;isolation:isolate"/><rect width="0.697" height="130.964" transform="matrix(0.936, -0.353, 0.353, 0.936, 155.206, 162.428)" fill="#0c0c0c"/><path d="M441.782,690.757l4.33,3.376v-9.8Z" transform="translate(-320.652 -544.899)" fill="#182c66" opacity="0.4" style="mix-blend-mode:multiply;isolation:isolate"/><ellipse cx="113.504" cy="6.835" rx="113.504" ry="6.835" transform="translate(18.349 332.569)" fill="#ebebfc" style="mix-blend-mode:multiply;isolation:isolate"/><path d="M281.35,618.04s-20.552,93.042-10.936,98.581S296.376,703.5,296.376,703.5,276.9,644.764,281.35,618.04Z" transform="translate(-267.853 -524.775)" fill="#394766"/><path d="M376.594,727.525s81.6-80.339,89.012-78.3c17.308,4.755,56.872,147.722,56.872,147.722L497.657,805.9,456.4,696.533,395.413,721Z" transform="translate(-300.863 -534.228)" fill="#243c70"/><path d="M301.443,556.6s-8.115-48.876,1.412-56.568a114.242,114.242,0,0,1,18.513-12.176s5.78,17.042,9.876,24.211c2.564,4.487,9.612,6.4,13.137,10.063,1.606,1.667-10.579,3.709-10.579,3.709s4.562,15.7,0,18.268c-8.975,5.048-17.186-1.5-17.186-1.5l5.241,16.446H301.549" transform="translate(-277.072 -485.254)" fill="#f9b39d"/><path d="M314.264,735.157h0s40.028,2.447,54.451-18.725c3.9-5.725-25.909-68.35-25.909-68.35s42.781,47.785,54,41.722c9.546-5.16,17.344-20.208,25.4-50.389l-13.9-1.565-15.67,23.241s-55.889-72.265-76.015-72.265c-26.622,0-20.748-4.978-23.675,0C284.662,602.93,262.269,609.154,314.264,735.157Z" transform="translate(-271.844 -515.235)" fill="#46557c"/><path d="M292.427,542.97a11.964,11.964,0,0,0,10.52-7.693c1.4-3.418,3.583-10.577,3.583-10.577s-8.013-11.625,0-15.449c6.04-2.883,7.5,8.269,7.5,8.269h4.037s-7.051-21.5,2.564-30.028-25,2.072-34.615-.048-8.333-.024-8.333-.024l5.128,5.9S259.734,519.252,292.427,542.97Z" transform="translate(-269.993 -484.121)" fill="#a52f0f"/><g transform="translate(7.63 0.18)" opacity="0.4" style="mix-blend-mode:multiply;isolation:isolate"><path d="M333.464,484.515c-7.836,9.2-.82,24.559-.28,31.833.086,1.162-3.735-3.011-3.735-3.011a22.464,22.464,0,0,1,1.14,4.263h4.037s-7.051-21.5,2.564-30.028C340.686,484.47,338.333,484.109,333.464,484.515Z" transform="translate(-294.181 -484.379)" fill="#a52f0f"/><path d="M279.545,487.817c-1.017.232-.674.782-.674.782L284,494.468c.406-.523-2.564-4.488-2.564-4.488Z" transform="translate(-278.81 -485.422)" fill="#a52f0f"/><path d="M306.112,515.878c-8.338,3.052-.481,16.987-.481,16.987a56.753,56.753,0,0,1-3.206,8.494c-3.525,7.051-6.674,10.1-11.378,6.57-7.072-5.3-9.517-8.144-12.24-12.173,2.552,5.433,7.149,11.107,14.8,16.661a11.964,11.964,0,0,0,10.52-7.693c1.4-3.418,3.583-10.577,3.583-10.577s-7.714-10.829,0-15.225c2.812-1.6,3.933.468,4.981,1.361C311.719,517.234,311.8,513.795,306.112,515.878Z" transform="translate(-278.808 -493.748)" fill="#a52f0f"/></g><path d="M516,952.08V967.4h61.157l-35.9-15.321Z" transform="translate(-343.183 -626.179)"/><path d="M299.206,580.912,292.967,592.3s29.3-1.574,45.6,4.4c5.686,2.083-19.606-14.225-19.606-14.225Z" transform="translate(-275.477 -513.504)" fill="#4f628e"/><path d="M323.043,564.923l-3.648-3.205,6.906,13.367Z" transform="translate(-283.499 -507.677)" fill="#f9b39d" opacity="0.4" style="mix-blend-mode:multiply;isolation:isolate"/><path d="M361.844,667.394l-18.134-17.165L367.872,680.4Z" transform="translate(-290.88 -534.546)" fill="#182c66" opacity="0.4" style="mix-blend-mode:multiply;isolation:isolate"/><path d="M323.325,531.445c.489.884.462,1.835-.061,2.125s-1.343-.194-1.832-1.077-.462-1.836.061-2.125S322.836,530.56,323.325,531.445Z" transform="translate(-284.012 -498.134)" fill="#f9b39d" opacity="0.4" style="mix-blend-mode:multiply;isolation:isolate"/><path d="M340.733,522c.352,1.235.328,2.325-.055,2.434s-.979-.8-1.332-2.038-.328-2.325.055-2.434S340.38,520.765,340.733,522Z" transform="translate(-289.48 -494.998)" fill="#070100"/><path d="M345.167,550.182c-1.219,0-2.465-1.719-2.612-1.928l.57-.4c.492.7,1.517,1.758,2.153,1.621.466-.1.713-.864.838-1.489l.683.137c-.242,1.208-.7,1.893-1.378,2.034A1.21,1.21,0,0,1,345.167,550.182Z" transform="translate(-290.53 -503.468)" fill="#070100"/><path d="M399.839,932.4h-2.214L415.192,834.5l2.057.415Z" transform="translate(-307.248 -590.484)" fill="#131e44"/><path d="M358.907,932.919l-11.338-96.542,2.075-.18,11.338,96.722Z" transform="translate(-292.052 -591)" fill="#131e44"/><path d="M444.744,932.919l-11.338-96.542,2.075-.18,11.338,96.722Z" transform="translate(-318.11 -591)" fill="#131e44"/><path d="M487.719,715.178l-1.046-4.577-6.9,7.763Z" transform="translate(-332.186 -552.873)" fill="#091538" opacity="0.4" style="mix-blend-mode:multiply;isolation:isolate"/><path d="M463.809,653.647s8.473-14.561,13.4-14.957c9.1-.733,17.758,8.533,17.758,8.533s-11.454,1.631-17.292,8.537Z" transform="translate(-327.339 -531.031)" fill="#f9b39d"/><path d="M331.532,794.94s15.816,0,26.574-2.931c6.767-1.844,12.9-4.177,19.146-8.746-3.045,2.227-8.944,14.783-29.421,14.553C340.741,797.737,331.532,794.94,331.532,794.94Z" transform="translate(-287.184 -574.931)" fill="#1e2d56" opacity="0.4" style="mix-blend-mode:multiply;isolation:isolate"/><path d="M363.817,738.173l17.418-4.891s13.164,23.672,2.184,28.236C367.6,768.091,363.817,738.173,363.817,738.173Z" transform="translate(-296.984 -559.758)" fill="#182c66" opacity="0.2" style="mix-blend-mode:multiply;isolation:isolate"/><path d="M309.384,889.37l-2.036-.468,22.573-98.379c-2.449-5.555-28.634-66.293-13.512-88.931,3.864-5.783,10.1-8.611,18.534-8.374,16.471.443,30.727,16.547,42.372,47.864a287.592,287.592,0,0,1,12.532,46.6l-2.061.341c-.152-.917-15.611-91.714-52.9-92.717-7.655-.195-13.3,2.3-16.74,7.446-14.879,22.273,13.536,86.593,13.825,87.239l.142.319Z" transform="translate(-279.842 -547.592)" fill="#131e44"/><path d="M333.55,770.652c-8.85,0-13-1.072-13.254-1.14l.539-2.019c.092.024,9.342,2.382,29.78-.028,23.131-2.727,29.309-7.512,29.369-7.559l1.328,1.612c-.254.211-6.5,5.2-30.451,8.022A148.427,148.427,0,0,1,333.55,770.652Z" transform="translate(-283.773 -567.841)" fill="#131e44"/><path d="M324.418,751.233c-4.236,0-7.078-.089-7.524-.1l.07-2.088c.451.014,45.326,1.407,56.694-7.525l1.29,1.644C365.832,750.322,337.985,751.233,324.418,751.233Z" transform="translate(-282.74 -562.258)" fill="#131e44"/><path d="M302.437,709.716c-.239-.666-23.883-66.839-21.772-90.611,1.05-11.819,8.171-22.035,8.242-22.137l.569.4c-.07.1-7.085,10.169-8.118,21.8-2.1,23.622,21.495,89.65,21.734,90.315Z" transform="translate(-271.702 -518.378)" fill="#0c0c0c"/></g><g transform="translate(1476.857 595.985)"><ellipse cx="78.433" cy="6.835" rx="78.433" ry="6.835" transform="translate(51.07 290.811)" fill="#ebebfc" style="mix-blend-mode:multiply;isolation:isolate"/><path d="M944.789,757.433h69.988s-3.652-17.542-34.994-17.542S944.789,757.433,944.789,757.433Z" transform="translate(-838.665 -541.929)" fill="#131e44"/><path d="M959.314,699.22s.1,28.49-17.634,29.985-77.884-4.286-77.884-4.286l14.268,88.543-19.3,2.729S833.65,713.664,837.547,703.316c3.564-9.462,68.438-4.9,68.438-4.9S949.542,714.674,959.314,699.22Z" transform="translate(-805.985 -529.004)" fill="#131e44"/><path d="M955.288,698.26s-.374,36.519-23.569,38.206c-17.751,1.291-80.023-4.976-80.023-4.976l-9.866,87.259-21,.3,10.4-108.626,69.8-11.722S945.516,713.714,955.288,698.26Z" transform="translate(-801.036 -529.291)" fill="#1e2d56"/><path d="M905.1,473.937c-3.1,11.685-6.873,15.122-13.342,16.037-4.275.6,6.344,3.974,6.344,3.974s1.591,17.464,11.736,17.464l5.635,16.056h18.237L920.788,494.83s8.9-4.4,6.83-10.474C924.109,474.061,908.435,461.383,905.1,473.937Z" transform="translate(-822.26 -459.605)" fill="#f9b39d"/><path d="M900.627,456.4s-2.485,7.567,0,14.733,9.937,13.931,13.126,11.236c10.173-8.6,12.722.718,6.881,7.128s1.73,15.89,1.73,15.89h8.177s11.744-18.134,11.744-29.791C942.284,452.467,923.545,455.211,900.627,456.4Z" transform="translate(-824.924 -455.638)" fill="#131e44"/><g transform="translate(74.598 0.764)" opacity="0.4" style="mix-blend-mode:multiply;isolation:isolate"><path d="M923.688,483.542c2.273-5.567-.948-10.584-9.253-3.564-3.188,2.7-10.641-4.07-13.126-11.236a24.386,24.386,0,0,1-.646-12.007l-.036,0s-2.485,7.567,0,14.733,9.937,13.931,13.126,11.236C920.648,476.878,924.036,479.35,923.688,483.542Z" transform="translate(-899.522 -456.736)" fill="#131e44"/><path d="M939.464,513.42h-8.177s-4.355-5.516-3.9-10.99c-2.721,6.183,3.222,13.776,3.222,13.776h8.177s8.785-13.709,11.155-24.948C946.9,501.864,939.464,513.42,939.464,513.42Z" transform="translate(-907.763 -467.215)" fill="#131e44"/></g><path d="M825.039,585.351l10.353-12.8s33.021,34.512,34.634,31.573c7.268-13.241,2.463-51.432,13.964-56.476s32.956-6.863,43.146,3.142,42.007,53.334,35.508,66.6c-1.774,3.623-10.682,0-10.682,0s8.612,42.314,2.08,44.607c-34.58,12.14-54-8.563-54-8.563l-8.414-47.6s-6.9,30.073-18.24,29.021S825.039,585.351,825.039,585.351Z" transform="translate(-802.313 -482.331)" fill="#56678c"/><path d="M825.486,578.847S815.177,564.3,807.091,564.3c-4.2,0,10.758,8.65,7.331,10.567-3.7,2.071-21.318-9.082-22-3.663s22.711,20.44,22.711,20.44Z" transform="translate(-792.407 -488.625)" fill="#f9b39d"/><path d="M923.162,810.223l-2.135-.038,19.322-84.211c-2.747-6.66-19.2-57.718-7.364-75.966A14.7,14.7,0,0,1,946,643.08h0c14.614,0,27.058,13.706,36.989,40.428A234.808,234.808,0,0,1,993.5,723.376l-2.065.206c-.123-.783-12.636-78.413-45.43-78.413h0a12.566,12.566,0,0,0-11.262,5.977c-11.589,17.859,5.447,69.27,7.66,74.228l.142.357-.078.36Z" transform="translate(-831.452 -512.54)" fill="#131e44"/><path d="M951.786,708.59c-9.692,0-14.771-2.166-15.049-2.288l.839-1.914c.085.037,8.723,3.677,24.914,1.288,18.507-2.73,23.471-5.6,23.518-5.633l1.092,1.781c-.2.125-5.188,3.1-24.306,5.918A75.484,75.484,0,0,1,951.786,708.59Z" transform="translate(-836.221 -529.832)" fill="#131e44"/><path d="M944.467,690.95c-2.832,0-5.808-.056-8.888-.169-.754-.028-1.579-.047-1.579-.047v-2.089s.865.02,1.656.049c20.874.766,35.925-1.071,44.7-5.463l.94,1.869C973.523,688.989,961.159,690.95,944.467,690.95Z" transform="translate(-835.39 -524.728)" fill="#131e44"/><path d="M1002.805,846.956l-2.133-.022,15.128-84.167,2.057.423Z" transform="translate(-855.63 -548.873)" fill="#131e44"/><path d="M969.138,847.2,959.131,765.09l2.074-.213,10.008,82.32Z" transform="translate(-843.019 -549.514)" fill="#131e44"/><path d="M1041.455,847.115l-10.008-82.233,2.074-.275,10.008,82.509Z" transform="translate(-864.972 -549.431)" fill="#131e44"/><path d="M1001.336,631.235c-3.686-11.552-15.106-45.726-13.5-41.745,14.181,35.131,21.376,43.352,21.376,43.352Z" transform="translate(-851.686 -496.174)" fill="#56678c" opacity="0.4" style="mix-blend-mode:multiply;isolation:isolate"/><path d="M921.529,627.246l5.073-13.235L925,646.442Z" transform="translate(-831.604 -503.715)" fill="#56678c" opacity="0.4" style="mix-blend-mode:multiply;isolation:isolate"/><path d="M918.166,529.662l3.095-.7-.705,7.486Z" transform="translate(-830.583 -477.898)" fill="#f9b39d" opacity="0.4" style="mix-blend-mode:multiply;isolation:isolate"/><path d="M927.336,496.7c.307.417.065,1.116-.54,1.562s-1.346.469-1.653.052-.065-1.116.54-1.562S927.029,496.285,927.336,496.7Z" transform="translate(-832.661 -468.013)" fill="#f9b39d" opacity="0.4" style="mix-blend-mode:multiply;isolation:isolate"/><path d="M906.938,495.2c0,.825.306,1.492.682,1.492s.682-.668.682-1.492-.305-1.492-.682-1.492S906.938,494.374,906.938,495.2Z" transform="translate(-827.175 -467.195)"/><path d="M905.283,515.709c-.808,0-1.669-.607-2.564-1.807l.557-.417c.812,1.089,1.552,1.616,2.152,1.515.689-.111,1.145-1.06,1.263-1.416l.662.217c-.022.069-.564,1.682-1.811,1.887A1.613,1.613,0,0,1,905.283,515.709Z" transform="translate(-825.894 -473.199)"/><path d="M948.754,712.2a54.171,54.171,0,0,0,41.446,1.463c1.379-.528-2.863,8.4-20.631,8.195C959.168,721.742,948.754,712.2,948.754,712.2Z" transform="translate(-839.869 -533.524)" fill="#1e2d56" opacity="0.4" style="mix-blend-mode:multiply;isolation:isolate"/><path d="M850.984,877.82l11.989-10.461,19.3-1.483,2.913,10.24Z" transform="translate(-810.189 -580.174)" fill="#60443d"/><path d="M801.984,879.82l11.988-10.461,19.3-1.483,2.913,10.24Z" transform="translate(-795.314 -580.781)" fill="#60443d"/></g></g></svg>