<svg xmlns="http://www.w3.org/2000/svg" width="17.05" height="17.049" viewBox="0 0 17.05 17.049"><g transform="translate(0 -0.001)"><g transform="translate(0 0.001)"><path d="M16.177,6.736l-1.2-.2A6.757,6.757,0,0,0,14.5,5.372l.705-.987a1.05,1.05,0,0,0-.114-1.357L14.029,1.967a1.045,1.045,0,0,0-.744-.31,1.035,1.035,0,0,0-.609.2l-.99.705a6.687,6.687,0,0,0-1.2-.5l-.2-1.182A1.052,1.052,0,0,0,9.242,0h-1.5A1.052,1.052,0,0,0,6.7.881L6.5,2.092a6.591,6.591,0,0,0-1.158.488l-.979-.705A1.052,1.052,0,0,0,3,1.988L1.938,3.05a1.054,1.054,0,0,0-.114,1.357l.712,1a6.6,6.6,0,0,0-.474,1.165l-1.182.2A1.052,1.052,0,0,0,0,7.812v1.5a1.052,1.052,0,0,0,.88,1.04l1.211.207a6.591,6.591,0,0,0,.488,1.158l-.7.976a1.05,1.05,0,0,0,.114,1.357l1.061,1.061a1.045,1.045,0,0,0,.744.31,1.035,1.035,0,0,0,.609-.2l1-.712a6.738,6.738,0,0,0,1.125.463l.2,1.2a1.052,1.052,0,0,0,1.04.88h1.5a1.052,1.052,0,0,0,1.04-.88l.2-1.2a6.757,6.757,0,0,0,1.161-.481l.987.705a1.046,1.046,0,0,0,.613.2h0a1.045,1.045,0,0,0,.744-.31l1.061-1.061a1.054,1.054,0,0,0,.114-1.357l-.705-.99a6.708,6.708,0,0,0,.481-1.161l1.2-.2a1.052,1.052,0,0,0,.88-1.04v-1.5A1.039,1.039,0,0,0,16.177,6.736Zm-.082,2.539a.092.092,0,0,1-.078.093l-1.5.249a.478.478,0,0,0-.385.353,5.7,5.7,0,0,1-.62,1.492.482.482,0,0,0,.021.524l.88,1.239a.1.1,0,0,1-.011.121l-1.061,1.061a.09.09,0,0,1-.068.028.087.087,0,0,1-.053-.018l-1.236-.88a.481.481,0,0,0-.524-.021,5.7,5.7,0,0,1-1.492.62.473.473,0,0,0-.353.385l-.253,1.5a.092.092,0,0,1-.093.078h-1.5a.092.092,0,0,1-.093-.078l-.249-1.5a.478.478,0,0,0-.353-.385,5.92,5.92,0,0,1-1.46-.6.493.493,0,0,0-.242-.064.469.469,0,0,0-.278.089l-1.247.887a.106.106,0,0,1-.053.018.1.1,0,0,1-.068-.028L2.671,13.378a.1.1,0,0,1-.011-.121l.876-1.229a.488.488,0,0,0,.021-.527,5.648,5.648,0,0,1-.627-1.489.488.488,0,0,0-.385-.353L1.04,9.4a.092.092,0,0,1-.078-.093v-1.5a.092.092,0,0,1,.078-.093L2.525,7.47a.482.482,0,0,0,.388-.356,5.7,5.7,0,0,1,.609-1.5A.476.476,0,0,0,3.5,5.1L2.611,3.851a.1.1,0,0,1,.011-.121L3.683,2.669A.09.09,0,0,1,3.75,2.64a.087.087,0,0,1,.053.018l1.229.876a.488.488,0,0,0,.527.021,5.648,5.648,0,0,1,1.489-.627A.488.488,0,0,0,7.4,2.544l.256-1.507A.092.092,0,0,1,7.75.959h1.5a.092.092,0,0,1,.093.078l.249,1.485a.482.482,0,0,0,.356.388,5.781,5.781,0,0,1,1.528.627A.482.482,0,0,0,12,3.516l1.229-.883a.106.106,0,0,1,.053-.018.1.1,0,0,1,.068.028L14.41,3.705a.1.1,0,0,1,.011.121l-.88,1.236a.481.481,0,0,0-.021.524,5.7,5.7,0,0,1,.62,1.492.473.473,0,0,0,.385.353l1.5.253a.092.092,0,0,1,.078.093v1.5Z" transform="translate(0 -0.001)" fill="#e1e2ff"/><path d="M139.779,136a3.679,3.679,0,1,0,3.679,3.679A3.681,3.681,0,0,0,139.779,136Zm0,6.4a2.718,2.718,0,1,1,2.718-2.717A2.719,2.719,0,0,1,139.779,142.4Z" transform="translate(-131.253 -131.157)" fill="#e1e2ff"/></g></g></svg>