<svg xmlns="http://www.w3.org/2000/svg" width="200.212" height="200.212" viewBox="0 0 200.212 200.212"><g transform="translate(0)"><path d="M98.053,160.042V150.032a3.337,3.337,0,0,0,3.337-3.337,26.695,26.695,0,0,0-53.39,0,3.337,3.337,0,0,0,3.337,3.337v10.011a23.358,23.358,0,0,0,46.716,0ZM74.695,126.674a20.055,20.055,0,0,1,19.633,16.09,22.456,22.456,0,0,1-10.183-7.932,3.337,3.337,0,0,0-2.446-1.468,2.856,2.856,0,0,0-.334,0,3.337,3.337,0,0,0-2.359.978c-3.643,3.632-15.249,6.747-23.932,8.349a20.055,20.055,0,0,1,19.62-16.016Zm0,50.053a16.7,16.7,0,0,1-16.684-16.684l-.023-11.112a75.252,75.252,0,0,0,22.824-7.614,27.861,27.861,0,0,0,10.568,7.448v11.278a16.7,16.7,0,0,1-16.684,16.684Zm0,0" transform="translate(-27.979 -69.947)" fill="#4a50d9"/><path d="M196.875,0H3.337A3.337,3.337,0,0,0,0,3.337V16.684a3.337,3.337,0,0,0,3.337,3.337v90.1h6.674v-90.1H190.2V150.159H76.748V136.812H116.79A10.011,10.011,0,0,0,126.8,126.8V73.411a3.337,3.337,0,0,0-3.337-3.337h-1.955L143.485,48.1V63.4a3.337,3.337,0,0,0,.978,2.359l21.082,21.082a29.855,29.855,0,0,1-18.723,6.591V86.759h-6.674v5.91a30.151,30.151,0,0,1-5.339-1.738l-2.669,6.117a36.367,36.367,0,0,0,8.008,2.423v20.658a3.337,3.337,0,0,0,3.337,3.337H153.5V116.79h-6.674V100.106A36.706,36.706,0,1,0,121.6,36.8l-5.789-5.789a3.337,3.337,0,0,0-2.359-.978H103.443v6.674h8.629l5.119,5.119A36.457,36.457,0,0,0,110.117,63.4h6.674a29.864,29.864,0,0,1,5.162-16.815l2.49,2.49,4.719-4.719-2.84-2.84a29.894,29.894,0,0,1,17.165-7.951v9.813l-2.359-2.359L112.072,70.074H106.78a3.337,3.337,0,0,0-3.337,3.337V78.7l-12.37,12.37,4.719,4.719,7.651-7.651v25.313H30.032A30.067,30.067,0,0,0,0,143.485v53.39a3.337,3.337,0,0,0,3.337,3.337H73.411a3.337,3.337,0,0,0,3.337-3.337V156.833h116.79a3.337,3.337,0,0,0,3.337-3.337V20.021a3.337,3.337,0,0,0,3.337-3.337V3.337A3.337,3.337,0,0,0,196.875,0ZM176.854,63.4a29.854,29.854,0,0,1-6.591,18.723l-20.1-20.1V33.566A30.067,30.067,0,0,1,176.854,63.4ZM110.117,76.748h10.011v6.674H110.117Zm-47.327,59.36-9.784-1.633,8.153-9.782Zm-6.512-15.98L46.716,131.6l-9.561-11.472Zm-24,4.565,8.153,9.782-9.784,1.633Zm-25.6,18.793a23.36,23.36,0,0,1,19.461-23l-2.744,19.193a3.336,3.336,0,0,0,3.3,3.811,2.982,2.982,0,0,0,.551-.047l16.134-2.688v52.789H23.358V150.159H16.684v43.379H6.674Zm63.4-10.011v60.064H50.053V140.75l16.134,2.688a2.982,2.982,0,0,0,.551.047,3.336,3.336,0,0,0,3.3-3.811l-2.794-19.547H106.78a3.337,3.337,0,0,0,3.337-3.337V90.1h10.011V126.8a3.337,3.337,0,0,1-3.337,3.337H73.411a3.337,3.337,0,0,0-3.337,3.337ZM6.674,13.348V6.674H193.538v6.674Zm0,0" fill="#4a50d9"/><path d="M384,280h20.021v6.674H384Zm0,0" transform="translate(-223.83 -163.21)" fill="#4a50d9"/><path d="M384,312h20.021v6.674H384Zm0,0" transform="translate(-223.83 -181.862)" fill="#4a50d9"/><path d="M176,72h20.021v6.674H176Zm0,0" transform="translate(-102.589 -41.968)" fill="#4a50d9"/><path d="M176,104h20.021v6.674H176Zm0,0" transform="translate(-102.589 -60.621)" fill="#4a50d9"/></g></svg>