<svg xmlns="http://www.w3.org/2000/svg" width="117.378" height="108.495" viewBox="0 0 117.378 108.495"><g transform="translate(0 -18.4)" opacity="0.6"><g transform="translate(0 18.4)"><path d="M95.461,46.737a34,34,0,0,0-63-11.3,19.477,19.477,0,0,0-3.572-.338,18.635,18.635,0,0,0-18.61,18.61,20.342,20.342,0,0,0,.386,3.862A25.9,25.9,0,0,0,0,78.453a27.685,27.685,0,0,0,7.024,18.32A25.069,25.069,0,0,0,24.4,105.51H45.353a3.258,3.258,0,1,0,0-6.517H24.692C14.82,98.39,6.517,89,6.517,78.428A19.346,19.346,0,0,1,16.1,61.774a3.285,3.285,0,0,0,1.424-3.958,11.824,11.824,0,0,1-.724-4.152A12.114,12.114,0,0,1,28.892,41.571a11.886,11.886,0,0,1,4.127.724A3.274,3.274,0,0,0,37.1,40.63a27.481,27.481,0,0,1,52.208,9.051,3.255,3.255,0,0,0,2.7,2.9c10.741,1.834,18.851,11.755,18.851,23.075,0,12-9.438,22.423-21.072,23.316H72a3.258,3.258,0,1,0,0,6.517H90.151a28.877,28.877,0,0,0,19.358-9.558,30.059,30.059,0,0,0,7.869-20.275C117.354,62.112,108.109,50.068,95.461,46.737Z" transform="translate(0 -18.4)"/><path d="M198.286,208.233a3.249,3.249,0,0,0,0-4.61l-17.258-17.258a3.3,3.3,0,0,0-2.293-.965,3.2,3.2,0,0,0-2.293.965l-17.258,17.258a3.271,3.271,0,0,0,2.293,5.576,3.18,3.18,0,0,0,2.293-.965l11.706-11.706v53.8a3.258,3.258,0,1,0,6.517,0v-53.8L193.7,208.233A3.22,3.22,0,0,0,198.286,208.233Z" transform="translate(-120.034 -145.091)"/></g></g></svg>